<?xml version="1.0" encoding="utf-8"?>
<!-- Generator: Adobe Illustrator 17.0.0, SVG Export Plug-In . SVG Version: 6.00 Build 0)  -->
<!DOCTYPE svg PUBLIC "-//W3C//DTD SVG 1.1//EN" "http://www.w3.org/Graphics/SVG/1.1/DTD/svg11.dtd">
<svg version="1.1" id="Capa_1" xmlns="http://www.w3.org/2000/svg" xmlns:xlink="http://www.w3.org/1999/xlink" x="0px" y="0px"
	 width="2760px" height="64px" viewBox="0 0 2760 64" enable-background="new 0 0 2760 64" xml:space="preserve">
<rect fill="none" width="175" height="140"/>
<g enable-background="new    ">
	<path fill="#325D87" d="M9.917,62.173V15.117H2.066V8.679c2.21-0.26,4.315-1.097,6.315-2.511c1.999-1.414,3.438-3.129,4.316-5.144
		h6.436v61.149C19.133,62.173,9.917,62.173,9.917,62.173z"/>
	<path fill="#325D87" d="M56.436,48.227c0,4.064-1.431,7.509-4.291,10.338c-2.861,2.828-6.291,4.242-10.289,4.242
		c-4.064,0-7.518-1.422-10.362-4.267c-2.845-2.844-4.266-6.283-4.266-10.314V14.873c0-4.064,1.43-7.518,4.291-10.362
		c2.86-2.844,6.306-4.267,10.338-4.267c4.063,0,7.509,1.431,10.338,4.291c2.829,2.861,4.242,6.307,4.242,10.338
		C56.435,14.873,56.435,48.227,56.436,48.227z M46.877,14.678c0-1.463-0.52-2.713-1.56-3.754c-1.041-1.04-2.292-1.56-3.754-1.56
		s-2.706,0.52-3.731,1.56c-1.024,1.041-1.536,2.292-1.536,3.754v33.404c0,1.463,0.512,2.714,1.536,3.754
		c1.024,1.041,2.267,1.56,3.731,1.56c1.463,0,2.713-0.519,3.754-1.56c1.04-1.04,1.56-2.292,1.56-3.754V14.678z"/>
</g>
<g>
	<rect x="123" y="0.608" fill="none" width="106.74" height="85.392"/>
	<g enable-background="new    ">
		<path fill="#325D87" d="M134.259,63.105V15.031h-8.02V8.456c2.258-0.266,4.409-1.121,6.451-2.566
			c2.042-1.445,3.512-3.196,4.409-5.256h6.576v62.472H134.259z"/>
		<path fill="#325D87" d="M159.416,63.105V15.031h-8.02V8.456c2.258-0.266,4.409-1.121,6.451-2.566
			c2.042-1.445,3.512-3.196,4.409-5.256h6.576v62.472H159.416z"/>
	</g>
</g>
<g>
	<rect x="359.667" y="1.314" fill="none" width="103.913" height="83.131"/>
	<g enable-background="new    ">
		<path fill="#325D87" d="M370.627,62.156V15.354h-7.808V8.953c2.198-0.258,4.292-1.091,6.28-2.498
			c1.989-1.407,3.419-3.112,4.292-5.117h6.402v60.817H370.627z"/>
		<path fill="#325D87" d="M401.325,53.426c4.202,0,6.305-1.954,6.305-5.862V43.98c0-6.234-3.266-9.351-9.796-9.351V26.78
			c3.523,0,6.127-0.985,7.808-2.955c1.552-1.776,2.328-4.264,2.328-7.461V14.96c0-3.973-1.746-5.959-5.237-5.959
			c-1.94,0-3.363,0.739-4.268,2.219c-0.679,1.125-1.019,2.587-1.019,4.387v1.592h-8.972v-1.407c0-4.331,1.099-7.856,3.298-10.572
			c2.489-3.104,5.997-4.656,10.524-4.656c4.299,0,7.743,1.455,10.33,4.365c2.328,2.618,3.492,5.885,3.492,9.797v2.57
			c0,3.783-1.132,7.049-3.395,9.797c-0.971,1.164-2.102,2.151-3.395,2.958c2.716,1.52,4.817,3.832,6.305,6.936
			c0.776,1.584,1.164,3.509,1.164,5.771v4.801c0,4.494-1.536,8.181-4.607,11.058c-2.942,2.781-6.483,4.17-10.621,4.17
			c-4.042,0-7.469-1.422-10.282-4.267c-2.813-2.845-4.219-6.256-4.219-10.234v-1.504l8.73-0.679l0.194,2.134
			c0.129,1.52,0.671,2.765,1.624,3.734C398.568,52.941,399.805,53.426,401.325,53.426z"/>
	</g>
</g>
<g>
	<rect x="478" y="0.803" fill="none" width="106.5" height="85.2"/>
	<g enable-background="new    ">
		<path fill="#325D87" d="M489.234,63.16V15.194h-8.002V8.633c2.253-0.265,4.398-1.118,6.436-2.559s3.505-3.189,4.399-5.244h6.561
			v62.331L489.234,63.16L489.234,63.16z"/>
		<path fill="#325D87" d="M506.132,40.246l16.603-39.467h9.394v39.467h6.014v9.444h-6.014v13.421h-9.394V49.689h-16.602
			L506.132,40.246L506.132,40.246z M522.734,40.246V20.779l-7.758,19.467C514.976,40.246,522.734,40.246,522.734,40.246z"/>
	</g>
</g>
<g>
	<rect x="599.5" y="0.71" fill="none" width="106.616" height="85.293"/>
	<g enable-background="new    ">
		<path fill="#325D87" d="M610.746,63.134V15.116h-8.011V8.547c2.256-0.265,4.404-1.119,6.444-2.563
			c2.04-1.442,3.508-3.192,4.404-5.25h6.568v62.399L610.746,63.134L610.746,63.134z"/>
		<path fill="#325D87" d="M638.461,10.14v13.385c0.931-1.326,2.244-2.355,3.941-3.086c0.898-0.364,1.946-0.547,3.144-0.547
			c4.124,0,7.168,1.442,9.131,4.329c1.696,2.488,2.544,6.005,2.544,10.549v13.436c0,4.611-1.46,8.393-4.378,11.345
			c-2.786,2.853-6.303,4.28-10.549,4.28c-4.113,0-7.531-1.493-10.25-4.479c-2.621-2.853-3.931-6.336-3.931-10.45v-1.493l9.007-0.697
			l0.199,2.139c0.232,2.488,1.244,4.148,3.035,4.976c0.531,0.266,1.095,0.399,1.691,0.399c3.848,0,5.772-2.007,5.772-6.021V32.929
			c0-1.824-0.667-3.334-2.001-4.528c-0.633-0.563-1.518-0.846-2.651-0.846c-1.668,0-2.902,0.647-3.702,1.941
			c-0.667,1.128-1,2.322-1,3.583v1.692h-9.404V0.686h27.517v9.455L638.461,10.14L638.461,10.14z"/>
	</g>
</g>
<g>
	<rect x="720.667" y="1.13" fill="none" width="104.239" height="83.391"/>
	<g enable-background="new    ">
		<path fill="#325D87" d="M731.662,62.162V15.214h-7.833V8.792c2.205-0.259,4.305-1.095,6.3-2.506
			c1.994-1.411,3.43-3.121,4.305-5.133h6.422v61.008L731.662,62.162L731.662,62.162z"/>
		<path fill="#325D87" d="M767.127,16.284v-1.507c0-1.492-0.397-2.749-1.192-3.77c-0.795-1.022-1.922-1.533-3.381-1.533
			s-2.587,0.511-3.381,1.533c-0.795,1.021-1.192,2.279-1.192,3.77v12.163c2.108-1.881,4.427-2.821,6.957-2.821
			c4.053,0,7.086,1.41,9.097,4.232c1.783,2.465,2.676,5.886,2.676,10.265v10.459h-0.049c-0.194,3.893-1.598,7.151-4.208,9.778
			c-2.611,2.628-5.814,3.941-9.608,3.941c-4.055,0-7.395-1.442-10.023-4.329c-2.562-2.789-3.843-6.195-3.843-10.217V14.97
			c0-2.984,0.721-5.675,2.165-8.076c1.443-2.4,3.495-4.184,6.154-5.352c1.686-0.778,3.535-1.168,5.546-1.168
			c4.021,0,7.362,1.459,10.022,4.378c2.562,2.79,3.844,6.196,3.844,10.217v1.313L767.127,16.284L767.127,16.284z M757.981,48.102
			c0,1.492,0.375,2.724,1.125,3.697c0.815,1.07,1.956,1.605,3.424,1.605c1.467,0,2.607-0.535,3.424-1.605
			c0.782-0.973,1.174-2.206,1.174-3.697V36.815c0-1.752-0.652-3.212-1.957-4.379c-0.62-0.551-1.484-0.826-2.592-0.826
			c-1.598,0-2.804,0.632-3.619,1.897c-0.652,1.039-0.978,2.189-0.978,3.454L757.981,48.102L757.981,48.102z"/>
	</g>
</g>
<g>
	<rect x="839" y="1.145" fill="none" width="104.22" height="83.376"/>
	<g enable-background="new    ">
		<path fill="#325D87" d="M849.993,62.166V15.227h-7.832V8.806c2.205-0.259,4.305-1.094,6.299-2.504
			c1.994-1.41,3.43-3.12,4.305-5.132h6.421v60.997L849.993,62.166L849.993,62.166z"/>
		<path fill="#325D87" d="M893.138,1.121v9.242l-12.892,51.755h-9.023l12.891-51.755h-18.605V1.121H893.138z"/>
	</g>
</g>
<g>
	<rect x="959" y="1.142" fill="none" width="104.224" height="83.379"/>
	<g enable-background="new    ">
		<path fill="#325D87" d="M969.993,62.166V15.225h-7.832V8.804c2.205-0.259,4.305-1.094,6.299-2.504
			c1.994-1.41,3.43-3.121,4.305-5.132h6.421v60.999L969.993,62.166L969.993,62.166z"/>
		<path fill="#325D87" d="M1017.079,48.254c0,4.053-1.427,7.491-4.281,10.312c-2.854,2.822-6.292,4.232-10.312,4.232h-0.73
			c-4.054,0-7.491-1.427-10.312-4.281c-2.821-2.853-4.232-6.275-4.232-10.264V42.71c0-3.73,1.248-6.988,3.746-9.778
			c1.07-1.2,2.318-2.188,3.745-2.967c-2.465-1.265-4.378-3.372-5.74-6.323c-0.681-1.524-1.021-3.437-1.021-5.74v-3.308
			c0-3.956,1.167-7.231,3.503-9.826c2.594-2.919,6.032-4.377,10.312-4.377h0.73c4.312,0,7.766,1.459,10.361,4.377
			c2.335,2.627,3.503,5.902,3.503,9.826v3.308c0,3.794-1.136,6.94-3.406,9.437c-1.005,1.103-2.124,1.979-3.356,2.627
			c2.724,1.525,4.832,3.843,6.323,6.956c0.778,1.59,1.168,3.52,1.168,5.789L1017.079,48.254L1017.079,48.254z M1008.177,17.098
			c-0.065-4.171-1.379-6.79-3.94-7.857c-0.583-0.259-1.282-0.387-2.091-0.387c-1.589,0-2.887,0.436-3.892,1.309
			c-0.811,0.711-1.386,1.625-1.727,2.741c-0.34,1.115-0.479,2.513-0.414,4.195c0.097,2.651,0.518,4.559,1.265,5.723
			c0.973,1.552,2.561,2.329,4.767,2.329c2.205,0,3.81-0.824,4.815-2.473C1007.804,21.284,1008.209,19.426,1008.177,17.098z
			 M1007.885,43.925c0-3.632-0.827-6.064-2.481-7.296c-0.778-0.584-1.865-0.876-3.259-0.876c-2.432,0-4.086,1.038-4.962,3.114
			c-0.519,1.265-0.778,2.952-0.778,5.059v2.919c0,2.011,0.616,3.633,1.849,4.864c1.038,1.038,2.335,1.589,3.891,1.654
			c2.497-0.129,4.232-1.362,5.205-3.697c0.357-0.779,0.535-1.719,0.535-2.821L1007.885,43.925L1007.885,43.925z"/>
	</g>
</g>
<g>
	<rect x="1082" y="0.917" fill="none" width="106.041" height="84.832"/>
	<g enable-background="new    ">
		<path fill="#325D87" d="M1093.185,63.005V15.246h-7.969V8.713c2.243-0.264,4.38-1.114,6.409-2.549
			c2.03-1.436,3.489-3.176,4.38-5.221h6.533v62.062C1102.539,63.005,1093.185,63.005,1093.185,63.005z"/>
		<path fill="#325D87" d="M1124.66,0.151c4.091,0,7.49,1.485,10.195,4.454c2.606,2.838,3.91,6.303,3.91,10.394v33.851
			c0,4.125-1.345,7.622-4.034,10.493c-2.689,2.87-6.046,4.305-10.071,4.305c-4.125,0-7.523-1.468-10.195-4.404
			c-2.607-2.837-3.91-6.302-3.91-10.394v-1.336h9.7v1.535c0,1.518,0.404,2.789,1.212,3.81c0.809,1.023,1.955,1.535,3.44,1.535
			c1.485,0,2.631-0.512,3.439-1.535c0.808-1.021,1.213-2.292,1.213-3.81V36.625c-2.178,1.947-4.537,2.921-7.077,2.921
			c-4.092,0-7.16-1.436-9.205-4.306c-1.815-2.507-2.722-6.005-2.722-10.492v-10.64h0.05c0.132-2.87,0.948-5.451,2.45-7.745
			c1.501-2.293,3.539-4,6.112-5.123C1120.849,0.514,1122.681,0.151,1124.66,0.151z M1129.559,15.098
			c0-1.517-0.404-2.797-1.213-3.836c-0.808-1.039-1.955-1.558-3.439-1.558s-2.631,0.519-3.44,1.558
			c-0.809,1.04-1.212,2.319-1.212,3.836v11.482c0,1.815,0.66,3.316,1.979,4.504c0.594,0.562,1.468,0.842,2.623,0.842
			c2.376,0,3.86-1.253,4.454-3.761c0.164-0.759,0.248-1.337,0.248-1.732V15.098z"/>
	</g>
</g>
<g>
	<rect x="1197.333" y="1.111" fill="none" width="104.261" height="83.409"/>
	<g enable-background="new    ">
		<path fill="#325D87" d="M1200.642,18.361c0-5.773,1.557-10.186,4.672-13.236c2.692-2.692,6.229-4.039,10.608-4.039
			c4.022,0,7.453,1.508,10.292,4.525c2.838,3.017,4.257,6.538,4.257,10.56c0,4.153-0.924,8.159-2.773,12.019
			c-1.006,2.141-3.357,5.824-7.056,11.047c-1.006,1.428-2.498,3.649-4.477,6.666l-1.654,2.482c-1.071,1.622-1.882,2.904-2.433,3.844
			c-0.26,0.481-0.389,0.774-0.389,0.876h18.053v9.003h-29.245v-8.436c0-0.195,0.669-1.316,2.008-3.364
			c0.619-0.939,1.319-1.975,2.101-3.109l2.394-3.448c1.396-1.913,3.589-4.978,6.577-9.195c2.825-3.956,4.937-7.539,6.333-10.75
			c1.137-2.626,1.705-5.075,1.705-7.345c0-1.848-0.52-3.422-1.557-4.719c-1.136-1.362-2.596-2.043-4.379-2.043
			c-2.563,0-4.379,1.476-5.45,4.428c-0.357,0.973-0.535,2.141-0.535,3.503v2.336h-9.051L1200.642,18.361L1200.642,18.361z"/>
		<path fill="#325D87" d="M1261.933,48.24c0,4.055-1.428,7.494-4.282,10.316c-2.855,2.822-6.277,4.233-10.268,4.233
			c-4.056,0-7.502-1.418-10.34-4.257c-2.839-2.839-4.258-6.269-4.258-10.292V14.956c0-4.054,1.427-7.501,4.282-10.34
			c2.855-2.838,6.293-4.257,10.316-4.257c4.054,0,7.494,1.428,10.316,4.282c2.823,2.855,4.233,6.295,4.233,10.316L1261.933,48.24
			L1261.933,48.24z M1252.396,14.761c0-1.46-0.52-2.709-1.557-3.747c-1.039-1.038-2.287-1.557-3.746-1.557s-2.701,0.519-3.723,1.557
			c-1.022,1.039-1.532,2.287-1.532,3.747v33.333c0,1.459,0.511,2.709,1.532,3.746c1.022,1.039,2.263,1.557,3.723,1.557
			s2.708-0.519,3.746-1.557c1.038-1.038,1.557-2.287,1.557-3.746V14.761z"/>
	</g>
</g>
<g>
	<rect x="1317" y="1.154" fill="none" width="105.746" height="84.596"/>
	<g enable-background="new    ">
		<path fill="#325D87" d="M1324.104,18.65c0-5.856,1.58-10.331,4.738-13.424c2.73-2.73,6.317-4.096,10.759-4.096
			c4.079,0,7.559,1.529,10.438,4.59c2.878,3.06,4.318,6.63,4.318,10.71c0,4.212-0.938,8.275-2.813,12.19
			c-1.02,2.171-3.405,5.906-7.156,11.203c-1.02,1.448-2.534,3.702-4.541,6.761l-1.679,2.517c-1.085,1.646-1.909,2.945-2.468,3.899
			c-0.264,0.488-0.395,0.785-0.395,0.889h18.311v9.131h-29.661v-8.556c0-0.197,0.679-1.335,2.036-3.412
			c0.628-0.952,1.338-2.003,2.131-3.153l2.428-3.497c1.416-1.941,3.64-5.049,6.67-9.325c2.865-4.012,5.007-7.647,6.424-10.903
			c1.153-2.664,1.73-5.148,1.73-7.45c0-1.875-0.527-3.47-1.579-4.785c-1.152-1.382-2.633-2.073-4.442-2.073
			c-2.6,0-4.442,1.497-5.528,4.491c-0.363,0.987-0.543,2.172-0.543,3.553v2.369h-9.18L1324.104,18.65L1324.104,18.65z"/>
		<path fill="#325D87" d="M1365.506,63.069V15.442h-7.946V8.927c2.237-0.263,4.368-1.11,6.392-2.541
			c2.023-1.431,3.48-3.166,4.367-5.208h6.515v61.89L1365.506,63.069L1365.506,63.069z"/>
	</g>
</g>
<g>
	<rect x="1437.033" y="1.011" fill="none" width="105.923" height="84.739"/>
	<g enable-background="new    ">
		<path fill="#325D87" d="M1439.32,18.538c0-5.866,1.581-10.348,4.746-13.446c2.734-2.735,6.328-4.104,10.777-4.104
			c4.087,0,7.571,1.533,10.455,4.598c2.884,3.064,4.326,6.642,4.326,10.727c0,4.22-0.94,8.29-2.819,12.211
			c-1.022,2.175-3.41,5.916-7.169,11.222c-1.022,1.45-2.537,3.708-4.547,6.773l-1.682,2.521c-1.087,1.648-1.911,2.95-2.471,3.906
			c-0.264,0.489-0.395,0.786-0.395,0.89h18.34v9.145h-29.711v-8.57c0-0.198,0.68-1.337,2.039-3.418
			c0.629-0.953,1.341-2.005,2.136-3.158l2.433-3.502c1.418-1.943,3.646-5.057,6.681-9.34c2.87-4.019,5.016-7.66,6.434-10.922
			c1.155-2.668,1.733-5.156,1.733-7.463c0-1.877-0.528-3.475-1.582-4.793c-1.154-1.384-2.637-2.075-4.449-2.075
			c-2.603,0-4.449,1.5-5.536,4.498c-0.363,0.989-0.544,2.175-0.544,3.56v2.373h-9.195L1439.32,18.538L1439.32,18.538z"/>
		<path fill="#325D87" d="M1471.44,18.538c0-5.866,1.582-10.348,4.746-13.446c2.734-2.735,6.328-4.104,10.778-4.104
			c4.086,0,7.57,1.533,10.455,4.598c2.883,3.064,4.325,6.642,4.325,10.727c0,4.22-0.94,8.29-2.818,12.211
			c-1.022,2.175-3.411,5.916-7.169,11.222c-1.022,1.45-2.538,3.708-4.548,6.773l-1.681,2.521c-1.088,1.648-1.911,2.95-2.471,3.906
			c-0.264,0.489-0.396,0.786-0.396,0.89h18.341v9.145h-29.711v-8.57c0-0.198,0.679-1.337,2.039-3.418
			c0.629-0.953,1.341-2.005,2.136-3.158l2.433-3.502c1.418-1.943,3.646-5.057,6.681-9.34c2.87-4.019,5.016-7.66,6.435-10.922
			c1.154-2.668,1.732-5.156,1.732-7.463c0-1.877-0.527-3.475-1.581-4.793c-1.154-1.384-2.637-2.075-4.449-2.075
			c-2.603,0-4.449,1.5-5.537,4.498c-0.363,0.989-0.544,2.175-0.544,3.56v2.373h-9.195L1471.44,18.538L1471.44,18.538z"/>
	</g>
</g>
<g>
	<rect x="1556" y="1.319" fill="none" width="104.601" height="84.431"/>
	<g enable-background="new    ">
		<path fill="#325D87" d="M1560.386,18.781c0-5.845,1.562-10.311,4.687-13.398c2.701-2.725,6.249-4.088,10.642-4.088
			c4.035,0,7.477,1.527,10.326,4.58c2.847,3.054,4.272,6.618,4.272,10.689c0,4.203-0.928,8.258-2.783,12.167
			c-1.009,2.167-3.369,5.894-7.078,11.182c-1.01,1.445-2.506,3.694-4.491,6.748l-1.66,2.512c-1.074,1.642-1.888,2.939-2.441,3.891
			c-0.261,0.487-0.39,0.783-0.39,0.887h18.111v9.112h-29.34v-8.54c0-0.197,0.671-1.332,2.014-3.406
			c0.62-0.949,1.323-1.999,2.108-3.146l2.402-3.49c1.4-1.937,3.6-5.039,6.598-9.306c2.835-4.004,4.953-7.631,6.354-10.882
			c1.14-2.659,1.711-5.138,1.711-7.436c0-1.87-0.522-3.463-1.562-4.776c-1.14-1.379-2.604-2.068-4.393-2.068
			c-2.572,0-4.393,1.495-5.468,4.482c-0.359,0.985-0.538,2.167-0.538,3.546v2.364h-9.081v-1.625H1560.386z"/>
		<path fill="#325D87" d="M1602.099,10.654v13.25c0.914-1.313,2.203-2.331,3.867-3.054c0.881-0.36,1.91-0.542,3.085-0.542
			c4.045,0,7.033,1.429,8.958,4.285c1.664,2.463,2.496,5.945,2.496,10.443v13.299c0,4.565-1.432,8.309-4.295,11.231
			c-2.734,2.825-6.184,4.236-10.35,4.236c-4.036,0-7.389-1.478-10.057-4.433c-2.571-2.824-3.857-6.272-3.857-10.344v-1.478
			l8.836-0.689l0.196,2.119c0.226,2.463,1.22,4.105,2.978,4.925c0.52,0.263,1.073,0.394,1.66,0.394c3.774,0,5.663-1.987,5.663-5.96
			V33.214c0-1.806-0.655-3.301-1.964-4.482c-0.621-0.558-1.489-0.838-2.601-0.838c-1.636,0-2.847,0.641-3.632,1.921
			c-0.654,1.117-0.982,2.299-0.982,3.546v1.675h-9.227V1.295h26.997v9.359H1602.099z"/>
	</g>
</g>
<g>
	<rect x="1675.333" y="1.137" fill="none" width="105.766" height="84.613"/>
	<g enable-background="new    ">
		<path fill="#325D87" d="M1679.768,18.636c0-5.857,1.58-10.333,4.74-13.426c2.73-2.731,6.318-4.097,10.761-4.097
			c4.08,0,7.56,1.531,10.44,4.591c2.88,3.06,4.319,6.631,4.319,10.712c0,4.213-0.938,8.277-2.814,12.193
			c-1.021,2.172-3.406,5.907-7.158,11.206c-1.02,1.448-2.534,3.703-4.541,6.763l-1.678,2.518c-1.086,1.647-1.91,2.946-2.468,3.9
			c-0.264,0.488-0.395,0.784-0.395,0.889h18.314v9.132h-29.667v-8.558c0-0.197,0.678-1.335,2.036-3.413
			c0.628-0.952,1.338-2.004,2.132-3.154l2.428-3.498c1.416-1.941,3.64-5.05,6.671-9.327c2.866-4.013,5.009-7.648,6.426-10.905
			c1.153-2.665,1.73-5.149,1.73-7.452c0-1.875-0.527-3.471-1.58-4.787c-1.152-1.381-2.633-2.072-4.443-2.072
			c-2.601,0-4.443,1.497-5.528,4.492c-0.363,0.987-0.543,2.172-0.543,3.554v2.369h-9.182L1679.768,18.636L1679.768,18.636z"/>
		<path fill="#325D87" d="M1730.837,16.514v-1.531c0-1.513-0.404-2.789-1.209-3.826c-0.807-1.037-1.951-1.555-3.432-1.555
			s-2.625,0.518-3.431,1.555s-1.209,2.313-1.209,3.826v12.341c2.139-1.908,4.492-2.863,7.059-2.863c4.113,0,7.19,1.432,9.231,4.295
			c1.809,2.501,2.715,5.973,2.715,10.416v10.613h-0.05c-0.197,3.949-1.621,7.257-4.27,9.922c-2.65,2.666-5.899,3.999-9.75,3.999
			c-4.114,0-7.503-1.464-10.169-4.394c-2.6-2.83-3.9-6.285-3.9-10.367V15.181c0-3.027,0.733-5.758,2.196-8.194
			c1.464-2.435,3.546-4.245,6.245-5.43c1.711-0.79,3.587-1.185,5.627-1.185c4.081,0,7.47,1.481,10.169,4.443
			c2.599,2.831,3.9,6.286,3.9,10.366v1.333H1730.837z M1721.556,48.797c0,1.515,0.38,2.765,1.141,3.752
			c0.827,1.086,1.985,1.629,3.474,1.629s2.647-0.543,3.474-1.629c0.793-0.987,1.191-2.237,1.191-3.752V37.345
			c0-1.777-0.662-3.258-1.986-4.443c-0.629-0.559-1.505-0.84-2.63-0.84c-1.621,0-2.846,0.642-3.672,1.926
			c-0.662,1.054-0.993,2.222-0.993,3.505L1721.556,48.797L1721.556,48.797z"/>
	</g>
</g>
<g>
	<rect x="1795.667" y="1.063" fill="none" width="105.859" height="84.687"/>
	<g enable-background="new    ">
		<path fill="#325D87" d="M1800.631,18.577c0-5.862,1.581-10.342,4.743-13.439c2.734-2.734,6.325-4.1,10.77-4.1
			c4.085,0,7.568,1.531,10.45,4.595s4.323,6.637,4.323,10.721c0,4.217-0.939,8.285-2.817,12.203
			c-1.021,2.174-3.409,5.912-7.164,11.215c-1.021,1.45-2.536,3.706-4.545,6.769l-1.679,2.52c-1.087,1.647-1.911,2.948-2.47,3.903
			c-0.264,0.489-0.396,0.785-0.396,0.89h18.33v9.141h-29.693v-8.565c0-0.197,0.679-1.336,2.038-3.416
			c0.629-0.953,1.34-2.005,2.134-3.156l2.432-3.501c1.417-1.943,3.644-5.054,6.677-9.335c2.869-4.017,5.012-7.655,6.431-10.915
			c1.155-2.667,1.731-5.153,1.731-7.458c0-1.877-0.527-3.474-1.581-4.791c-1.153-1.383-2.636-2.075-4.446-2.075
			c-2.603,0-4.446,1.499-5.533,4.496c-0.364,0.988-0.544,2.174-0.544,3.557v2.371h-9.189L1800.631,18.577L1800.631,18.577z"/>
		<path fill="#325D87" d="M1860.432,1.039v9.387l-13.094,52.569h-9.165l13.095-52.569h-18.898V1.039H1860.432z"/>
	</g>
</g>
<g>
	<rect x="1914.667" y="0.5" fill="none" width="175" height="140"/>
</g>
<g>
	<rect x="1916.667" y="1.664" fill="none" width="70.42" height="56.335"/>
	<g enable-background="new    ">
		<path fill="#325D87" d="M1934.149,54.1c4.209,0,6.315-1.956,6.315-5.871v-3.59c0-6.244-3.272-9.366-9.812-9.366v-7.861
			c3.529,0,6.136-0.986,7.82-2.96c1.555-1.779,2.332-4.27,2.332-7.472v-1.407c0-3.978-1.749-5.967-5.245-5.967
			c-1.944,0-3.368,0.74-4.275,2.221c-0.679,1.127-1.02,2.592-1.02,4.393v1.595h-8.986v-1.409c0-4.339,1.1-7.868,3.303-10.588
			c2.493-3.108,6.006-4.663,10.54-4.663c4.306,0,7.755,1.458,10.346,4.372c2.331,2.623,3.497,5.894,3.497,9.811v2.575
			c0,3.789-1.134,7.06-3.399,9.811c-0.972,1.165-2.105,2.154-3.401,2.963c2.721,1.523,4.825,3.837,6.315,6.946
			c0.777,1.587,1.165,3.514,1.165,5.78v4.809c0,4.502-1.539,8.193-4.614,11.075c-2.947,2.785-6.493,4.178-10.638,4.178
			c-4.048,0-7.479-1.425-10.297-4.275c-2.817-2.849-4.226-6.267-4.226-10.25v-1.506l8.743-0.68l0.195,2.138
			c0.129,1.523,0.672,2.769,1.627,3.74C1931.387,53.614,1932.626,54.1,1934.149,54.1z"/>
		<path fill="#325D87" d="M1981.833,48.951c0,4.048-1.426,7.48-4.275,10.298c-2.85,2.817-6.266,4.226-10.249,4.226
			c-4.048,0-7.489-1.417-10.323-4.251c-2.833-2.833-4.25-6.257-4.25-10.273V15.726c0-4.048,1.425-7.488,4.275-10.322
			c2.849-2.833,6.282-4.25,10.298-4.25c4.048,0,7.48,1.425,10.298,4.275c2.816,2.849,4.226,6.283,4.226,10.297v33.225H1981.833z
			 M1972.312,15.532c0-1.458-0.518-2.703-1.555-3.74c-1.035-1.035-2.282-1.555-3.74-1.555c-1.458,0-2.696,0.518-3.716,1.555
			c-1.02,1.037-1.53,2.283-1.53,3.74v33.273c0,1.458,0.51,2.704,1.53,3.74c1.02,1.037,2.258,1.555,3.716,1.555
			c1.458,0,2.704-0.517,3.74-1.555c1.036-1.035,1.555-2.282,1.555-3.74V15.532z"/>
	</g>
</g>
<g>
	<rect x="2044.083" y="1.113" fill="none" width="105.483" height="84.387"/>
	<g enable-background="new    ">
		<path fill="#325D87" d="M2071.239,62.874V15.366h-7.927V8.867c2.232-0.262,4.358-1.108,6.376-2.536
			c2.018-1.428,3.471-3.158,4.357-5.194h6.499v61.736L2071.239,62.874L2071.239,62.874z"/>
	</g>
</g>
<g>
	<rect x="2165.523" y="1.773" fill="none" width="104.659" height="83.727"/>
	<text transform="matrix(1 0 0 1 2165.5225 63.0518)" fill="#A2B3D7" font-family="'Bebas'" font-size="68.7758"> </text>
	<g enable-background="new    ">
		<path fill="#325D87" d="M2175.195,18.691c0-5.849,1.578-10.318,4.732-13.407c2.728-2.727,6.309-4.091,10.746-4.091
			c4.074,0,7.549,1.528,10.425,4.584c2.875,3.056,4.313,6.622,4.313,10.695c0,4.207-0.936,8.264-2.809,12.175
			c-1.019,2.169-3.402,5.899-7.147,11.189c-1.019,1.446-2.531,3.696-4.535,6.753l-1.676,2.514c-1.084,1.644-1.906,2.942-2.464,3.894
			c-0.264,0.488-0.395,0.783-0.395,0.887h18.287v9.119h-29.624v-8.545c0-0.197,0.678-1.333,2.033-3.408
			c0.627-0.95,1.336-2,2.129-3.148l2.426-3.493c1.414-1.938,3.635-5.042,6.661-9.313c2.862-4.007,5.001-7.637,6.416-10.889
			c1.152-2.66,1.728-5.14,1.728-7.44c0-1.872-0.526-3.465-1.578-4.78c-1.15-1.379-2.629-2.069-4.435-2.069
			c-2.597,0-4.436,1.495-5.52,4.485c-0.362,0.986-0.542,2.169-0.542,3.549v2.366h-9.169L2175.195,18.691L2175.195,18.691z"/>
	</g>
</g>
<g>
	<rect x="2291.846" y="1.489" fill="none" width="103.654" height="82.923"/>
	<g enable-background="new    ">
		<path fill="#325D87" d="M2309.213,53.471c4.193,0,6.29-1.948,6.29-5.847v-3.576c0-6.218-3.257-9.327-9.773-9.327v-7.829
			c3.515,0,6.112-0.982,7.79-2.948c1.547-1.772,2.322-4.253,2.322-7.442v-1.402c0-3.962-1.741-5.944-5.224-5.944
			c-1.935,0-3.355,0.738-4.257,2.213c-0.677,1.122-1.016,2.581-1.016,4.376v1.587h-8.95V15.93c0-4.322,1.096-7.837,3.29-10.546
			c2.483-3.096,5.982-4.644,10.499-4.644c4.289,0,7.723,1.451,10.304,4.354c2.323,2.613,3.483,5.87,3.483,9.772v2.565
			c0,3.773-1.129,7.031-3.387,9.772c-0.966,1.161-2.097,2.145-3.385,2.951c2.708,1.516,4.805,3.821,6.289,6.917
			c0.774,1.581,1.161,3.5,1.161,5.757v4.789c0,4.483-1.532,8.16-4.595,11.03c-2.935,2.774-6.466,4.161-10.595,4.161
			c-4.032,0-7.45-1.419-10.256-4.257c-2.805-2.838-4.208-6.241-4.208-10.208v-1.5l8.708-0.677l0.193,2.129
			c0.129,1.517,0.67,2.758,1.62,3.726C2306.463,52.988,2307.697,53.471,2309.213,53.471z"/>
	</g>
</g>
<g>
	<rect x="2416" y="1.092" fill="none" width="104.151" height="83.32"/>
	<g enable-background="new    ">
		<path fill="#325D87" d="M2437.291,16.234v-1.507c0-1.49-0.397-2.746-1.191-3.767c-0.795-1.021-1.92-1.531-3.378-1.531
			c-1.458,0-2.584,0.51-3.378,1.531c-0.795,1.021-1.192,2.277-1.192,3.767v12.152c2.106-1.879,4.423-2.819,6.951-2.819
			c4.05,0,7.079,1.41,9.09,4.229c1.782,2.464,2.673,5.882,2.673,10.257v10.451h-0.049c-0.195,3.888-1.597,7.145-4.205,9.77
			c-2.609,2.625-5.809,3.938-9.6,3.938c-4.052,0-7.389-1.442-10.014-4.327c-2.561-2.787-3.84-6.189-3.84-10.208V14.922
			c0-2.981,0.72-5.671,2.163-8.069c1.441-2.398,3.491-4.18,6.149-5.346c1.684-0.778,3.531-1.167,5.541-1.167
			c4.018,0,7.355,1.458,10.013,4.375c2.56,2.788,3.841,6.19,3.841,10.208v1.313L2437.291,16.234L2437.291,16.234z M2428.152,48.025
			c0,1.491,0.375,2.722,1.124,3.694c0.814,1.069,1.954,1.604,3.421,1.604c1.465,0,2.605-0.535,3.421-1.604
			c0.781-0.971,1.172-2.203,1.172-3.694V36.748c0-1.75-0.651-3.209-1.954-4.375c-0.619-0.551-1.483-0.827-2.591-0.827
			c-1.596,0-2.801,0.632-3.615,1.896c-0.652,1.038-0.978,2.187-0.978,3.451L2428.152,48.025L2428.152,48.025z"/>
	</g>
</g>
<g>
	<rect x="2536.667" y="1.13" fill="none" width="105.775" height="84.62"/>
	<g enable-background="new    ">
		<path fill="#325D87" d="M2567.916,1.106v9.381l-13.083,52.527h-9.157l13.084-52.527h-18.884V1.106H2567.916z"/>
	</g>
</g>
<g>
	<rect x="2642" y="1.134" fill="none" width="105.77" height="84.616"/>
	<g enable-background="new    ">
		<path fill="#325D87" d="M2653.156,63.063V15.426h-7.948V8.91c2.238-0.263,4.369-1.11,6.393-2.542
			c2.025-1.432,3.481-3.168,4.369-5.208h6.516v61.904C2662.486,63.063,2653.156,63.063,2653.156,63.063z"/>
		<path fill="#325D87" d="M2700.248,48.945c0,4.114-1.448,7.602-4.344,10.465c-2.896,2.863-6.368,4.295-10.416,4.295
			c-4.115,0-7.611-1.439-10.49-4.32c-2.881-2.88-4.32-6.36-4.32-10.441V15.179c0-4.114,1.448-7.61,4.344-10.49
			c2.896-2.88,6.384-4.319,10.465-4.319c4.114,0,7.602,1.448,10.465,4.344c2.863,2.897,4.294,6.385,4.294,10.465V48.945z
			 M2690.573,14.981c0-1.481-0.527-2.748-1.58-3.801c-1.054-1.053-2.321-1.58-3.802-1.58c-1.481,0-2.74,0.527-3.776,1.58
			c-1.037,1.053-1.555,2.32-1.555,3.801v33.815c0,1.481,0.518,2.749,1.555,3.801c1.037,1.053,2.295,1.58,3.776,1.58
			c1.481,0,2.748-0.526,3.802-1.58c1.053-1.053,1.58-2.32,1.58-3.801V14.981z"/>
	</g>
</g>
<g>
	<rect x="239" y="0.842" fill="none" width="104.503" height="83.602"/>
	<g enable-background="new    ">
		<path fill="#325D87" d="M250.023,62.03V14.963h-7.852V8.525c2.211-0.26,4.317-1.097,6.316-2.512
			c1.999-1.415,3.439-3.129,4.316-5.145h6.439V62.03H250.023z"/>
		<path fill="#325D87" d="M266.947,18.134c0-5.787,1.561-10.21,4.682-13.267c2.698-2.698,6.243-4.048,10.633-4.048
			c4.031,0,7.47,1.512,10.316,4.536c2.845,3.024,4.268,6.553,4.268,10.585c0,4.162-0.927,8.178-2.78,12.046
			c-1.008,2.146-3.366,5.838-7.073,11.072c-1.008,1.432-2.504,3.657-4.487,6.682l-1.659,2.487c-1.073,1.627-1.886,2.911-2.439,3.853
			c-0.261,0.483-0.39,0.775-0.39,0.878h18.095v9.023H266.8v-8.456c0-0.195,0.671-1.319,2.012-3.372
			c0.62-0.94,1.322-1.979,2.107-3.115l2.4-3.456c1.399-1.917,3.597-4.989,6.592-9.215c2.832-3.965,4.948-7.557,6.348-10.776
			c1.139-2.632,1.709-5.087,1.709-7.363c0-1.853-0.521-3.43-1.561-4.729c-1.138-1.365-2.602-2.047-4.39-2.047
			c-2.569,0-4.39,1.48-5.462,4.438c-0.358,0.976-0.536,2.146-0.536,3.512v2.341h-9.072V18.134z"/>
	</g>
</g>
</svg>
