<?xml version="1.0" encoding="utf-8"?>
<!-- Generator: Adobe Illustrator 17.0.0, SVG Export Plug-In . SVG Version: 6.00 Build 0)  -->
<!DOCTYPE svg PUBLIC "-//W3C//DTD SVG 1.1//EN" "http://www.w3.org/Graphics/SVG/1.1/DTD/svg11.dtd">
<svg version="1.1" id="Capa_1" xmlns="http://www.w3.org/2000/svg" xmlns:xlink="http://www.w3.org/1999/xlink" x="0px" y="0px"
	 width="2760px" height="100px" viewBox="0 0 2760 100" enable-background="new 0 0 2760 100" xml:space="preserve">
<rect fill="none" width="175" height="140"/>
<g enable-background="new    ">
	<path fill="#325D87" d="M11.438,97.843v-74.16H-0.934V13.538c3.482-0.409,6.8-1.729,9.952-3.957
		c3.151-2.229,5.418-4.931,6.801-8.107h10.144v96.369C25.963,97.843,11.438,97.843,11.438,97.843z"/>
	<path fill="#325D87" d="M84.751,75.864c0,6.404-2.255,11.834-6.763,16.292c-4.508,4.457-9.914,6.686-16.215,6.686
		c-6.404,0-11.848-2.241-16.33-6.725c-4.484-4.483-6.724-9.901-6.724-16.254V23.299c0-6.404,2.254-11.848,6.762-16.33
		c4.507-4.483,9.938-6.725,16.292-6.725c6.403,0,11.834,2.255,16.292,6.763s6.686,9.94,6.686,16.292
		C84.751,23.299,84.751,75.864,84.751,75.864z M69.687,22.991c0-2.305-0.82-4.276-2.459-5.917c-1.64-1.639-3.611-2.459-5.917-2.459
		s-4.265,0.82-5.88,2.459c-1.613,1.64-2.421,3.611-2.421,5.917v52.643c0,2.305,0.807,4.277,2.421,5.917
		c1.613,1.64,3.573,2.459,5.88,2.459c2.305,0,4.276-0.818,5.917-2.459c1.639-1.639,2.459-3.611,2.459-5.917V22.991z"/>
</g>
<g>
	<rect x="116" y="0.608" fill="none" width="166.5" height="133.199"/>
	<g enable-background="new    ">
		<path fill="#325D87" d="M133.563,98.095V23.106h-12.511V12.849c3.522-0.414,6.877-1.749,10.063-4.003
			c3.186-2.254,5.478-4.985,6.877-8.199h10.258v97.448H133.563z"/>
		<path fill="#325D87" d="M172.804,98.095V23.106h-12.511V12.849c3.522-0.414,6.877-1.749,10.063-4.003s5.478-4.985,6.877-8.199
			h10.258v97.448H172.804z"/>
	</g>
</g>
<g>
	<rect x="355.667" y="1.754" fill="none" width="164.833" height="131.867"/>
	<g enable-background="new    ">
		<path fill="#325D87" d="M373.052,98.265V24.026h-12.386V13.871c3.487-0.41,6.808-1.731,9.962-3.962
			c3.154-2.232,5.424-4.936,6.808-8.117h10.155v96.472H373.052z"/>
		<path fill="#325D87" d="M421.747,84.417c6.666,0,10.001-3.099,10.001-9.299v-5.684c0-9.888-5.181-14.833-15.539-14.833v-12.45
			c5.589,0,9.719-1.562,12.386-4.687c2.462-2.817,3.693-6.763,3.693-11.835V23.4c0-6.302-2.769-9.452-8.308-9.452
			c-3.078,0-5.335,1.173-6.77,3.52c-1.078,1.784-1.616,4.104-1.616,6.958v2.525h-14.232v-2.232c0-6.871,1.743-12.462,5.231-16.77
			c3.948-4.924,9.513-7.386,16.694-7.386c6.82,0,12.282,2.308,16.386,6.924c3.693,4.153,5.539,9.335,5.539,15.54v4.077
			c0,6-1.796,11.182-5.385,15.54c-1.54,1.846-3.335,3.413-5.385,4.693c4.308,2.411,7.641,6.078,10.001,11.002
			c1.231,2.512,1.847,5.566,1.847,9.155v7.615c0,7.129-2.437,12.977-7.308,17.541c-4.667,4.411-10.283,6.615-16.848,6.615
			c-6.411,0-11.848-2.256-16.31-6.768s-6.693-9.924-6.693-16.233v-2.385l13.848-1.077l0.307,3.385
			c0.205,2.411,1.064,4.385,2.577,5.924C417.374,83.648,419.336,84.417,421.747,84.417z"/>
	</g>
</g>
<g>
	<rect x="476" y="0.816" fill="none" width="166.007" height="132.805"/>
	<g enable-background="new    ">
		<path fill="#325D87" d="M493.51,98.015V23.248h-12.473V13.022c3.511-0.413,6.856-1.743,10.033-3.989s5.463-4.97,6.857-8.174
			h10.227v97.158H493.51V98.015z"/>
		<path fill="#325D87" d="M519.85,62.298l25.88-61.519h14.642v61.519h9.375v14.72h-9.375v20.92h-14.644v-20.92H519.85L519.85,62.298
			L519.85,62.298z M545.729,62.298V31.953l-12.093,30.344C533.636,62.298,545.729,62.298,545.729,62.298z"/>
	</g>
</g>
<g>
	<rect x="596.5" y="0.723" fill="none" width="166.355" height="133.084"/>
	<g enable-background="new    ">
		<path fill="#325D87" d="M614.047,98.125V23.201h-12.5V12.952c3.52-0.413,6.871-1.745,10.055-3.999
			c3.183-2.251,5.474-4.981,6.871-8.191h10.248v97.363h-14.674V98.125z"/>
		<path fill="#325D87" d="M657.292,15.437v20.885c1.452-2.07,3.502-3.675,6.149-4.814c1.402-0.569,3.037-0.854,4.905-0.854
			c6.434,0,11.184,2.251,14.247,6.755c2.647,3.882,3.97,9.369,3.97,16.459v20.964c0,7.194-2.278,13.096-6.832,17.702
			c-4.348,4.452-9.835,6.678-16.46,6.678c-6.418,0-11.75-2.33-15.994-6.988c-4.089-4.452-6.134-9.886-6.134-16.305v-2.329
			l14.053-1.088l0.31,3.338c0.361,3.882,1.94,6.472,4.736,7.764c0.828,0.415,1.708,0.622,2.639,0.622
			c6.004,0,9.006-3.131,9.006-9.394V50.996c0-2.847-1.04-5.202-3.122-7.065c-0.988-0.879-2.369-1.32-4.136-1.32
			c-2.602,0-4.528,1.009-5.776,3.028c-1.04,1.76-1.561,3.624-1.561,5.59v2.639h-14.674V0.686h42.936v14.752h-28.262V15.437z"/>
	</g>
</g>
<g>
	<rect x="715.667" y="1.572" fill="none" width="165.295" height="132.235"/>
	<g enable-background="new    ">
		<path fill="#325D87" d="M733.102,98.353V23.906h-12.42V13.722c3.496-0.411,6.827-1.736,9.99-3.973
			c3.162-2.237,5.439-4.95,6.827-8.14h10.183v96.742h-14.58V98.353z"/>
		<path fill="#325D87" d="M789.34,25.603v-2.39c0-2.366-0.63-4.359-1.89-5.979c-1.261-1.62-3.047-2.431-5.361-2.431
			s-4.103,0.81-5.361,2.431c-1.261,1.619-1.89,3.613-1.89,5.979v19.287c3.342-2.982,7.019-4.474,11.032-4.474
			c6.428,0,11.237,2.236,14.426,6.711c2.828,3.909,4.243,9.333,4.243,16.278V77.6h-0.078c-0.308,6.173-2.533,11.34-6.673,15.506
			c-4.141,4.167-9.22,6.249-15.236,6.249c-6.43,0-11.726-2.287-15.893-6.865c-4.063-4.423-6.094-9.824-6.094-16.201V23.519
			c0-4.731,1.144-8.999,3.433-12.806c2.288-3.806,5.541-6.635,9.759-8.486c2.674-1.234,5.605-1.852,8.795-1.852
			c6.376,0,11.674,2.314,15.892,6.943c4.062,4.424,6.095,9.825,6.095,16.201v2.082H789.34V25.603z M774.837,76.058
			c0,2.366,0.594,4.32,1.784,5.863c1.292,1.696,3.102,2.544,5.429,2.544c2.326,0,4.135-0.848,5.429-2.544
			c1.24-1.543,1.862-3.497,1.862-5.863V58.159c0-2.777-1.034-5.093-3.103-6.944c-0.983-0.874-2.353-1.31-4.11-1.31
			c-2.533,0-4.447,1.002-5.739,3.008c-1.034,1.647-1.551,3.472-1.551,5.477v17.668H774.837z"/>
	</g>
</g>
<g>
	<rect x="836" y="1.159" fill="none" width="165.5" height="132.4"/>
	<g enable-background="new    ">
		<path fill="#325D87" d="M853.457,98.06V23.521H841.02V13.325c3.502-0.411,6.837-1.737,10.003-3.977
			c3.166-2.239,5.446-4.955,6.837-8.149h10.196v96.862h-14.599V98.06z"/>
		<path fill="#325D87" d="M921.97,1.121v14.676l-20.473,82.186h-14.329l20.472-82.186h-29.545V1.121H921.97z"/>
	</g>
</g>
<g>
	<rect x="956" y="1.582" fill="none" width="165.282" height="132.225"/>
	<g enable-background="new    ">
		<path fill="#325D87" d="M973.433,98.356V23.915h-12.42V13.733c3.497-0.41,6.828-1.735,9.989-3.972s5.439-4.949,6.828-8.139h10.182
			v96.735h-14.579V98.356z"/>
		<path fill="#325D87" d="M1048.103,76.294c0,6.428-2.264,11.879-6.788,16.354c-4.526,4.476-9.978,6.712-16.354,6.712h-1.158
			c-6.429,0-11.879-2.264-16.354-6.788c-4.474-4.525-6.711-9.951-6.711-16.276v-8.794c0-5.915,1.98-11.082,5.94-15.506
			c1.697-1.902,3.676-3.47,5.939-4.705c-3.909-2.006-6.943-5.348-9.102-10.028c-1.08-2.417-1.62-5.451-1.62-9.102v-5.246
			c0-6.273,1.851-11.468,5.555-15.583c4.114-4.629,9.565-6.942,16.354-6.942h1.158c6.839,0,12.316,2.314,16.431,6.942
			c3.702,4.166,5.554,9.36,5.554,15.583v5.246c0,6.017-1.801,11.006-5.401,14.965c-1.594,1.75-3.368,3.139-5.322,4.166
			c4.319,2.418,7.662,6.094,10.027,11.031c1.234,2.522,1.852,5.581,1.852,9.181v8.79H1048.103z M1033.986,26.885
			c-0.103-6.615-2.186-10.769-6.248-12.461c-0.925-0.41-2.032-0.614-3.317-0.614c-2.52,0-4.579,0.692-6.171,2.076
			c-1.287,1.128-2.198,2.577-2.739,4.346c-0.539,1.768-0.759,3.985-0.656,6.652c0.154,4.204,0.822,7.229,2.005,9.075
			c1.542,2.461,4.061,3.693,7.56,3.693c3.496,0,6.042-1.306,7.636-3.923C1033.395,33.525,1034.038,30.578,1033.986,26.885z
			 M1033.524,69.429c0-5.76-1.311-9.616-3.935-11.571c-1.234-0.927-2.958-1.389-5.169-1.389c-3.857,0-6.48,1.647-7.868,4.938
			c-0.823,2.006-1.234,4.681-1.234,8.022v4.629c0,3.189,0.977,5.761,2.932,7.714c1.645,1.647,3.703,2.52,6.171,2.622
			c3.959-0.205,6.711-2.16,8.254-5.863c0.565-1.235,0.848-2.726,0.848-4.474L1033.524,69.429L1033.524,69.429z"/>
	</g>
</g>
<g>
	<rect x="1076" y="1.34" fill="none" width="164.5" height="131.6"/>
	<g enable-background="new    ">
		<path fill="#325D87" d="M1093.351,97.656V23.568h-12.362V13.433c3.48-0.409,6.794-1.728,9.943-3.954
			c3.148-2.228,5.413-4.926,6.794-8.099h10.135v96.276C1107.861,97.656,1093.351,97.656,1093.351,97.656z"/>
		<path fill="#325D87" d="M1142.178,0.151c6.346,0,11.619,2.303,15.815,6.909c4.043,4.403,6.065,9.778,6.065,16.123v52.513
			c0,6.399-2.086,11.824-6.257,16.277c-4.172,4.452-9.38,6.679-15.623,6.679c-6.399,0-11.67-2.277-15.815-6.833
			c-4.044-4.401-6.065-9.776-6.065-16.123v-2.073h15.048v2.381c0,2.355,0.626,4.326,1.88,5.911c1.254,1.587,3.033,2.381,5.337,2.381
			s4.081-0.794,5.335-2.381c1.254-1.585,1.881-3.556,1.881-5.911V56.733c-3.379,3.02-7.038,4.531-10.979,4.531
			c-6.347,0-11.107-2.228-14.28-6.68c-2.816-3.889-4.223-9.316-4.223-16.276V21.802h0.078c0.205-4.452,1.47-8.457,3.8-12.015
			c2.329-3.557,5.49-6.205,9.482-7.947C1136.266,0.714,1139.108,0.151,1142.178,0.151z M1149.778,23.337
			c0-2.354-0.627-4.339-1.881-5.95c-1.254-1.612-3.033-2.418-5.335-2.418s-4.082,0.806-5.337,2.418
			c-1.254,1.613-1.88,3.597-1.88,5.95v17.812c0,2.816,1.024,5.144,3.071,6.987c0.922,0.871,2.277,1.306,4.069,1.306
			c3.686,0,5.989-1.944,6.91-5.835c0.255-1.177,0.384-2.074,0.384-2.687V23.337z"/>
	</g>
</g>
<g>
	<rect x="1195.333" y="1.541" fill="none" width="163.667" height="130.934"/>
	<g enable-background="new    ">
		<path fill="#325D87" d="M1200.527,28.619c0-9.063,2.445-15.989,7.333-20.777c4.226-4.226,9.778-6.34,16.653-6.34
			c6.314,0,11.699,2.368,16.156,7.103c4.455,4.736,6.683,10.263,6.683,16.577c0,6.519-1.451,12.807-4.354,18.867
			c-1.579,3.361-5.27,9.142-11.076,17.341c-1.579,2.241-3.922,5.729-7.028,10.464l-2.597,3.896c-1.681,2.547-2.954,4.559-3.82,6.034
			c-0.408,0.756-0.611,1.214-0.611,1.375h28.34v14.132h-45.908V84.049c0-0.305,1.05-2.066,3.151-5.281
			c0.972-1.473,2.071-3.1,3.299-4.88l3.759-5.412c2.191-3.003,5.633-7.814,10.324-14.434c4.435-6.21,7.749-11.834,9.942-16.875
			c1.785-4.122,2.677-7.966,2.677-11.53c0-2.901-0.816-5.372-2.444-7.407c-1.784-2.138-4.075-3.207-6.875-3.207
			c-4.024,0-6.875,2.317-8.555,6.951c-0.561,1.527-0.84,3.361-0.84,5.499v3.667h-14.208v-2.521H1200.527z"/>
		<path fill="#325D87" d="M1296.741,75.522c0,6.366-2.241,11.763-6.721,16.194c-4.481,4.43-9.854,6.645-16.118,6.645
			c-6.367,0-11.777-2.227-16.232-6.683c-4.457-4.457-6.684-9.841-6.684-16.156V23.273c0-6.364,2.24-11.775,6.721-16.232
			c4.481-4.455,9.879-6.683,16.194-6.683c6.364,0,11.763,2.241,16.194,6.721c4.431,4.481,6.645,9.881,6.645,16.194v52.249H1296.741z
			 M1281.77,22.968c0-2.292-0.816-4.252-2.445-5.882c-1.63-1.629-3.589-2.444-5.881-2.444c-2.291,0-4.24,0.815-5.844,2.444
			c-1.604,1.63-2.406,3.591-2.406,5.882v52.325c0,2.29,0.802,4.252,2.406,5.881c1.605,1.63,3.553,2.445,5.844,2.445
			s4.251-0.815,5.881-2.445c1.629-1.629,2.445-3.591,2.445-5.881V22.968z"/>
	</g>
</g>
<g>
	<rect x="1315" y="1.167" fill="none" width="166.512" height="133.209"/>
	<g enable-background="new    ">
		<path fill="#325D87" d="M1326.186,28.718c0-9.221,2.487-16.268,7.461-21.138c4.299-4.299,9.948-6.45,16.942-6.45
			c6.423,0,11.902,2.408,16.436,7.228c4.532,4.818,6.8,10.44,6.8,16.864c0,6.632-1.477,13.031-4.43,19.195
			c-1.606,3.419-5.362,9.3-11.268,17.641c-1.606,2.28-3.99,5.829-7.15,10.646l-2.643,3.964c-1.709,2.591-3.005,4.638-3.886,6.139
			c-0.415,0.769-0.622,1.236-0.622,1.4h28.833v14.377h-46.706V85.111c0-0.31,1.069-2.102,3.205-5.373
			c0.989-1.499,2.107-3.155,3.356-4.965l3.823-5.506c2.229-3.056,5.731-7.951,10.504-14.684c4.512-6.317,7.884-12.041,10.115-17.169
			c1.815-4.195,2.724-8.106,2.724-11.732c0-2.952-0.829-5.464-2.486-7.535c-1.814-2.176-4.146-3.264-6.994-3.264
			c-4.094,0-6.994,2.358-8.704,7.072c-0.571,1.555-0.855,3.42-0.855,5.595v3.731h-14.455v-2.563H1326.186z"/>
		<path fill="#325D87" d="M1391.38,98.662V23.667h-12.512V13.408c3.523-0.414,6.878-1.749,10.065-4.001
			c3.186-2.254,5.479-4.986,6.877-8.2h10.259v97.454h-14.689V98.662z"/>
	</g>
</g>
<g>
	<rect x="1437.033" y="1.024" fill="none" width="166.69" height="133.352"/>
	<g enable-background="new    ">
		<path fill="#325D87" d="M1440.632,28.606c0-9.231,2.488-16.285,7.469-21.16c4.303-4.304,9.958-6.458,16.96-6.458
			c6.432,0,11.915,2.412,16.453,7.236c4.538,4.822,6.808,10.452,6.808,16.881c0,6.64-1.479,13.046-4.436,19.216
			c-1.608,3.423-5.367,9.309-11.281,17.66c-1.608,2.282-3.993,5.835-7.156,10.658l-2.646,3.968c-1.71,2.594-3.008,4.642-3.889,6.146
			c-0.415,0.77-0.622,1.236-0.622,1.4h28.862v14.392h-46.756V85.059c0-0.312,1.07-2.105,3.208-5.379c0.99-1.5,2.11-3.156,3.361-4.97
			l3.829-5.512c2.232-3.058,5.737-7.958,10.514-14.699c4.516-6.325,7.893-12.055,10.125-17.187
			c1.818-4.198,2.728-8.113,2.728-11.744c0-2.954-0.831-5.469-2.49-7.543c-1.816-2.177-4.149-3.266-7.002-3.266
			c-4.097,0-7.002,2.361-8.713,7.078c-0.572,1.557-0.856,3.423-0.856,5.602v3.734h-14.469L1440.632,28.606L1440.632,28.606z"/>
		<path fill="#325D87" d="M1491.179,28.606c0-9.231,2.489-16.285,7.469-21.16c4.303-4.304,9.959-6.458,16.961-6.458
			c6.43,0,11.913,2.412,16.453,7.236c4.537,4.822,6.807,10.452,6.807,16.881c0,6.64-1.479,13.046-4.434,19.216
			c-1.608,3.423-5.368,9.309-11.281,17.66c-1.608,2.282-3.994,5.835-7.157,10.658l-2.645,3.968
			c-1.712,2.594-3.008,4.642-3.889,6.146c-0.415,0.77-0.623,1.236-0.623,1.4h28.863v14.392h-46.756V85.059
			c0-0.312,1.069-2.105,3.208-5.379c0.99-1.5,2.11-3.156,3.361-4.97l3.829-5.512c2.231-3.058,5.737-7.958,10.513-14.699
			c4.517-6.325,7.894-12.055,10.126-17.187c1.817-4.198,2.726-8.113,2.726-11.744c0-2.954-0.829-5.469-2.489-7.543
			c-1.816-2.177-4.149-3.266-7.002-3.266c-4.097,0-7.002,2.361-8.714,7.078c-0.571,1.557-0.856,3.423-0.856,5.602v3.734h-14.47
			L1491.179,28.606L1491.179,28.606z"/>
	</g>
</g>
<g>
	<rect x="1556" y="1.332" fill="none" width="164" height="132.376"/>
	<g enable-background="new    ">
		<path fill="#325D87" d="M1562.877,28.711c0-9.165,2.45-16.167,7.349-21.007c4.234-4.272,9.797-6.409,16.685-6.409
			c6.327,0,11.723,2.395,16.19,7.182c4.464,4.788,6.698,10.376,6.698,16.759c0,6.59-1.454,12.948-4.364,19.076
			c-1.582,3.397-5.282,9.242-11.098,17.531c-1.583,2.266-3.93,5.792-7.042,10.58l-2.603,3.939c-1.684,2.574-2.959,4.608-3.827,6.101
			c-0.409,0.764-0.612,1.227-0.612,1.391h28.396v14.286h-46.001V84.75c0-0.309,1.052-2.089,3.157-5.34
			c0.973-1.489,2.074-3.133,3.305-4.932l3.766-5.472c2.195-3.037,5.645-7.9,10.345-14.591c4.445-6.278,7.765-11.965,9.963-17.061
			c1.787-4.168,2.683-8.055,2.683-11.659c0-2.933-0.818-5.43-2.45-7.488c-1.787-2.162-4.083-3.242-6.888-3.242
			c-4.032,0-6.888,2.344-8.573,7.028c-0.563,1.544-0.843,3.397-0.843,5.56v3.706h-14.238v-2.548H1562.877z"/>
		<path fill="#325D87" d="M1628.276,15.968v20.775c1.434-2.059,3.453-3.654,6.063-4.788c1.382-0.565,2.995-0.849,4.837-0.849
			c6.342,0,11.027,2.24,14.045,6.718c2.609,3.862,3.914,9.321,3.914,16.374v20.851c0,7.157-2.246,13.027-6.734,17.608
			c-4.286,4.429-9.696,6.641-16.227,6.641c-6.328,0-11.584-2.317-15.769-6.95c-4.031-4.427-6.047-9.834-6.047-16.219v-2.317
			l13.853-1.081l0.307,3.322c0.355,3.861,1.913,6.435,4.669,7.722c0.816,0.413,1.683,0.617,2.602,0.617
			c5.917,0,8.879-3.115,8.879-9.344V51.339c0-2.831-1.027-5.175-3.078-7.028c-0.974-0.875-2.334-1.314-4.078-1.314
			c-2.565,0-4.463,1.005-5.694,3.012c-1.026,1.751-1.539,3.604-1.539,5.56v2.626h-14.466V1.295h42.328v14.673H1628.276z"/>
	</g>
</g>
<g>
	<rect x="1675.333" y="1.562" fill="none" width="164.667" height="131.734"/>
	<g enable-background="new    ">
		<path fill="#325D87" d="M1682.238,28.807c0-9.119,2.459-16.087,7.379-20.904c4.251-4.252,9.837-6.379,16.754-6.379
			c6.352,0,11.77,2.383,16.254,7.148c4.483,4.765,6.725,10.324,6.725,16.677c0,6.559-1.461,12.886-4.381,18.983
			c-1.589,3.381-5.303,9.196-11.144,17.446c-1.589,2.255-3.946,5.764-7.07,10.529l-2.613,3.92c-1.691,2.564-2.973,4.586-3.843,6.072
			c-0.411,0.76-0.615,1.221-0.615,1.383h28.512V97.9h-46.188V84.576c0-0.307,1.056-2.078,3.17-5.313
			c0.978-1.482,2.083-3.12,3.32-4.91l3.78-5.446c2.205-3.021,5.667-7.862,10.387-14.521c4.462-6.248,7.798-11.908,10.004-16.979
			c1.795-4.149,2.693-8.017,2.693-11.603c0-2.919-0.82-5.404-2.459-7.453c-1.794-2.151-4.099-3.227-6.917-3.227
			c-4.049,0-6.917,2.331-8.607,6.994c-0.564,1.537-0.846,3.381-0.846,5.533v3.689h-14.296v-2.535H1682.238z"/>
		<path fill="#325D87" d="M1761.746,25.503V23.12c0-2.356-0.63-4.342-1.883-5.956c-1.257-1.614-3.037-2.421-5.343-2.421
			s-4.086,0.807-5.341,2.421c-1.255,1.614-1.883,3.6-1.883,5.956v19.214c3.33-2.971,6.994-4.457,10.99-4.457
			c6.404,0,11.194,2.229,14.372,6.687c2.817,3.894,4.227,9.3,4.227,16.216v16.524h-0.078c-0.307,6.148-2.524,11.298-6.647,15.448
			c-4.125,4.15-9.184,6.226-15.18,6.226c-6.405,0-11.681-2.28-15.831-6.84c-4.048-4.406-6.072-9.785-6.072-16.14V23.427
			c0-4.713,1.141-8.965,3.42-12.757c2.28-3.791,5.521-6.609,9.723-8.454c2.663-1.23,5.584-1.844,8.761-1.844
			c6.354,0,11.63,2.306,15.833,6.917c4.047,4.407,6.072,9.787,6.072,16.139v2.076H1761.746z M1747.297,75.765
			c0,2.358,0.591,4.305,1.777,5.842c1.287,1.691,3.09,2.537,5.408,2.537c2.318,0,4.12-0.846,5.409-2.537
			c1.235-1.537,1.854-3.484,1.854-5.842V57.935c0-2.767-1.03-5.072-3.093-6.917c-0.979-0.871-2.344-1.307-4.095-1.307
			c-2.524,0-4.43,1-5.717,2.998c-1.03,1.64-1.546,3.459-1.546,5.457v17.598H1747.297z"/>
	</g>
</g>
<g>
	<rect x="1795.667" y="1.078" fill="none" width="166.833" height="133.466"/>
	<g enable-background="new    ">
		<path fill="#325D87" d="M1803.491,28.68c0-9.239,2.492-16.298,7.475-21.18c4.309-4.308,9.968-6.462,16.973-6.462
			c6.437,0,11.927,2.413,16.469,7.241s6.814,10.46,6.814,16.896c0,6.645-1.48,13.057-4.439,19.233
			c-1.609,3.426-5.372,9.317-11.29,17.676c-1.609,2.285-3.997,5.84-7.163,10.667l-2.647,3.971c-1.713,2.596-3.012,4.646-3.893,6.151
			c-0.416,0.77-0.624,1.237-0.624,1.402h28.888v14.406h-46.796V85.182c0-0.311,1.07-2.106,3.212-5.383
			c0.991-1.501,2.112-3.16,3.363-4.974l3.832-5.517c2.233-3.062,5.742-7.966,10.524-14.711c4.521-6.331,7.899-12.064,10.135-17.202
			c1.82-4.203,2.729-8.122,2.729-11.754c0-2.958-0.831-5.475-2.492-7.551c-1.817-2.18-4.154-3.27-7.007-3.27
			c-4.102,0-7.007,2.362-8.72,7.086c-0.573,1.557-0.857,3.426-0.857,5.606v3.737h-14.482V28.68H1803.491z"/>
		<path fill="#325D87" d="M1897.736,1.039v14.793L1877.1,98.681h-14.444l20.637-82.849h-29.783V1.039H1897.736z"/>
	</g>
</g>
<g>
	<rect x="1914.667" y="0.5" fill="none" width="175" height="140"/>
</g>
<g>
	<rect x="1916.667" y="1.962" fill="none" width="111.583" height="89.266"/>
	<g enable-background="new    ">
		<path fill="#325D87" d="M1944.368,85.049c6.67,0,10.007-3.099,10.007-9.303v-5.688c0-9.893-5.184-14.84-15.548-14.84V42.763
			c5.592,0,9.722-1.562,12.392-4.689c2.463-2.819,3.694-6.766,3.694-11.84v-2.23c0-6.304-2.772-9.455-8.311-9.455
			c-3.08,0-5.338,1.172-6.775,3.52c-1.076,1.785-1.615,4.106-1.615,6.961v2.527h-14.238v-2.232c0-6.876,1.743-12.468,5.234-16.778
			c3.95-4.925,9.516-7.389,16.702-7.389c6.823,0,12.288,2.31,16.393,6.927c3.694,4.156,5.541,9.339,5.541,15.547v4.08
			c0,6.004-1.797,11.187-5.386,15.547c-1.54,1.847-3.336,3.413-5.389,4.696c4.311,2.413,7.646,6.08,10.007,11.006
			c1.231,2.515,1.847,5.568,1.847,9.159v7.62c0,7.133-2.438,12.982-7.311,17.549c-4.669,4.414-10.288,6.62-16.856,6.62
			c-6.414,0-11.851-2.259-16.316-6.773c-4.463-4.515-6.696-9.93-6.696-16.241v-2.386l13.854-1.077l0.308,3.387
			c0.205,2.413,1.065,4.387,2.578,5.927C1939.991,84.279,1941.954,85.049,1944.368,85.049z"/>
		<path fill="#325D87" d="M2019.926,76.89c0,6.415-2.26,11.852-6.775,16.317c-4.516,4.464-9.928,6.696-16.24,6.696
			c-6.415,0-11.867-2.245-16.357-6.736c-4.49-4.49-6.735-9.915-6.735-16.278V24.244c0-6.414,2.257-11.865,6.773-16.356
			c4.515-4.49,9.955-6.735,16.317-6.735c6.414,0,11.852,2.259,16.317,6.773c4.462,4.515,6.696,9.956,6.696,16.316V76.89H2019.926z
			 M2004.839,23.937c0-2.31-0.82-4.284-2.463-5.927c-1.641-1.641-3.616-2.463-5.926-2.463c-2.31,0-4.272,0.822-5.888,2.463
			c-1.616,1.643-2.425,3.617-2.425,5.927V76.66c0,2.31,0.809,4.285,2.425,5.926c1.615,1.643,3.578,2.463,5.888,2.463
			c2.31,0,4.285-0.819,5.926-2.463c1.642-1.641,2.463-3.616,2.463-5.926V23.937z"/>
	</g>
</g>
<g>
	<rect x="2044.083" y="1.113" fill="none" width="166.788" height="133.431"/>
	<g enable-background="new    ">
		<path fill="#325D87" d="M2087.021,98.768V23.65h-12.534V13.374c3.529-0.415,6.891-1.751,10.082-4.009s5.488-4.993,6.889-8.212
			h10.276v97.616h-14.714V98.768z"/>
	</g>
</g>
<g>
	<rect x="2179.524" y="1.998" fill="none" width="163.976" height="131.18"/>
	<text transform="matrix(1 0 0 1 2179.5234 98.0078)" fill="#A2B3D7" font-family="'Bebas'" font-size="107.7557"> </text>
	<g enable-background="new    ">
		<path fill="#325D87" d="M2194.676,28.505c0-9.164,2.473-16.167,7.414-21.005c4.274-4.273,9.884-6.41,16.836-6.41
			c6.383,0,11.827,2.394,16.333,7.183c4.504,4.788,6.757,10.375,6.757,16.757c0,6.591-1.466,12.948-4.401,19.075
			c-1.597,3.398-5.33,9.242-11.199,17.531c-1.597,2.266-3.965,5.791-7.105,10.58l-2.625,3.938c-1.699,2.575-2.986,4.609-3.861,6.101
			c-0.413,0.764-0.619,1.227-0.619,1.39h28.651v14.287h-46.413V84.543c0-0.309,1.062-2.088,3.186-5.34
			c0.982-1.489,2.094-3.134,3.335-4.932l3.801-5.473c2.216-3.036,5.695-7.9,10.436-14.591c4.485-6.278,7.836-11.965,10.052-17.061
			c1.805-4.167,2.707-8.054,2.707-11.657c0-2.933-0.824-5.429-2.472-7.489c-1.802-2.16-4.119-3.242-6.949-3.242
			c-4.069,0-6.95,2.343-8.649,7.028c-0.567,1.544-0.849,3.398-0.849,5.561v3.707h-14.365L2194.676,28.505L2194.676,28.505z"/>
	</g>
</g>
<g>
	<rect x="2311.846" y="1.926" fill="none" width="164.067" height="131.253"/>
	<g enable-background="new    ">
		<path fill="#325D87" d="M2339.335,84.205c6.637,0,9.955-3.084,9.955-9.255v-5.66c0-9.842-5.156-14.764-15.469-14.764V42.135
			c5.564,0,9.675-1.554,12.33-4.665c2.449-2.805,3.675-6.731,3.675-11.779v-2.219c0-6.272-2.756-9.408-8.27-9.408
			c-3.063,0-5.31,1.168-6.739,3.502c-1.071,1.777-1.607,4.086-1.607,6.926v2.512h-14.167v-2.22c0-6.841,1.734-12.405,5.207-16.693
			c3.931-4.9,9.469-7.351,16.617-7.351c6.788,0,12.225,2.297,16.309,6.891c3.676,4.135,5.513,9.291,5.513,15.468v4.06
			c0,5.973-1.786,11.129-5.361,15.468c-1.53,1.837-3.319,3.395-5.358,4.672c4.287,2.4,7.605,6.048,9.954,10.949
			c1.225,2.503,1.837,5.539,1.837,9.112v7.58c0,7.096-2.425,12.915-7.274,17.459c-4.646,4.391-10.235,6.586-16.77,6.586
			c-6.383,0-11.792-2.246-16.234-6.739c-4.441-4.492-6.66-9.878-6.66-16.158v-2.374l13.783-1.071l0.305,3.369
			c0.204,2.401,1.06,4.365,2.565,5.897C2334.982,83.44,2336.935,84.205,2339.335,84.205z"/>
	</g>
</g>
<g>
	<rect x="2436" y="1.524" fill="none" width="164" height="131.2"/>
	<g enable-background="new    ">
		<path fill="#325D87" d="M2469.525,25.368v-2.373c0-2.346-0.625-4.324-1.875-5.932c-1.251-1.607-3.023-2.41-5.32-2.41
			c-2.296,0-4.069,0.803-5.32,2.41c-1.252,1.608-1.876,3.585-1.876,5.932V42.13c3.317-2.959,6.965-4.439,10.946-4.439
			c6.377,0,11.147,2.22,14.313,6.659c2.806,3.879,4.209,9.262,4.209,16.15v16.457h-0.077c-0.306,6.123-2.514,11.251-6.62,15.384
			c-4.109,4.134-9.147,6.2-15.116,6.2c-6.38,0-11.635-2.271-15.769-6.813c-4.032-4.388-6.047-9.746-6.047-16.074V23.301
			c0-4.695,1.134-8.93,3.406-12.706c2.27-3.775,5.498-6.582,9.683-8.418c2.652-1.226,5.561-1.837,8.726-1.837
			c6.327,0,11.582,2.295,15.767,6.889c4.031,4.389,6.047,9.747,6.047,16.074v2.067h-15.077V25.368z M2455.135,75.427
			c0,2.347,0.591,4.287,1.77,5.816c1.282,1.684,3.077,2.526,5.387,2.526c2.308,0,4.103-0.843,5.386-2.526
			c1.23-1.529,1.845-3.469,1.845-5.816V57.669c0-2.755-1.025-5.053-3.077-6.889c-0.975-0.867-2.335-1.302-4.079-1.302
			c-2.513,0-4.41,0.996-5.693,2.985c-1.027,1.634-1.539,3.444-1.539,5.435L2455.135,75.427L2455.135,75.427z"/>
	</g>
</g>
<g>
	<rect x="2552.667" y="1.145" fill="none" width="166.75" height="133.399"/>
	<g enable-background="new    ">
		<path fill="#325D87" d="M2601.93,1.106v14.788L2581.304,98.7h-14.436l20.627-82.806h-29.77V1.106H2601.93z"/>
	</g>
</g>
<g>
	<rect x="2646" y="1.562" fill="none" width="165" height="131.999"/>
	<g enable-background="new    ">
		<path fill="#325D87" d="M2663.403,98.171V23.858h-12.399V13.692c3.491-0.411,6.815-1.732,9.973-3.966
			c3.159-2.234,5.43-4.941,6.815-8.125h10.165v96.569C2677.958,98.171,2663.403,98.171,2663.403,98.171z"/>
		<path fill="#325D87" d="M2736.867,76.146c0,6.418-2.26,11.859-6.776,16.326c-4.519,4.467-9.935,6.701-16.249,6.701
			c-6.418,0-11.872-2.245-16.364-6.739c-4.494-4.493-6.739-9.921-6.739-16.288V23.472c0-6.417,2.259-11.871,6.777-16.364
			c4.517-4.493,9.959-6.738,16.326-6.738c6.417,0,11.859,2.259,16.326,6.776c4.466,4.519,6.699,9.96,6.699,16.326V76.146z
			 M2721.774,23.163c0-2.31-0.822-4.287-2.465-5.93c-1.644-1.642-3.62-2.465-5.93-2.465c-2.311,0-4.274,0.822-5.891,2.465
			c-1.617,1.643-2.426,3.62-2.426,5.93v52.751c0,2.31,0.809,4.288,2.426,5.93c1.618,1.643,3.58,2.465,5.891,2.465
			c2.31,0,4.287-0.821,5.93-2.465c1.642-1.642,2.465-3.62,2.465-5.93V23.163z"/>
	</g>
</g>
<g>
	<rect x="236" y="0.856" fill="none" width="166.19" height="132.952"/>
	<g enable-background="new    ">
		<path fill="#325D87" d="M253.53,98.162v-74.85h-12.487V13.074c3.516-0.413,6.865-1.745,10.045-3.995s5.468-4.976,6.864-8.183
			h10.239v97.266H253.53z"/>
		<path fill="#325D87" d="M280.443,28.354c0-9.203,2.482-16.236,7.446-21.098c4.291-4.291,9.928-6.437,16.909-6.437
			c6.41,0,11.88,2.404,16.405,7.213c4.525,4.809,6.788,10.421,6.788,16.833c0,6.619-1.473,13.005-4.422,19.157
			c-1.604,3.413-5.353,9.283-11.248,17.607c-1.604,2.277-3.982,5.816-7.136,10.626l-2.638,3.955
			c-1.706,2.588-2.999,4.629-3.878,6.127c-0.414,0.767-0.62,1.232-0.62,1.396h28.776v14.349h-46.616V84.638
			c0-0.31,1.066-2.097,3.2-5.362c0.986-1.496,2.102-3.147,3.35-4.954l3.816-5.497c2.225-3.049,5.72-7.934,10.483-14.654
			c4.504-6.306,7.869-12.018,10.095-17.136c1.812-4.185,2.718-8.089,2.718-11.709c0-2.947-0.828-5.455-2.482-7.521
			c-1.81-2.171-4.137-3.256-6.981-3.256c-4.086,0-6.981,2.353-8.687,7.057c-0.569,1.552-0.852,3.413-0.852,5.585v3.723h-14.427
			V28.354z"/>
	</g>
</g>
</svg>
