<?xml version="1.0" encoding="utf-8"?>
<!-- Generator: Adobe Illustrator 17.0.0, SVG Export Plug-In . SVG Version: 6.00 Build 0)  -->
<!DOCTYPE svg PUBLIC "-//W3C//DTD SVG 1.1//EN" "http://www.w3.org/Graphics/SVG/1.1/DTD/svg11.dtd">
<svg version="1.1" id="Capa_1" xmlns="http://www.w3.org/2000/svg" xmlns:xlink="http://www.w3.org/1999/xlink" x="0px" y="0px"
	 width="2760px" height="85px" viewBox="0 0 2760 85" enable-background="new 0 0 2760 85" xml:space="preserve">
<rect fill="none" width="175" height="140"/>
<g enable-background="new    ">
	<path fill="#325D87" d="M9.489,82.466V19.99H-0.934v-8.546C2,11.099,4.795,9.987,7.45,8.11c2.654-1.878,4.564-4.154,5.73-6.83
		h8.545v81.186C21.725,82.466,9.489,82.466,9.489,82.466z"/>
	<path fill="#325D87" d="M71.251,63.95c0,5.395-1.9,9.97-5.698,13.725c-3.798,3.755-8.352,5.632-13.66,5.632
		c-5.395,0-9.981-1.888-13.757-5.665c-3.777-3.776-5.664-8.341-5.664-13.693V19.667c0-5.395,1.899-9.981,5.697-13.757
		c3.797-3.776,8.372-5.666,13.725-5.666c5.394,0,9.97,1.9,13.725,5.698c3.756,3.798,5.632,8.374,5.632,13.725
		C71.251,19.667,71.251,63.95,71.251,63.95z M58.56,19.407c0-1.942-0.69-3.602-2.071-4.984c-1.382-1.381-3.042-2.071-4.984-2.071
		c-1.942,0-3.593,0.69-4.953,2.071c-1.359,1.382-2.039,3.042-2.039,4.984v44.349c0,1.942,0.68,3.603,2.039,4.984
		c1.359,1.382,3.01,2.071,4.953,2.071c1.942,0,3.602-0.689,4.984-2.071c1.381-1.381,2.071-3.042,2.071-4.984V19.407z"/>
</g>
<g>
	<rect x="116" y="0.608" fill="none" width="140.25" height="112.2"/>
	<g enable-background="new    ">
		<path fill="#325D87" d="M130.794,82.725V19.559h-10.538v-8.64c2.967-0.349,5.793-1.473,8.477-3.372
			c2.684-1.899,4.614-4.199,5.793-6.906h8.641v82.084H130.794z"/>
		<path fill="#325D87" d="M163.848,82.725V19.559H153.31v-8.64c2.967-0.349,5.793-1.473,8.477-3.372s4.614-4.199,5.793-6.906h8.641
			v82.084H163.848z"/>
	</g>
</g>
<g>
	<rect x="355.667" y="1.576" fill="none" width="140.083" height="112.067"/>
	<g enable-background="new    ">
		<path fill="#325D87" d="M370.442,83.595V20.503h-10.526v-8.63c2.963-0.348,5.786-1.471,8.466-3.367
			c2.681-1.897,4.609-4.195,5.786-6.898h8.63v81.987H370.442z"/>
		<path fill="#325D87" d="M411.825,71.826c5.665,0,8.499-2.634,8.499-7.903v-4.831c0-8.403-4.403-12.606-13.206-12.606V35.906
			c4.75,0,8.26-1.327,10.526-3.983c2.092-2.394,3.138-5.748,3.138-10.058v-1.894c0-5.355-2.354-8.033-7.06-8.033
			c-2.616,0-4.534,0.997-5.753,2.991c-0.916,1.516-1.373,3.488-1.373,5.914v2.146h-12.095v-1.897c0-5.839,1.482-10.591,4.446-14.252
			c3.355-4.184,8.085-6.277,14.187-6.277c5.796,0,10.438,1.961,13.926,5.884c3.138,3.53,4.707,7.933,4.707,13.207v3.465
			c0,5.099-1.527,9.503-4.577,13.207c-1.308,1.569-2.834,2.9-4.577,3.988c3.661,2.049,6.494,5.165,8.499,9.35
			c1.046,2.135,1.57,4.73,1.57,7.78v6.472c0,6.058-2.071,11.029-6.211,14.907c-3.966,3.749-8.739,5.622-14.318,5.622
			c-5.449,0-10.069-1.917-13.861-5.752c-3.792-3.835-5.688-8.434-5.688-13.796V62.87l11.768-0.915l0.261,2.877
			c0.174,2.049,0.904,3.727,2.19,5.034C408.109,71.173,409.776,71.826,411.825,71.826z"/>
	</g>
</g>
<g>
	<rect x="476" y="0.81" fill="none" width="141.04" height="112.832"/>
	<g enable-background="new    ">
		<path fill="#325D87" d="M490.877,83.391V19.869h-10.598V11.18c2.983-0.35,5.825-1.481,8.524-3.389
			c2.699-1.909,4.641-4.223,5.826-6.945h8.689v82.546h-12.441V83.391z"/>
		<path fill="#325D87" d="M513.255,53.046l21.987-52.267h12.44v52.267h7.965v12.506h-7.965v17.774h-12.441V65.552h-21.986V53.046
			L513.255,53.046z M535.242,53.046V27.265l-10.274,25.781C524.967,53.046,535.242,53.046,535.242,53.046z"/>
	</g>
</g>
<g>
	<rect x="596.5" y="0.718" fill="none" width="141.156" height="112.925"/>
	<g enable-background="new    ">
		<path fill="#325D87" d="M611.389,83.365V19.79h-10.607v-8.697c2.986-0.351,5.831-1.481,8.531-3.393
			c2.701-1.91,4.644-4.226,5.831-6.95h8.696v82.614h-12.451V83.365z"/>
		<path fill="#325D87" d="M648.083,13.203v17.721c1.232-1.756,2.972-3.118,5.218-4.085c1.189-0.482,2.577-0.725,4.162-0.725
			c5.46,0,9.49,1.91,12.089,5.732c2.246,3.294,3.369,7.95,3.369,13.966V63.6c0,6.104-1.933,11.112-5.797,15.02
			c-3.689,3.777-8.345,5.666-13.967,5.666c-5.446,0-9.97-1.977-13.571-5.93c-3.47-3.777-5.205-8.388-5.205-13.835v-1.976
			l11.924-0.923l0.263,2.833c0.307,3.294,1.646,5.491,4.019,6.588c0.703,0.352,1.449,0.528,2.24,0.528
			c5.094,0,7.641-2.657,7.641-7.971V43.375c0-2.415-0.883-4.414-2.649-5.995c-0.839-0.746-2.01-1.12-3.51-1.12
			c-2.208,0-3.842,0.856-4.901,2.569c-0.883,1.494-1.324,3.075-1.324,4.743v2.24h-12.451V0.686h36.432v12.518h-23.981V13.203z"/>
	</g>
</g>
<g>
	<rect x="715.667" y="1.389" fill="none" width="140.083" height="112.066"/>
	<g enable-background="new    ">
		<path fill="#325D87" d="M730.443,83.408V20.317h-10.526v-8.631c2.963-0.348,5.786-1.471,8.467-3.367
			c2.68-1.896,4.609-4.195,5.786-6.898h8.63v81.987h-12.356V83.408z"/>
		<path fill="#325D87" d="M778.103,21.755v-2.026c0-2.005-0.534-3.694-1.602-5.067c-1.069-1.373-2.583-2.06-4.544-2.06
			c-1.961,0-3.477,0.686-4.544,2.06c-1.069,1.372-1.602,3.062-1.602,5.067v16.345c2.832-2.527,5.949-3.791,9.349-3.791
			c5.447,0,9.523,1.895,12.226,5.688c2.397,3.313,3.596,7.91,3.596,13.795v14.056h-0.066c-0.261,5.231-2.147,9.611-5.655,13.141
			c-3.509,3.531-7.814,5.296-12.912,5.296c-5.449,0-9.938-1.938-13.469-5.818c-3.443-3.749-5.164-8.326-5.164-13.73v-44.72
			c0-4.01,0.97-7.627,2.91-10.853c1.939-3.225,4.696-5.623,8.27-7.192c2.266-1.046,4.75-1.569,7.453-1.569
			c5.403,0,9.894,1.961,13.468,5.884c3.442,3.75,5.165,8.327,5.165,13.73v1.765h-12.881V21.755z M765.812,64.514
			c0,2.005,0.504,3.661,1.512,4.969c1.095,1.438,2.629,2.156,4.601,2.156c1.971,0,3.504-0.719,4.601-2.156
			c1.051-1.308,1.578-2.964,1.578-4.969V49.345c0-2.354-0.877-4.316-2.63-5.885c-0.833-0.741-1.994-1.111-3.483-1.111
			c-2.147,0-3.768,0.849-4.863,2.549c-0.877,1.396-1.314,2.942-1.314,4.642v14.973H765.812z"/>
	</g>
</g>
<g>
	<rect x="836" y="1.153" fill="none" width="140.378" height="112.302"/>
	<g enable-background="new    ">
		<path fill="#325D87" d="M850.807,83.345V20.12h-10.549v-8.648c2.97-0.349,5.799-1.474,8.484-3.373s4.619-4.203,5.799-6.912h8.648
			v82.159h-12.383V83.345z"/>
		<path fill="#325D87" d="M908.92,1.121v12.448L891.555,83.28h-12.154l17.364-69.711h-25.06V1.121H908.92z"/>
	</g>
</g>
<g>
	<rect x="956" y="1.403" fill="none" width="140.5" height="112.4"/>
	<g enable-background="new    ">
		<path fill="#325D87" d="M970.819,83.667V20.388h-10.558v-8.656c2.973-0.349,5.804-1.475,8.492-3.376s4.623-4.207,5.804-6.918
			h8.656v82.231h-12.393V83.667z"/>
		<path fill="#325D87" d="M1034.293,64.913c0,5.464-1.924,10.098-5.77,13.902c-3.847,3.804-8.482,5.706-13.902,5.706h-0.984
			c-5.465,0-10.098-1.924-13.902-5.77s-5.705-8.459-5.705-13.836v-7.475c0-5.028,1.683-9.42,5.05-13.181
			c1.443-1.617,3.124-2.95,5.049-4c-3.323-1.705-5.902-4.546-7.737-8.524c-0.918-2.055-1.377-4.634-1.377-7.737v-4.459
			c0-5.333,1.573-9.748,4.722-13.247c3.497-3.935,8.131-5.901,13.902-5.901h0.984c5.813,0,10.469,1.967,13.968,5.901
			c3.147,3.541,4.722,7.957,4.722,13.247v4.459c0,5.114-1.531,9.356-4.591,12.721c-1.355,1.488-2.863,2.668-4.524,3.541
			c3.672,2.056,6.513,5.18,8.524,9.377c1.049,2.144,1.574,4.745,1.574,7.804v7.472H1034.293z M1022.293,22.913
			c-0.088-5.623-1.858-9.154-5.311-10.592c-0.787-0.349-1.728-0.522-2.819-0.522c-2.143,0-3.892,0.588-5.246,1.764
			c-1.094,0.959-1.869,2.191-2.328,3.695c-0.459,1.503-0.646,3.388-0.558,5.654c0.131,3.574,0.699,6.145,1.705,7.714
			c1.311,2.092,3.452,3.139,6.426,3.139c2.972,0,5.136-1.11,6.491-3.334C1021.791,28.557,1022.337,26.052,1022.293,22.913z
			 M1021.9,59.077c0-4.896-1.115-8.174-3.345-9.836c-1.049-0.788-2.514-1.18-4.394-1.18c-3.279,0-5.508,1.4-6.689,4.197
			c-0.7,1.705-1.049,3.979-1.049,6.819v3.935c0,2.711,0.83,4.897,2.492,6.557c1.399,1.4,3.147,2.142,5.246,2.229
			c3.366-0.174,5.705-1.836,7.017-4.984c0.481-1.05,0.721-2.317,0.721-3.803L1021.9,59.077L1021.9,59.077z"/>
	</g>
</g>
<g>
	<rect x="1076" y="1.168" fill="none" width="140.75" height="112.6"/>
	<g enable-background="new    ">
		<path fill="#325D87" d="M1090.846,83.578V20.187h-10.577v-8.672c2.977-0.35,5.813-1.478,8.507-3.383
			c2.694-1.906,4.631-4.215,5.813-6.93h8.672v82.376C1103.261,83.578,1090.846,83.578,1090.846,83.578z"/>
		<path fill="#325D87" d="M1132.624,0.151c5.43,0,9.941,1.97,13.532,5.911c3.459,3.767,5.189,8.366,5.189,13.796v44.931
			c0,5.475-1.785,10.117-5.354,13.927c-3.57,3.809-8.025,5.714-13.367,5.714c-5.475,0-9.985-1.948-13.532-5.846
			c-3.46-3.766-5.189-8.365-5.189-13.796v-1.773h12.875v2.037c0,2.015,0.536,3.702,1.609,5.058c1.073,1.358,2.595,2.037,4.566,2.037
			s3.492-0.679,4.565-2.037c1.073-1.356,1.61-3.043,1.61-5.058V48.564c-2.891,2.584-6.022,3.877-9.394,3.877
			c-5.431,0-9.504-1.906-12.218-5.715c-2.409-3.327-3.613-7.971-3.613-13.926V18.676h0.066c0.175-3.809,1.258-7.236,3.251-10.281
			c1.993-3.044,4.697-5.309,8.113-6.799C1127.565,0.633,1129.996,0.151,1132.624,0.151z M1139.127,19.99
			c0-2.014-0.537-3.712-1.61-5.091c-1.073-1.379-2.595-2.069-4.565-2.069c-1.97,0-3.493,0.69-4.566,2.069
			c-1.073,1.38-1.609,3.078-1.609,5.091v15.24c0,2.409,0.876,4.402,2.627,5.978c0.789,0.745,1.948,1.118,3.481,1.118
			c3.153,0,5.124-1.664,5.913-4.992c0.218-1.007,0.329-1.774,0.329-2.299V19.99z"/>
	</g>
</g>
<g>
	<rect x="1195.333" y="1.364" fill="none" width="139.167" height="111.334"/>
	<g enable-background="new    ">
		<path fill="#325D87" d="M1199.75,24.389c0-7.706,2.079-13.596,6.236-17.667c3.593-3.593,8.314-5.391,14.16-5.391
			c5.369,0,9.948,2.013,13.738,6.04c3.788,4.027,5.683,8.727,5.683,14.095c0,5.543-1.234,10.89-3.702,16.043
			c-1.342,2.858-4.481,7.773-9.418,14.745c-1.342,1.906-3.335,4.871-5.976,8.898l-2.208,3.313c-1.429,2.165-2.512,3.876-3.248,5.131
			c-0.347,0.643-0.52,1.033-0.52,1.169h24.098v12.016h-39.036v-11.26c0-0.26,0.893-1.757,2.68-4.491
			c0.826-1.253,1.761-2.636,2.805-4.149l3.196-4.602c1.863-2.554,4.79-6.645,8.779-12.273c3.771-5.28,6.589-10.063,8.453-14.349
			c1.518-3.505,2.276-6.774,2.276-9.804c0-2.467-0.694-4.568-2.078-6.298c-1.517-1.818-3.465-2.727-5.846-2.727
			c-3.421,0-5.845,1.97-7.275,5.91c-0.477,1.299-0.715,2.858-0.715,4.676v3.118h-12.081L1199.75,24.389L1199.75,24.389z"/>
		<path fill="#325D87" d="M1281.561,64.271c0,5.413-1.906,10.002-5.715,13.77c-3.81,3.767-8.379,5.65-13.705,5.65
			c-5.414,0-10.014-1.893-13.802-5.683c-3.79-3.79-5.684-8.368-5.684-13.738V19.843c0-5.412,1.905-10.013,5.715-13.802
			c3.81-3.789,8.4-5.683,13.77-5.683c5.412,0,10.002,1.906,13.77,5.715c3.768,3.81,5.65,8.402,5.65,13.77v44.428H1281.561z
			 M1268.831,19.583c0-1.949-0.694-3.615-2.079-5.002c-1.386-1.385-3.052-2.078-5-2.078c-1.948,0-3.605,0.693-4.969,2.078
			c-1.364,1.386-2.046,3.053-2.046,5.002v44.492c0,1.947,0.682,3.615,2.046,5.001c1.364,1.386,3.021,2.079,4.969,2.079
			c1.948,0,3.614-0.693,5-2.079c1.385-1.385,2.079-3.053,2.079-5.001V19.583z"/>
	</g>
</g>
<g>
	<rect x="1315" y="1.161" fill="none" width="140.759" height="112.607"/>
	<g enable-background="new    ">
		<path fill="#325D87" d="M1324.456,24.452c0-7.795,2.103-13.752,6.307-17.869c3.634-3.634,8.409-5.453,14.321-5.453
			c5.43,0,10.061,2.036,13.894,6.11c3.832,4.073,5.748,8.826,5.748,14.256c0,5.606-1.248,11.015-3.745,16.227
			c-1.358,2.89-4.532,7.862-9.526,14.913c-1.358,1.927-3.373,4.927-6.044,8.999l-2.234,3.351c-1.445,2.191-2.54,3.92-3.285,5.19
			c-0.351,0.65-0.525,1.045-0.525,1.184h24.373v12.154h-39.482V72.123c0-0.262,0.904-1.777,2.71-4.542
			c0.836-1.267,1.781-2.667,2.837-4.197l3.232-4.655c1.884-2.583,4.845-6.721,8.879-12.413c3.814-5.34,6.664-10.179,8.551-14.514
			c1.535-3.546,2.302-6.853,2.302-9.917c0-2.496-0.701-4.619-2.102-6.37c-1.533-1.84-3.505-2.759-5.912-2.759
			c-3.461,0-5.912,1.993-7.358,5.978c-0.483,1.314-0.723,2.891-0.723,4.73v3.154h-12.22v-2.166H1324.456z"/>
		<path fill="#325D87" d="M1379.567,83.578V20.181h-10.577v-8.672c2.978-0.35,5.814-1.478,8.508-3.382
			c2.693-1.905,4.632-4.215,5.813-6.932h8.672v82.382h-12.417V83.578z"/>
	</g>
</g>
<g>
	<rect x="1437.033" y="1.019" fill="none" width="140.937" height="112.75"/>
	<g enable-background="new    ">
		<path fill="#325D87" d="M1440.076,24.339c0-7.804,2.103-13.769,6.315-17.891c3.638-3.639,8.419-5.46,14.339-5.46
			c5.438,0,10.074,2.04,13.911,6.118c3.837,4.077,5.756,8.837,5.756,14.273c0,5.615-1.25,11.03-3.75,16.247
			c-1.359,2.895-4.537,7.871-9.538,14.932c-1.359,1.93-3.376,4.933-6.05,9.012l-2.238,3.355c-1.446,2.193-2.543,3.925-3.288,5.197
			c-0.351,0.651-0.526,1.045-0.526,1.184h24.403v12.169h-39.532V72.07c0-0.263,0.905-1.779,2.713-4.548
			c0.837-1.268,1.784-2.668,2.842-4.202l3.237-4.66c1.887-2.586,4.851-6.729,8.89-12.428c3.818-5.348,6.674-10.192,8.561-14.532
			c1.537-3.549,2.306-6.86,2.306-9.93c0-2.498-0.702-4.624-2.105-6.377c-1.535-1.841-3.508-2.761-5.92-2.761
			c-3.464,0-5.92,1.996-7.367,5.985c-0.484,1.316-0.724,2.895-0.724,4.736v3.157h-12.234L1440.076,24.339L1440.076,24.339z"/>
		<path fill="#325D87" d="M1482.814,24.339c0-7.804,2.104-13.769,6.315-17.891c3.638-3.639,8.42-5.46,14.341-5.46
			c5.437,0,10.073,2.04,13.911,6.118c3.836,4.077,5.755,8.837,5.755,14.273c0,5.615-1.25,11.03-3.749,16.247
			c-1.359,2.895-4.539,7.871-9.538,14.932c-1.359,1.93-3.377,4.933-6.051,9.012l-2.237,3.355c-1.447,2.193-2.543,3.925-3.288,5.197
			c-0.351,0.651-0.527,1.045-0.527,1.184h24.404v12.169h-39.532V72.07c0-0.263,0.904-1.779,2.713-4.548
			c0.837-1.268,1.784-2.668,2.842-4.202l3.237-4.66c1.886-2.586,4.851-6.729,8.889-12.428c3.819-5.348,6.674-10.192,8.562-14.532
			c1.536-3.549,2.305-6.86,2.305-9.93c0-2.498-0.701-4.624-2.104-6.377c-1.535-1.841-3.508-2.761-5.92-2.761
			c-3.464,0-5.92,1.996-7.368,5.985c-0.482,1.316-0.724,2.895-0.724,4.736v3.157h-12.234L1482.814,24.339L1482.814,24.339z"/>
	</g>
</g>
<g>
	<rect x="1556" y="1.327" fill="none" width="139.303" height="112.442"/>
	<g enable-background="new    ">
		<path fill="#325D87" d="M1561.842,24.582c0-7.785,2.081-13.732,6.242-17.843c3.597-3.629,8.322-5.444,14.172-5.444
			c5.374,0,9.958,2.034,13.752,6.1c3.792,4.067,5.689,8.813,5.689,14.235c0,5.598-1.235,10.998-3.706,16.203
			c-1.344,2.886-4.487,7.85-9.427,14.891c-1.345,1.925-3.338,4.92-5.981,8.987l-2.211,3.346c-1.431,2.187-2.514,3.914-3.25,5.182
			c-0.347,0.649-0.52,1.042-0.52,1.181h24.12v12.135h-39.074V72.183c0-0.262,0.893-1.774,2.682-4.536
			c0.826-1.264,1.761-2.662,2.807-4.189l3.199-4.648c1.865-2.579,4.795-6.711,8.787-12.394c3.775-5.333,6.596-10.163,8.463-14.492
			c1.518-3.541,2.279-6.842,2.279-9.903c0-2.491-0.695-4.612-2.081-6.36c-1.518-1.836-3.469-2.754-5.851-2.754
			c-3.425,0-5.851,1.991-7.282,5.97c-0.478,1.312-0.716,2.886-0.716,4.723v3.148h-12.094v-2.165H1561.842z"/>
		<path fill="#325D87" d="M1617.392,13.758v17.646c1.218-1.749,2.933-3.104,5.15-4.067c1.174-0.48,2.544-0.721,4.108-0.721
			c5.387,0,9.366,1.902,11.93,5.706c2.216,3.281,3.324,7.917,3.324,13.908v17.711c0,6.079-1.907,11.065-5.72,14.956
			c-3.641,3.762-8.236,5.641-13.783,5.641c-5.375,0-9.84-1.968-13.394-5.903c-3.424-3.761-5.136-8.353-5.136-13.776v-1.968
			l11.767-0.918l0.261,2.822c0.302,3.28,1.625,5.466,3.966,6.559c0.693,0.351,1.43,0.524,2.21,0.524
			c5.026,0,7.542-2.646,7.542-7.937V43.803c0-2.405-0.872-4.396-2.615-5.97c-0.828-0.743-1.983-1.116-3.464-1.116
			c-2.179,0-3.791,0.854-4.836,2.558c-0.871,1.488-1.307,3.062-1.307,4.723v2.231h-12.288V1.295h35.954v12.463H1617.392z"/>
	</g>
</g>
<g>
	<rect x="1675.333" y="1.387" fill="none" width="140.476" height="112.381"/>
	<g enable-background="new    ">
		<path fill="#325D87" d="M1681.223,24.63c0-7.779,2.098-13.724,6.295-17.833c3.626-3.627,8.392-5.442,14.292-5.442
			c5.419,0,10.041,2.033,13.866,6.098c3.825,4.065,5.737,8.807,5.737,14.227c0,5.595-1.246,10.993-3.737,16.194
			c-1.355,2.885-4.524,7.845-9.507,14.883c-1.355,1.924-3.366,4.918-6.032,8.982l-2.229,3.344c-1.442,2.187-2.536,3.913-3.278,5.18
			c-0.35,0.648-0.524,1.042-0.524,1.18h24.324v12.129h-39.403V72.206c0-0.262,0.901-1.773,2.704-4.533
			c0.834-1.264,1.777-2.661,2.832-4.189l3.224-4.646c1.881-2.577,4.835-6.707,8.861-12.387c3.807-5.33,6.653-10.158,8.535-14.484
			c1.531-3.539,2.297-6.839,2.297-9.898c0-2.49-0.7-4.61-2.098-6.358c-1.531-1.835-3.497-2.753-5.901-2.753
			c-3.454,0-5.901,1.989-7.343,5.967c-0.481,1.311-0.722,2.885-0.722,4.72v3.147h-12.195V24.63H1681.223z"/>
		<path fill="#325D87" d="M1749.051,21.811v-2.033c0-2.01-0.537-3.704-1.606-5.081c-1.072-1.377-2.591-2.065-4.558-2.065
			c-1.967,0-3.486,0.688-4.557,2.065c-1.071,1.377-1.606,3.071-1.606,5.081v16.391c2.841-2.534,5.967-3.803,9.376-3.803
			c5.463,0,9.55,1.902,12.26,5.704c2.403,3.322,3.606,7.933,3.606,13.834v14.096h-0.066c-0.262,5.245-2.154,9.638-5.671,13.178
			c-3.519,3.54-7.835,5.311-12.95,5.311c-5.464,0-9.965-1.945-13.506-5.835c-3.453-3.758-5.18-8.348-5.18-13.769V20.04
			c0-4.021,0.974-7.648,2.917-10.883c1.945-3.234,4.71-5.638,8.294-7.212c2.272-1.049,4.763-1.573,7.474-1.573
			c5.42,0,9.921,1.967,13.507,5.9c3.452,3.76,5.18,8.349,5.18,13.768v1.771H1749.051z M1736.725,64.689
			c0,2.012,0.505,3.672,1.516,4.984c1.098,1.442,2.636,2.164,4.613,2.164c1.977,0,3.515-0.722,4.615-2.164
			c1.053-1.311,1.582-2.972,1.582-4.984v-15.21c0-2.36-0.879-4.327-2.638-5.9c-0.835-0.743-1.999-1.115-3.493-1.115
			c-2.154,0-3.78,0.853-4.877,2.557c-0.879,1.399-1.318,2.951-1.318,4.655L1736.725,64.689L1736.725,64.689z"/>
	</g>
</g>
<g>
	<rect x="1795.667" y="1.071" fill="none" width="140.871" height="112.697"/>
	<g enable-background="new    ">
		<path fill="#325D87" d="M1802.273,24.378c0-7.801,2.104-13.762,6.312-17.884c3.639-3.638,8.416-5.456,14.332-5.456
			c5.436,0,10.071,2.037,13.906,6.114s5.754,8.833,5.754,14.267c0,5.611-1.25,11.025-3.749,16.24
			c-1.359,2.893-4.536,7.867-9.533,14.925c-1.359,1.93-3.375,4.931-6.048,9.007l-2.235,3.353c-1.447,2.192-2.544,3.923-3.287,5.194
			c-0.352,0.651-0.527,1.045-0.527,1.184h24.393v12.164h-39.514V72.088c0-0.263,0.904-1.778,2.712-4.545
			c0.837-1.268,1.783-2.668,2.84-4.2l3.236-4.658c1.886-2.585,4.849-6.726,8.886-12.422c3.818-5.346,6.67-10.187,8.557-14.525
			c1.536-3.549,2.304-6.858,2.304-9.925c0-2.498-0.702-4.623-2.104-6.376c-1.534-1.841-3.508-2.761-5.917-2.761
			c-3.464,0-5.917,1.995-7.363,5.984c-0.484,1.315-0.724,2.893-0.724,4.734v3.155h-12.229v-2.169H1802.273z"/>
		<path fill="#325D87" d="M1881.853,1.039V13.53l-17.425,69.956h-12.196l17.426-69.956h-25.149V1.039H1881.853z"/>
	</g>
</g>
<g>
	<rect x="1914.667" y="0.5" fill="none" width="175" height="140"/>
</g>
<g>
	<rect x="1916.667" y="1.831" fill="none" width="93.583" height="74.866"/>
	<g enable-background="new    ">
		<path fill="#325D87" d="M1939.899,71.516c5.594,0,8.393-2.599,8.393-7.802v-4.771c0-8.297-4.348-12.446-13.04-12.446V36.051
			c4.69,0,8.154-1.31,10.393-3.933c2.066-2.364,3.099-5.674,3.099-9.93v-1.87c0-5.287-2.325-7.93-6.971-7.93
			c-2.583,0-4.477,0.983-5.682,2.952c-0.903,1.497-1.355,3.444-1.355,5.838v2.119h-11.941v-1.872c0-5.767,1.462-10.457,4.39-14.071
			c3.313-4.131,7.981-6.197,14.007-6.197c5.723,0,10.306,1.937,13.749,5.809c3.099,3.486,4.647,7.833,4.647,13.039v3.422
			c0,5.036-1.507,9.382-4.517,13.039c-1.291,1.549-2.798,2.863-4.519,3.938c3.616,2.024,6.413,5.1,8.393,9.23
			c1.032,2.109,1.549,4.67,1.549,7.682v6.391c0,5.982-2.045,10.888-6.132,14.718c-3.916,3.702-8.628,5.552-14.137,5.552
			c-5.379,0-9.939-1.894-13.684-5.681c-3.743-3.786-5.616-8.328-5.616-13.621v-2.001l11.619-0.904l0.259,2.841
			c0.172,2.024,0.893,3.68,2.162,4.971C1936.229,70.87,1937.875,71.516,1939.899,71.516z"/>
		<path fill="#325D87" d="M2003.269,64.673c0,5.38-1.895,9.94-5.682,13.685c-3.787,3.743-8.327,5.616-13.62,5.616
			c-5.38,0-9.953-1.883-13.718-5.649c-3.766-3.765-5.648-8.315-5.648-13.652V20.52c0-5.379,1.893-9.951,5.681-13.717
			c3.786-3.765,8.349-5.648,13.685-5.648c5.379,0,9.94,1.894,13.685,5.681c3.742,3.786,5.616,8.35,5.616,13.684v44.154H2003.269z
			 M1990.615,20.262c0-1.937-0.688-3.593-2.066-4.971c-1.376-1.376-3.032-2.066-4.97-2.066c-1.937,0-3.583,0.689-4.938,2.066
			c-1.355,1.378-2.034,3.034-2.034,4.971V64.48c0,1.937,0.678,3.594,2.034,4.97c1.355,1.378,3.001,2.066,4.938,2.066
			c1.937,0,3.594-0.687,4.97-2.066c1.377-1.376,2.066-3.032,2.066-4.97V20.262z"/>
	</g>
</g>
<g>
	<rect x="2044.083" y="1.113" fill="none" width="140.819" height="112.655"/>
	<g enable-background="new    ">
		<path fill="#325D87" d="M2080.336,83.563V20.141h-10.582v-8.676c2.98-0.35,5.818-1.479,8.512-3.385s4.634-4.216,5.817-6.933h8.676
			v82.417h-12.423V83.563z"/>
	</g>
</g>
<g>
	<rect x="2179.524" y="1.138" fill="none" width="139.726" height="111.781"/>
	<text transform="matrix(1 0 0 1 2179.5234 82.9482)" fill="#A2B3D7" font-family="'Bebas'" font-size="91.82"> </text>
	<g enable-background="new    ">
		<path fill="#325D87" d="M2192.436,23.724c0-7.808,2.107-13.776,6.317-17.899c3.642-3.641,8.423-5.462,14.346-5.462
			c5.439,0,10.078,2.04,13.917,6.12c3.838,4.08,5.758,8.841,5.758,14.279c0,5.616-1.25,11.033-3.75,16.254
			c-1.361,2.896-4.542,7.875-9.542,14.938c-1.361,1.931-3.379,4.935-6.054,9.015l-2.237,3.356c-1.448,2.194-2.544,3.927-3.29,5.199
			c-0.352,0.651-0.527,1.045-0.527,1.185h24.414v12.174h-39.549V71.475c0-0.263,0.905-1.779,2.714-4.55
			c0.837-1.269,1.784-2.67,2.842-4.203l3.239-4.663c1.888-2.587,4.853-6.732,8.892-12.433c3.821-5.35,6.677-10.196,8.565-14.538
			c1.538-3.551,2.306-6.863,2.306-9.933c0-2.499-0.702-4.627-2.106-6.382c-1.536-1.841-3.51-2.762-5.921-2.762
			c-3.467,0-5.922,1.996-7.37,5.988c-0.483,1.316-0.723,2.896-0.723,4.739v3.159h-12.241v-2.172H2192.436z"/>
	</g>
</g>
<g>
	<rect x="2311.846" y="1.744" fill="none" width="138.904" height="111.123"/>
	<g enable-background="new    ">
		<path fill="#325D87" d="M2335.119,71.404c5.619,0,8.429-2.611,8.429-7.836v-4.792c0-8.333-4.365-12.499-13.096-12.499V35.786
			c4.711,0,8.191-1.316,10.439-3.95c2.074-2.374,3.111-5.699,3.111-9.973v-1.878c0-5.31-2.333-7.965-7.001-7.965
			c-2.593,0-4.496,0.989-5.705,2.965c-0.907,1.504-1.361,3.459-1.361,5.864v2.126h-11.994v-1.879c0-5.791,1.468-10.502,4.408-14.133
			c3.328-4.149,8.017-6.223,14.069-6.223c5.747,0,10.35,1.944,13.808,5.835c3.112,3.501,4.668,7.866,4.668,13.095v3.437
			c0,5.057-1.512,9.422-4.539,13.095c-1.295,1.556-2.81,2.875-4.536,3.955c3.629,2.032,6.439,5.121,8.427,9.269
			c1.038,2.119,1.556,4.69,1.556,7.715v6.418c0,6.008-2.053,10.934-6.158,14.781c-3.933,3.718-8.665,5.576-14.198,5.576
			c-5.404,0-9.983-1.901-13.744-5.705c-3.76-3.803-5.639-8.363-5.639-13.68v-2.01l11.669-0.907l0.259,2.853
			c0.173,2.033,0.898,3.696,2.171,4.993C2331.434,70.756,2333.087,71.404,2335.119,71.404z"/>
	</g>
</g>
<g>
	<rect x="2436" y="1.347" fill="none" width="139.5" height="111.6"/>
	<g enable-background="new    ">
		<path fill="#325D87" d="M2464.517,21.629V19.61c0-1.996-0.532-3.678-1.595-5.046c-1.064-1.367-2.571-2.05-4.525-2.05
			s-3.461,0.683-4.525,2.05c-1.065,1.368-1.596,3.05-1.596,5.046v16.277c2.822-2.517,5.925-3.776,9.311-3.776
			c5.425,0,9.482,1.888,12.175,5.664c2.386,3.3,3.58,7.878,3.58,13.738v13.998h-0.065c-0.26,5.208-2.138,9.57-5.631,13.086
			c-3.495,3.516-7.781,5.274-12.858,5.274c-5.427,0-9.897-1.931-13.413-5.795c-3.43-3.733-5.144-8.29-5.144-13.673V19.871
			c0-3.993,0.965-7.596,2.897-10.808c1.93-3.211,4.676-5.599,8.237-7.16c2.256-1.042,4.73-1.563,7.422-1.563
			c5.381,0,9.852,1.952,13.412,5.86c3.429,3.734,5.144,8.291,5.144,13.673v1.758h-12.824V21.629z M2452.277,64.209
			c0,1.997,0.502,3.646,1.506,4.947c1.091,1.432,2.618,2.149,4.582,2.149c1.963,0,3.49-0.717,4.582-2.149
			c1.047-1.301,1.57-2.951,1.57-4.947V49.105c0-2.343-0.872-4.298-2.617-5.86c-0.829-0.738-1.986-1.108-3.47-1.108
			c-2.137,0-3.752,0.847-4.842,2.539c-0.873,1.39-1.309,2.93-1.309,4.623L2452.277,64.209L2452.277,64.209z"/>
	</g>
</g>
<g>
	<rect x="2552.667" y="1.139" fill="none" width="141.583" height="113.266"/>
	<g enable-background="new    ">
		<path fill="#325D87" d="M2594.495,1.106v12.556l-17.512,70.308h-12.257l17.514-70.308h-25.277V1.106H2594.495z"/>
	</g>
</g>
<g>
	<rect x="2646" y="1.378" fill="none" width="139.462" height="111.569"/>
	<g enable-background="new    ">
		<path fill="#325D87" d="M2660.71,83.033V20.222h-10.48V11.63c2.951-0.347,5.76-1.464,8.429-3.352
			c2.67-1.888,4.589-4.177,5.76-6.867h8.592v81.622C2673.011,83.033,2660.71,83.033,2660.71,83.033z"/>
		<path fill="#325D87" d="M2722.803,64.418c0,5.425-1.91,10.024-5.727,13.799c-3.819,3.775-8.397,5.664-13.734,5.664
			c-5.425,0-10.035-1.898-13.831-5.696c-3.798-3.797-5.696-8.385-5.696-13.767V19.896c0-5.424,1.909-10.034,5.728-13.831
			c3.818-3.797,8.418-5.695,13.799-5.695c5.424,0,10.023,1.909,13.799,5.727c3.774,3.819,5.663,8.419,5.663,13.799V64.418z
			 M2710.046,19.636c0-1.953-0.695-3.623-2.083-5.012c-1.389-1.388-3.059-2.083-5.012-2.083s-3.613,0.695-4.979,2.083
			c-1.367,1.389-2.051,3.059-2.051,5.012v44.587c0,1.953,0.684,3.624,2.051,5.012c1.367,1.389,3.026,2.083,4.979,2.083
			s3.623-0.694,5.012-2.083c1.388-1.388,2.083-3.059,2.083-5.012V19.636z"/>
	</g>
</g>
<g>
	<rect x="236" y="0.85" fill="none" width="141" height="112.8"/>
	<g enable-background="new    ">
		<path fill="#325D87" d="M250.873,83.407V19.902h-10.595v-8.686c2.983-0.351,5.825-1.481,8.522-3.389
			c2.697-1.909,4.639-4.222,5.824-6.942h8.687v82.523H250.873z"/>
		<path fill="#325D87" d="M273.707,24.181c0-7.808,2.106-13.775,6.317-17.9c3.641-3.641,8.423-5.462,14.346-5.462
			c5.439,0,10.079,2.04,13.918,6.12c3.839,4.08,5.759,8.842,5.759,14.281c0,5.616-1.25,11.034-3.751,16.253
			c-1.361,2.896-4.541,7.876-9.543,14.939c-1.361,1.932-3.379,4.935-6.054,9.016l-2.238,3.356c-1.447,2.196-2.544,3.928-3.29,5.199
			c-0.352,0.651-0.526,1.046-0.526,1.184h24.415v12.174h-39.551V71.933c0-0.263,0.905-1.779,2.715-4.55
			c0.837-1.269,1.783-2.67,2.842-4.203l3.238-4.663c1.888-2.587,4.853-6.732,8.894-12.433c3.821-5.35,6.676-10.196,8.565-14.539
			c1.537-3.551,2.306-6.863,2.306-9.934c0-2.5-0.702-4.628-2.106-6.381c-1.536-1.842-3.51-2.762-5.923-2.762
			c-3.466,0-5.923,1.996-7.37,5.988c-0.483,1.317-0.723,2.896-0.723,4.739v3.159h-12.24V24.181z"/>
	</g>
</g>
</svg>
