<?xml version="1.0" encoding="utf-8"?>
<!-- Generator: Adobe Illustrator 17.0.0, SVG Export Plug-In . SVG Version: 6.00 Build 0)  -->
<!DOCTYPE svg PUBLIC "-//W3C//DTD SVG 1.1//EN" "http://www.w3.org/Graphics/SVG/1.1/DTD/svg11.dtd">
<svg version="1.1" id="Capa_1" xmlns="http://www.w3.org/2000/svg" xmlns:xlink="http://www.w3.org/1999/xlink" x="0px" y="0px"
	 width="2760px" height="120.5px" viewBox="0 0 2760 120.5" enable-background="new 0 0 2760 120.5" xml:space="preserve">
<rect fill="none" width="175" height="140"/>
<g enable-background="new    ">
	<path fill="#325D87" d="M13.948,117.64V28.437H-0.934V16.235c4.189-0.492,8.179-2.08,11.97-4.759
		c3.79-2.681,6.517-5.931,8.181-9.752h12.201V117.64C31.418,117.64,13.948,117.64,13.948,117.64z"/>
	<path fill="#325D87" d="M102.131,91.203c0,7.703-2.712,14.235-8.135,19.597c-5.423,5.361-11.925,8.042-19.504,8.042
		c-7.703,0-14.251-2.696-19.643-8.089c-5.393-5.392-8.088-11.91-8.088-19.551V27.976c0-7.703,2.711-14.251,8.134-19.643
		c5.421-5.392,11.954-8.089,19.597-8.089c7.702,0,14.235,2.712,19.597,8.135s8.042,11.956,8.042,19.597
		C102.131,27.976,102.131,91.203,102.131,91.203z M84.012,27.605c0-2.773-0.986-5.144-2.958-7.117
		c-1.973-1.972-4.344-2.958-7.117-2.958s-5.13,0.986-7.072,2.958c-1.941,1.973-2.912,4.344-2.912,7.117v63.321
		c0,2.773,0.971,5.145,2.912,7.117c1.941,1.973,4.298,2.958,7.072,2.958c2.773,0,5.144-0.984,7.117-2.958
		c1.972-1.972,2.958-4.344,2.958-7.117V27.605z"/>
</g>
<g>
	<rect x="116" y="0.608" fill="none" width="201.833" height="161.466"/>
	<g enable-background="new    ">
		<path fill="#325D87" d="M137.29,118.783V27.88h-15.166V15.447c4.269-0.502,8.337-2.12,12.199-4.852s6.64-6.043,8.337-9.939h12.435
			v118.127H137.29z"/>
		<path fill="#325D87" d="M184.858,118.783V27.88h-15.166V15.447c4.269-0.502,8.337-2.12,12.199-4.852
			c3.862-2.732,6.64-6.043,8.337-9.939h12.435v118.127H184.858z"/>
	</g>
</g>
<g>
	<rect x="355.667" y="1.981" fill="none" width="196.234" height="156.988"/>
	<g enable-background="new    ">
		<path fill="#325D87" d="M376.364,116.877V28.496h-14.745V16.406c4.151-0.488,8.105-2.061,11.86-4.717
			c3.755-2.657,6.457-5.876,8.105-9.663h12.089v114.85H376.364z"/>
		<path fill="#325D87" d="M434.336,100.392c7.936,0,11.906-3.689,11.906-11.071v-6.767c0-11.772-6.167-17.659-18.499-17.659V50.073
			c6.654,0,11.571-1.859,14.745-5.58c2.931-3.354,4.396-8.052,4.396-14.09v-2.653c0-7.502-3.297-11.253-9.891-11.253
			c-3.664,0-6.351,1.396-8.059,4.191c-1.283,2.124-1.924,4.886-1.924,8.284v3.006h-16.943V29.32c0-8.18,2.075-14.837,6.228-19.965
			c4.701-5.862,11.325-8.793,19.874-8.793c8.119,0,14.622,2.747,19.508,8.243c4.396,4.945,6.594,11.113,6.594,18.501v4.853
			c0,7.143-2.139,13.312-6.411,18.501c-1.833,2.197-3.97,4.063-6.411,5.587c5.128,2.871,9.097,7.236,11.906,13.098
			c1.465,2.991,2.199,6.626,2.199,10.899v9.066c0,8.487-2.901,15.449-8.7,20.882c-5.556,5.252-12.242,7.875-20.057,7.875
			c-7.633,0-14.105-2.685-19.417-8.058c-5.312-5.372-7.968-11.815-7.968-19.325v-2.84l16.486-1.282l0.366,4.03
			c0.244,2.871,1.267,5.221,3.068,7.052C429.13,99.476,431.465,100.392,434.336,100.392z"/>
	</g>
</g>
<g>
	<rect x="476" y="0.824" fill="none" width="199.833" height="159.867"/>
	<g enable-background="new    ">
		<path fill="#325D87" d="M497.078,117.829V27.827h-15.015V15.516c4.227-0.497,8.253-2.098,12.077-4.802s6.576-5.983,8.255-9.84
			h12.311V117.83h-17.628V117.829z"/>
		<path fill="#325D87" d="M528.786,74.833l31.153-74.054h17.626v74.054h11.285v17.72h-11.285v25.183h-17.628V92.553h-31.151
			L528.786,74.833L528.786,74.833z M559.937,74.833V38.306L545.38,74.833C545.38,74.833,559.937,74.833,559.937,74.833z"/>
	</g>
</g>
<g>
	<rect x="596.5" y="0.73" fill="none" width="198.667" height="158.933"/>
	<g enable-background="new    ">
		<path fill="#325D87" d="M617.455,117.051V27.574h-14.928v-12.24c4.203-0.494,8.206-2.085,12.007-4.775
			c3.801-2.688,6.537-5.948,8.206-9.782h12.239V117.05h-17.524V117.051z"/>
		<path fill="#325D87" d="M669.099,18.302v24.942c1.735-2.471,4.182-4.388,7.343-5.749c1.674-0.679,3.626-1.02,5.858-1.02
			c7.684,0,13.357,2.688,17.014,8.067c3.161,4.636,4.741,11.189,4.741,19.656v25.036c0,8.592-2.721,15.64-8.159,21.14
			c-5.192,5.317-11.745,7.975-19.658,7.975c-7.665,0-14.033-2.783-19.1-8.345c-4.884-5.317-7.325-11.806-7.325-19.472v-2.781
			l16.783-1.299l0.371,3.987c0.431,4.636,2.317,7.729,5.656,9.272c0.989,0.495,2.04,0.743,3.152,0.743
			c7.17,0,10.755-3.739,10.755-11.219V60.768c0-3.4-1.242-6.212-3.729-8.437c-1.18-1.05-2.829-1.576-4.94-1.576
			c-3.107,0-5.407,1.205-6.898,3.616c-1.242,2.102-1.864,4.328-1.864,6.676v3.152h-17.524V0.686h51.275v17.618h-33.751V18.302z"/>
	</g>
</g>
<g>
	<rect x="715.667" y="1.8" fill="none" width="196.833" height="157.466"/>
	<g enable-background="new    ">
		<path fill="#325D87" d="M736.429,117.047V28.396h-14.79V16.269c4.163-0.489,8.13-2.067,11.897-4.731
			c3.765-2.664,6.477-5.894,8.13-9.693h12.126v115.201h-17.362V117.047z"/>
		<path fill="#325D87" d="M803.397,30.416V27.57c0-2.817-0.75-5.191-2.25-7.12c-1.502-1.929-3.629-2.895-6.384-2.895
			c-2.755,0-4.885,0.964-6.384,2.895c-1.502,1.927-2.25,4.303-2.25,7.12v22.967c3.98-3.551,8.359-5.327,13.137-5.327
			c7.654,0,13.381,2.663,17.178,7.992c3.368,4.655,5.053,11.114,5.053,19.383v19.75h-0.092c-0.367,7.35-3.017,13.504-7.946,18.464
			c-4.931,4.962-10.979,7.441-18.143,7.441c-7.657,0-13.964-2.723-18.925-8.175c-4.839-5.267-7.256-11.698-7.256-19.292V27.935
			c0-5.634,1.362-10.716,4.088-15.25c2.725-4.532,6.599-7.901,11.621-10.106c3.184-1.469,6.675-2.205,10.473-2.205
			c7.592,0,13.902,2.755,18.924,8.268c4.837,5.269,7.258,11.7,7.258,19.292v2.479h-18.099V30.416z M786.126,90.498
			c0,2.817,0.708,5.144,2.124,6.982c1.538,2.02,3.693,3.03,6.465,3.03c2.77,0,4.924-1.01,6.465-3.03
			c1.477-1.838,2.217-4.165,2.217-6.982V69.184c0-3.307-1.232-6.064-3.695-8.269c-1.17-1.041-2.802-1.56-4.894-1.56
			c-3.017,0-5.295,1.193-6.833,3.582c-1.232,1.961-1.847,4.134-1.847,6.522v21.039H786.126z"/>
	</g>
</g>
<g>
	<rect x="836" y="1.167" fill="none" width="199.167" height="159.333"/>
	<g enable-background="new    ">
		<path fill="#325D87" d="M857.008,117.779V28.077h-14.966v-12.27c4.214-0.495,8.227-2.091,12.037-4.786s6.554-5.963,8.227-9.807
			h12.27v116.566h-17.568V117.779z"/>
		<path fill="#325D87" d="M939.458,1.121v17.661l-24.637,98.905h-17.244l24.636-98.905h-35.555V1.121H939.458z"/>
	</g>
</g>
<g>
	<rect x="956" y="1.812" fill="none" width="197.167" height="157.733"/>
	<g enable-background="new    ">
		<path fill="#325D87" d="M976.796,117.255V28.454h-14.816V16.307c4.172-0.49,8.145-2.07,11.917-4.738
			c3.772-2.668,6.488-5.903,8.145-9.709h12.147v115.396h-17.392V117.255z"/>
		<path fill="#325D87" d="M1065.871,90.937c0,7.668-2.7,14.171-8.098,19.508c-5.399,5.339-11.903,8.007-19.508,8.007h-1.381
			c-7.67,0-14.171-2.7-19.508-8.098c-5.337-5.398-8.005-11.871-8.005-19.416v-10.49c0-7.055,2.362-13.22,7.086-18.497
			c2.024-2.269,4.385-4.14,7.085-5.613c-4.663-2.392-8.283-6.38-10.858-11.962c-1.289-2.883-1.932-6.503-1.932-10.858V27.26
			c0-7.484,2.208-13.68,6.626-18.589c4.908-5.522,11.411-8.281,19.509-8.281h1.381c8.158,0,14.691,2.76,19.601,8.281
			c4.417,4.969,6.626,11.166,6.626,18.589v6.258c0,7.177-2.149,13.129-6.443,17.852c-1.901,2.087-4.018,3.744-6.349,4.969
			c5.153,2.885,9.14,7.27,11.962,13.16c1.472,3.008,2.209,6.658,2.209,10.952v10.486H1065.871z M1049.03,31.997
			c-0.123-7.891-2.608-12.846-7.453-14.864c-1.104-0.49-2.425-0.733-3.957-0.733c-3.007,0-5.462,0.825-7.362,2.476
			c-1.535,1.346-2.623,3.074-3.268,5.185c-0.644,2.109-0.906,4.754-0.783,7.935c0.183,5.015,0.981,8.624,2.392,10.826
			c1.84,2.936,4.845,4.405,9.018,4.405c4.171,0,7.208-1.558,9.109-4.679C1048.325,39.917,1049.092,36.402,1049.03,31.997z
			 M1048.479,82.747c0-6.871-1.564-11.471-4.694-13.803c-1.472-1.105-3.528-1.656-6.166-1.656c-4.602,0-7.73,1.964-9.386,5.89
			c-0.982,2.392-1.472,5.584-1.472,9.57v5.522c0,3.804,1.165,6.872,3.498,9.202c1.963,1.964,4.417,3.007,7.362,3.128
			c4.723-0.245,8.005-2.577,9.847-6.994c0.674-1.473,1.011-3.251,1.011-5.337L1048.479,82.747L1048.479,82.747z"/>
	</g>
</g>
<g>
	<rect x="1076" y="1.571" fill="none" width="196.5" height="157.2"/>
	<g enable-background="new    ">
		<path fill="#325D87" d="M1096.726,116.623v-88.5h-14.766V16.017c4.157-0.489,8.116-2.064,11.877-4.723
			c3.761-2.661,6.466-5.885,8.116-9.675h12.106v115.005C1114.059,116.623,1096.726,116.623,1096.726,116.623z"/>
		<path fill="#325D87" d="M1155.052,0.151c7.58,0,13.879,2.751,18.892,8.253c4.829,5.259,7.245,11.68,7.245,19.26v62.728
			c0,7.644-2.492,14.124-7.474,19.444c-4.984,5.318-11.204,7.978-18.662,7.978c-7.644,0-13.94-2.72-18.892-8.162
			c-4.831-5.258-7.245-11.678-7.245-19.26v-2.476h17.975v2.844c0,2.813,0.748,5.168,2.246,7.061
			c1.498,1.896,3.622,2.844,6.375,2.844c2.753,0,4.875-0.948,6.373-2.844c1.498-1.893,2.248-4.248,2.248-7.061V67.74
			c-4.036,3.608-8.408,5.412-13.115,5.412c-7.582,0-13.268-2.661-17.058-7.979c-3.363-4.645-5.044-11.128-5.044-19.442V26.014h0.093
			c0.244-5.318,1.756-10.102,4.539-14.353c2.782-4.249,6.557-7.413,11.326-9.492C1147.99,0.824,1151.384,0.151,1155.052,0.151z
			 M1164.13,27.848c0-2.811-0.749-5.183-2.248-7.108c-1.498-1.925-3.622-2.888-6.373-2.888s-4.876,0.963-6.375,2.888
			c-1.498,1.927-2.246,4.297-2.246,7.108v21.276c0,3.363,1.223,6.145,3.668,8.346c1.101,1.041,2.72,1.56,4.86,1.56
			c4.402,0,7.153-2.323,8.255-6.969c0.305-1.406,0.459-2.477,0.459-3.21V27.848z"/>
	</g>
</g>
<g>
	<rect x="1195.333" y="1.757" fill="none" width="193.682" height="154.946"/>
	<g enable-background="new    ">
		<path fill="#325D87" d="M1201.479,33.802c0-10.725,2.893-18.922,8.678-24.588c5.001-5.001,11.571-7.502,19.707-7.502
			c7.472,0,13.845,2.802,19.119,8.405c5.273,5.605,7.909,12.145,7.909,19.617c0,7.714-1.717,15.156-5.152,22.327
			c-1.868,3.978-6.237,10.818-13.107,20.521c-1.868,2.652-4.641,6.779-8.317,12.383l-3.073,4.611
			c-1.989,3.014-3.496,5.395-4.521,7.141c-0.484,0.894-0.723,1.437-0.723,1.627h33.537v16.724h-54.327V99.398
			c0-0.361,1.243-2.445,3.729-6.25c1.15-1.743,2.45-3.668,3.904-5.775l4.448-6.405c2.593-3.554,6.666-9.247,12.218-17.081
			c5.248-7.349,9.171-14.005,11.765-19.97c2.112-4.878,3.168-9.427,3.168-13.645c0-3.433-0.965-6.357-2.892-8.765
			c-2.111-2.53-4.823-3.795-8.135-3.795c-4.762,0-8.135,2.742-10.124,8.225c-0.663,1.807-0.995,3.978-0.995,6.508v4.339h-16.814
			v-2.983H1201.479z"/>
		<path fill="#325D87" d="M1315.338,89.307c0,7.533-2.652,13.92-7.954,19.164c-5.303,5.242-11.661,7.864-19.074,7.864
			c-7.534,0-13.936-2.635-19.209-7.909c-5.274-5.274-7.91-11.646-7.91-19.119V27.476c0-7.531,2.651-13.935,7.954-19.209
			c5.303-5.273,11.691-7.909,19.164-7.909c7.531,0,13.92,2.652,19.164,7.954c5.244,5.303,7.864,11.693,7.864,19.164v61.831H1315.338
			z M1297.622,27.114c0-2.712-0.965-5.032-2.893-6.961c-1.929-1.928-4.248-2.892-6.959-2.892s-5.017,0.964-6.916,2.892
			c-1.899,1.929-2.847,4.249-2.847,6.961v61.921c0,2.71,0.949,5.032,2.847,6.959c1.899,1.929,4.204,2.893,6.916,2.893
			c2.712,0,5.03-0.964,6.959-2.893c1.928-1.928,2.893-4.249,2.893-6.959V27.114z"/>
	</g>
</g>
<g>
	<rect x="1315" y="1.174" fill="none" width="197.5" height="158"/>
	<g enable-background="new    ">
		<path fill="#325D87" d="M1328.267,33.853c0-10.937,2.95-19.296,8.85-25.072c5.099-5.099,11.799-7.651,20.094-7.651
			c7.619,0,14.117,2.857,19.495,8.573c5.376,5.715,8.066,12.384,8.066,20.002c0,7.866-1.751,15.456-5.254,22.768
			c-1.905,4.056-6.36,11.031-13.365,20.924c-1.906,2.704-4.733,6.914-8.48,12.627l-3.135,4.702c-2.027,3.074-3.565,5.501-4.61,7.281
			c-0.493,0.912-0.737,1.466-0.737,1.661h34.199v17.053h-55.398v-15.98c0-0.368,1.268-2.493,3.802-6.373
			c1.173-1.778,2.499-3.742,3.981-5.889l4.535-6.531c2.644-3.625,6.798-9.43,12.458-17.417c5.351-7.493,9.351-14.282,11.998-20.364
			c2.153-4.976,3.23-9.615,3.23-13.915c0-3.502-0.984-6.481-2.949-8.938c-2.152-2.581-4.917-3.871-8.296-3.871
			c-4.856,0-8.296,2.797-10.324,8.388c-0.677,1.844-1.014,4.057-1.014,6.637v4.425h-17.146v-3.04H1328.267z"/>
		<path fill="#325D87" d="M1405.594,116.813V27.861h-14.84V15.693c4.179-0.491,8.158-2.074,11.938-4.746
			c3.779-2.673,6.499-5.914,8.156-9.726h12.168v115.591h-17.422V116.813z"/>
	</g>
</g>
<g>
	<rect x="1437.033" y="1.031" fill="none" width="196.967" height="157.574"/>
	<g enable-background="new    ">
		<path fill="#325D87" d="M1441.286,33.622c0-10.907,2.939-19.243,8.825-25.004c5.085-5.086,11.766-7.631,20.04-7.631
			c7.6,0,14.079,2.851,19.442,8.55c5.363,5.698,8.045,12.35,8.045,19.947c0,7.847-1.748,15.415-5.242,22.706
			c-1.9,4.045-6.341,11-13.33,20.868c-1.9,2.697-4.718,6.894-8.456,12.594l-3.127,4.688c-2.021,3.065-3.555,5.485-4.595,7.263
			c-0.491,0.909-0.735,1.461-0.735,1.654h34.104v17.006h-55.249V100.33c0-0.368,1.264-2.487,3.791-6.356
			c1.17-1.773,2.493-3.729,3.971-5.873l4.524-6.513c2.638-3.614,6.779-9.404,12.424-17.368c5.336-7.474,9.327-14.244,11.964-20.309
			c2.148-4.961,3.223-9.587,3.223-13.878c0-3.491-0.982-6.463-2.942-8.913c-2.145-2.573-4.903-3.859-8.274-3.859
			c-4.841,0-8.274,2.79-10.295,8.364c-0.676,1.839-1.011,4.045-1.011,6.619v4.412h-17.098L1441.286,33.622L1441.286,33.622z"/>
		<path fill="#325D87" d="M1501.014,33.622c0-10.907,2.941-19.243,8.825-25.004c5.085-5.086,11.768-7.631,20.042-7.631
			c7.598,0,14.077,2.851,19.441,8.55c5.361,5.698,8.043,12.35,8.043,19.947c0,7.847-1.748,15.415-5.24,22.706
			c-1.9,4.045-6.343,11-13.331,20.868c-1.9,2.697-4.719,6.894-8.457,12.594l-3.126,4.688c-2.023,3.065-3.554,5.485-4.595,7.263
			c-0.491,0.909-0.736,1.461-0.736,1.654h34.105v17.006h-55.249V100.33c0-0.368,1.263-2.487,3.791-6.356
			c1.17-1.773,2.493-3.729,3.971-5.873l4.524-6.513c2.636-3.614,6.779-9.404,12.423-17.368c5.338-7.474,9.328-14.244,11.966-20.309
			c2.147-4.961,3.222-9.587,3.222-13.878c0-3.491-0.98-6.463-2.941-8.913c-2.146-2.573-4.903-3.859-8.274-3.859
			c-4.841,0-8.274,2.79-10.297,8.364c-0.674,1.839-1.011,4.045-1.011,6.619v4.412h-17.098L1501.014,33.622L1501.014,33.622z"/>
	</g>
</g>
<g>
	<rect x="1556" y="1.339" fill="none" width="196" height="158.206"/>
	<g enable-background="new    ">
		<path fill="#325D87" d="M1564.219,34.06c0-10.953,2.927-19.321,8.783-25.106c5.061-5.106,11.709-7.66,19.941-7.66
			c7.561,0,14.011,2.862,19.349,8.583c5.335,5.722,8.004,12.4,8.004,20.029c0,7.876-1.738,15.474-5.215,22.798
			c-1.891,4.06-6.313,11.045-13.264,20.952c-1.892,2.708-4.697,6.922-8.416,12.645l-3.111,4.708
			c-2.013,3.077-3.537,5.508-4.573,7.291c-0.489,0.912-0.731,1.467-0.731,1.662h33.937v17.074h-54.977v-16.001
			c0-0.369,1.257-2.496,3.773-6.382c1.163-1.779,2.478-3.745,3.949-5.894l4.501-6.54c2.624-3.629,6.746-9.442,12.363-17.438
			c5.312-7.503,9.28-14.299,11.907-20.39c2.136-4.982,3.206-9.627,3.206-13.933c0-3.505-0.978-6.49-2.928-8.949
			c-2.136-2.583-4.88-3.875-8.232-3.875c-4.818,0-8.232,2.801-10.246,8.399c-0.672,1.846-1.007,4.06-1.007,6.645v4.429h-17.016
			V34.06H1564.219z"/>
		<path fill="#325D87" d="M1642.379,18.831v24.829c1.713-2.46,4.127-4.367,7.245-5.722c1.652-0.675,3.579-1.015,5.78-1.015
			c7.58,0,13.178,2.677,16.786,8.029c3.118,4.616,4.678,11.14,4.678,19.568v24.919c0,8.553-2.684,15.569-8.049,21.044
			c-5.122,5.293-11.588,7.937-19.393,7.937c-7.563,0-13.845-2.769-18.845-8.306c-4.817-5.291-7.226-11.753-7.226-19.383v-2.769
			l16.557-1.292l0.367,3.97c0.424,4.614,2.286,7.691,5.581,9.229c0.975,0.493,2.011,0.738,3.11,0.738
			c7.072,0,10.612-3.723,10.612-11.168V61.104c0-3.383-1.227-6.185-3.679-8.399c-1.164-1.046-2.79-1.57-4.874-1.57
			c-3.066,0-5.334,1.201-6.805,3.6c-1.226,2.093-1.84,4.308-1.84,6.645v3.139h-17.289V1.295h50.587v17.536H1642.379z"/>
	</g>
</g>
<g>
	<rect x="1675.333" y="1.79" fill="none" width="196.167" height="156.934"/>
	<g enable-background="new    ">
		<path fill="#325D87" d="M1683.559,34.246c0-10.863,2.93-19.164,8.79-24.902c5.064-5.065,11.719-7.6,19.958-7.6
			c7.567,0,14.021,2.839,19.364,8.515c5.341,5.676,8.011,12.299,8.011,19.868c0,7.813-1.74,15.352-5.219,22.614
			c-1.893,4.028-6.318,10.956-13.276,20.783c-1.893,2.687-4.701,6.867-8.423,12.543l-3.113,4.67
			c-2.014,3.054-3.542,5.464-4.578,7.233c-0.489,0.905-0.732,1.455-0.732,1.648h33.967v16.938h-55.024v-15.873
			c0-0.366,1.258-2.476,3.776-6.33c1.165-1.765,2.481-3.716,3.955-5.849l4.503-6.488c2.626-3.599,6.751-9.366,12.374-17.298
			c5.316-7.443,9.29-14.186,11.918-20.226c2.139-4.942,3.208-9.551,3.208-13.822c0-3.478-0.977-6.438-2.93-8.878
			c-2.137-2.562-4.884-3.844-8.24-3.844c-4.824,0-8.24,2.777-10.254,8.332c-0.672,1.831-1.008,4.028-1.008,6.592v4.395h-17.03v-3.02
			H1683.559z"/>
		<path fill="#325D87" d="M1778.277,30.31v-2.839c0-2.807-0.75-5.172-2.243-7.096c-1.497-1.923-3.618-2.884-6.365-2.884
			s-4.868,0.961-6.363,2.884s-2.243,4.289-2.243,7.096v22.89c3.967-3.539,8.332-5.31,13.093-5.31c7.629,0,13.336,2.656,17.121,7.966
			c3.356,4.639,5.036,11.079,5.036,19.318V92.02h-0.092c-0.366,7.324-3.007,13.459-7.919,18.403
			c-4.914,4.944-10.941,7.416-18.083,7.416c-7.63,0-13.916-2.716-18.86-8.149c-4.822-5.249-7.233-11.657-7.233-19.227V27.838
			c0-5.615,1.359-10.68,4.074-15.198c2.716-4.516,6.577-7.874,11.582-10.071c3.173-1.465,6.652-2.197,10.437-2.197
			c7.569,0,13.854,2.747,18.861,8.24c4.821,5.25,7.233,11.659,7.233,19.226v2.473H1778.277z M1761.064,90.187
			c0,2.81,0.705,5.128,2.117,6.959c1.534,2.014,3.681,3.022,6.442,3.022s4.909-1.008,6.444-3.022
			c1.471-1.831,2.209-4.15,2.209-6.959v-21.24c0-3.296-1.228-6.042-3.684-8.24c-1.166-1.037-2.792-1.557-4.878-1.557
			c-3.007,0-5.278,1.191-6.81,3.571c-1.228,1.954-1.841,4.121-1.841,6.501v20.965H1761.064z"/>
	</g>
</g>
<g>
	<rect x="1795.667" y="1.085" fill="none" width="197.833" height="158.266"/>
	<g enable-background="new    ">
		<path fill="#325D87" d="M1804.945,33.816c0-10.956,2.955-19.327,8.864-25.115c5.11-5.109,11.82-7.663,20.127-7.663
			c7.633,0,14.143,2.861,19.529,8.587s8.08,12.404,8.08,20.036c0,7.88-1.755,15.483-5.264,22.806
			c-1.908,4.063-6.37,11.048-13.388,20.96c-1.908,2.71-4.74,6.925-8.494,12.649l-3.139,4.709c-2.031,3.079-3.572,5.51-4.616,7.294
			c-0.494,0.914-0.74,1.467-0.74,1.663h34.256v17.082h-55.492v-16.007c0-0.369,1.269-2.497,3.809-6.383
			c1.175-1.78,2.504-3.747,3.988-5.899l4.545-6.542c2.648-3.631,6.809-9.446,12.479-17.445c5.361-7.507,9.367-14.306,12.018-20.399
			c2.158-4.984,3.236-9.631,3.236-13.938c0-3.508-0.986-6.492-2.955-8.954c-2.155-2.585-4.926-3.878-8.309-3.878
			c-4.865,0-8.309,2.801-10.34,8.403c-0.68,1.846-1.016,4.063-1.016,6.648v4.431h-17.173v-3.046H1804.945z"/>
		<path fill="#325D87" d="M1916.702,1.039v17.542l-24.47,98.243h-17.128l24.472-98.243h-35.318V1.039H1916.702z"/>
	</g>
</g>
<g>
	<rect x="1914.667" y="0.5" fill="none" width="175" height="140"/>
</g>
<g>
	<rect x="1916.667" y="2.11" fill="none" width="132.083" height="105.666"/>
	<g enable-background="new    ">
		<path fill="#325D87" d="M1949.457,100.462c7.895,0,11.846-3.668,11.846-11.012v-6.733c0-11.711-6.136-17.566-18.405-17.566V50.407
			c6.62,0,11.509-1.849,14.668-5.551c2.916-3.337,4.373-8.009,4.373-14.015v-2.64c0-7.462-3.281-11.192-9.838-11.192
			c-3.646,0-6.318,1.388-8.019,4.166c-1.274,2.113-1.912,4.861-1.912,8.239v2.991h-16.854v-2.643c0-8.139,2.063-14.758,6.195-19.86
			c4.676-5.83,11.265-8.746,19.77-8.746c8.077,0,14.546,2.734,19.405,8.199c4.373,4.92,6.559,11.055,6.559,18.403v4.83
			c0,7.107-2.127,13.242-6.376,18.403c-1.822,2.186-3.949,4.041-6.379,5.558c5.103,2.857,9.051,7.197,11.845,13.028
			c1.457,2.977,2.186,6.591,2.186,10.842v9.02c0,8.443-2.886,15.367-8.655,20.774c-5.527,5.224-12.178,7.836-19.953,7.836
			c-7.592,0-14.028-2.674-19.313-8.018c-5.283-5.344-7.926-11.754-7.926-19.225v-2.824l16.399-1.275l0.365,4.01
			c0.242,2.857,1.261,5.193,3.052,7.016C1944.277,99.551,1946.6,100.462,1949.457,100.462z"/>
		<path fill="#325D87" d="M2038.897,90.804c0,7.594-2.675,14.03-8.019,19.315c-5.345,5.284-11.752,7.926-19.223,7.926
			c-7.593,0-14.048-2.657-19.362-7.973c-5.314-5.315-7.972-11.736-7.972-19.269V28.487c0-7.592,2.672-14.045,8.018-19.361
			c5.344-5.315,11.783-7.972,19.315-7.972c7.592,0,14.03,2.674,19.315,8.018c5.282,5.344,7.926,11.785,7.926,19.313v62.319H2038.897
			z M2021.038,28.123c0-2.734-0.971-5.071-2.916-7.016c-1.942-1.942-4.28-2.916-7.014-2.916c-2.734,0-5.057,0.972-6.97,2.916
			c-1.912,1.945-2.87,4.282-2.87,7.016v62.409c0,2.734,0.958,5.072,2.87,7.014c1.912,1.945,4.236,2.916,6.97,2.916
			c2.734,0,5.072-0.97,7.014-2.916c1.943-1.942,2.916-4.28,2.916-7.014V28.123z"/>
	</g>
</g>
<g>
	<rect x="2044.083" y="1.113" fill="none" width="197.417" height="157.934"/>
	<g enable-background="new    ">
		<path fill="#325D87" d="M2094.907,116.701V27.789h-14.835V15.626c4.177-0.491,8.156-2.073,11.934-4.745
			c3.778-2.672,6.496-5.91,8.155-9.72h12.163v115.542h-17.416V116.701z"/>
	</g>
</g>
<g>
	<rect x="2179.524" y="3.116" fill="none" width="195.476" height="156.38"/>
	<text transform="matrix(1 0 0 1 2179.5234 117.5684)" fill="#A2B3D7" font-family="'Bebas'" font-size="128.4556"> </text>
	<g enable-background="new    ">
		<path fill="#325D87" d="M2197.587,34.714c0-10.924,2.948-19.272,8.838-25.041c5.095-5.094,11.783-7.641,20.07-7.641
			c7.609,0,14.099,2.854,19.47,8.562c5.369,5.708,8.055,12.369,8.055,19.976c0,7.857-1.748,15.435-5.246,22.739
			c-1.904,4.051-6.354,11.018-13.35,20.899c-1.904,2.702-4.727,6.904-8.47,12.612l-3.13,4.695c-2.026,3.07-3.56,5.494-4.603,7.273
			c-0.493,0.911-0.738,1.462-0.738,1.657h34.155v17.031h-55.329v-15.96c0-0.368,1.266-2.489,3.797-6.365
			c1.171-1.775,2.496-3.736,3.976-5.88l4.531-6.524c2.642-3.62,6.789-9.418,12.44-17.393c5.346-7.484,9.341-14.263,11.983-20.338
			c2.152-4.968,3.227-9.601,3.227-13.897c0-3.497-0.982-6.472-2.947-8.928c-2.149-2.575-4.91-3.865-8.284-3.865
			c-4.85,0-8.285,2.793-10.311,8.378c-0.676,1.841-1.012,4.051-1.012,6.629v4.419h-17.125v-3.039H2197.587z"/>
	</g>
</g>
<g>
	<rect x="2311.846" y="2.15" fill="none" width="195.154" height="156.123"/>
	<g enable-background="new    ">
		<path fill="#325D87" d="M2344.543,100.02c7.895,0,11.842-3.668,11.842-11.009v-6.732c0-11.707-6.133-17.561-18.4-17.561V49.978
			c6.618,0,11.508-1.849,14.667-5.549c2.913-3.336,4.371-8.007,4.371-14.011v-2.639c0-7.46-3.278-11.191-9.836-11.191
			c-3.643,0-6.316,1.39-8.015,4.166c-1.275,2.113-1.912,4.86-1.912,8.239v2.987h-16.851v-2.64c0-8.137,2.063-14.755,6.193-19.856
			c4.675-5.829,11.263-8.744,19.766-8.744c8.075,0,14.541,2.732,19.4,8.197c4.373,4.919,6.558,11.052,6.558,18.398v4.829
			c0,7.104-2.125,13.237-6.376,18.398c-1.819,2.186-3.948,4.039-6.374,5.557c5.099,2.854,9.046,7.195,11.841,13.023
			c1.458,2.977,2.185,6.589,2.185,10.839v9.017c0,8.441-2.884,15.362-8.652,20.767c-5.526,5.223-12.174,7.834-19.948,7.834
			c-7.592,0-14.026-2.671-19.309-8.016c-5.282-5.343-7.923-11.75-7.923-19.219v-2.823l16.395-1.274l0.363,4.008
			c0.242,2.856,1.261,5.192,3.051,7.014C2339.366,99.11,2341.689,100.02,2344.543,100.02z"/>
	</g>
</g>
<g>
	<rect x="2436" y="1.753" fill="none" width="195.75" height="156.6"/>
	<g enable-background="new    ">
		<path fill="#325D87" d="M2476.015,30.213v-2.833c0-2.8-0.746-5.161-2.239-7.081c-1.494-1.918-3.608-2.877-6.349-2.877
			c-2.741,0-4.857,0.958-6.349,2.877c-1.495,1.92-2.24,4.279-2.24,7.081v22.84c3.959-3.532,8.314-5.298,13.065-5.298
			c7.612,0,13.305,2.65,17.084,7.948c3.349,4.63,5.024,11.055,5.024,19.277V91.79h-0.091c-0.366,7.308-3.001,13.429-7.902,18.363
			c-4.904,4.934-10.918,7.401-18.043,7.401c-7.615,0-13.887-2.71-18.822-8.132c-4.813-5.238-7.218-11.633-7.218-19.186v-62.49
			c0-5.603,1.354-10.658,4.066-15.166c2.708-4.506,6.562-7.857,11.557-10.048c3.166-1.463,6.637-2.193,10.415-2.193
			c7.552,0,13.824,2.74,18.82,8.222c4.812,5.239,7.218,11.634,7.218,19.186v2.467h-17.996V30.213z M2458.84,89.963
			c0,2.802,0.705,5.117,2.113,6.942c1.531,2.01,3.673,3.016,6.429,3.016c2.754,0,4.897-1.006,6.429-3.016
			c1.469-1.826,2.203-4.141,2.203-6.942V68.768c0-3.288-1.224-6.031-3.673-8.222c-1.164-1.035-2.787-1.554-4.869-1.554
			c-2.999,0-5.264,1.189-6.795,3.563c-1.225,1.951-1.837,4.111-1.837,6.487L2458.84,89.963L2458.84,89.963z"/>
	</g>
</g>
<g>
	<rect x="2552.667" y="1.152" fill="none" width="199.833" height="159.866"/>
	<g enable-background="new    ">
		<path fill="#325D87" d="M2611.703,1.106v17.722l-24.718,99.235h-17.3l24.719-99.235h-35.676V1.106H2611.703z"/>
	</g>
</g>
<g>
	<rect x="2646" y="1.79" fill="none" width="196.5" height="157.199"/>
	<g enable-background="new    ">
		<path fill="#325D87" d="M2666.726,116.842v-88.5h-14.766V16.236c4.158-0.489,8.116-2.063,11.877-4.723
			c3.762-2.66,6.466-5.885,8.117-9.676h12.106v115.005C2684.059,116.842,2666.726,116.842,2666.726,116.842z"/>
		<path fill="#325D87" d="M2754.214,90.613c0,7.644-2.691,14.123-8.07,19.443c-5.381,5.319-11.831,7.98-19.351,7.98
			c-7.644,0-14.139-2.674-19.488-8.025c-5.352-5.35-8.025-11.815-8.025-19.397V27.882c0-7.642,2.69-14.138,8.071-19.488
			c5.38-5.35,11.86-8.024,19.442-8.024c7.642,0,14.123,2.69,19.442,8.069c5.318,5.381,7.979,11.862,7.979,19.443V90.613z
			 M2736.24,27.515c0-2.751-0.979-5.105-2.935-7.062c-1.957-1.956-4.311-2.935-7.062-2.935s-5.091,0.979-7.015,2.935
			c-1.927,1.957-2.89,4.311-2.89,7.062v62.822c0,2.751,0.963,5.107,2.89,7.062c1.926,1.957,4.264,2.935,7.015,2.935
			s5.105-0.978,7.062-2.935c1.956-1.956,2.935-4.311,2.935-7.062V27.515z"/>
	</g>
</g>
<g>
	<rect x="236" y="0.863" fill="none" width="198.5" height="158.799"/>
	<g enable-background="new    ">
		<path fill="#325D87" d="M256.938,117.087V27.685h-14.915V15.456c4.2-0.494,8.2-2.085,11.998-4.771
			c3.797-2.687,6.531-5.944,8.199-9.773h12.23v116.175H256.938z"/>
		<path fill="#325D87" d="M289.083,33.708c0-10.993,2.965-19.393,8.893-25.2c5.125-5.125,11.858-7.689,20.196-7.689
			c7.657,0,14.189,2.872,19.594,8.616c5.405,5.744,8.108,12.447,8.108,20.105c0,7.906-1.76,15.534-5.281,22.882
			c-1.916,4.077-6.393,11.088-13.434,21.031c-1.916,2.719-4.757,6.947-8.523,12.692l-3.151,4.724
			c-2.038,3.091-3.581,5.529-4.632,7.319c-0.495,0.917-0.74,1.472-0.74,1.667h34.371v17.139h-55.679v-16.061
			c0-0.37,1.274-2.505,3.822-6.405c1.178-1.786,2.511-3.759,4.002-5.917l4.558-6.565c2.657-3.642,6.832-9.477,12.521-17.504
			c5.38-7.532,9.399-14.354,12.058-20.468c2.164-4.999,3.247-9.662,3.247-13.985c0-3.52-0.989-6.515-2.965-8.983
			c-2.162-2.593-4.942-3.889-8.338-3.889c-4.88,0-8.338,2.81-10.376,8.429c-0.68,1.854-1.018,4.077-1.018,6.671v4.447h-17.232
			V33.708z"/>
	</g>
</g>
</svg>
