<?xml version="1.0" encoding="utf-8"?>
<!-- Generator: Adobe Illustrator 17.0.0, SVG Export Plug-In . SVG Version: 6.00 Build 0)  -->
<!DOCTYPE svg PUBLIC "-//W3C//DTD SVG 1.1//EN" "http://www.w3.org/Graphics/SVG/1.1/DTD/svg11.dtd">
<svg version="1.1" id="Capa_1" xmlns="http://www.w3.org/2000/svg" xmlns:xlink="http://www.w3.org/1999/xlink" x="0px" y="0px"
	 width="2760px" height="103.5px" viewBox="0 0 2760 103.5" enable-background="new 0 0 2760 103.5" xml:space="preserve">
<rect fill="none" width="175" height="140"/>
<g enable-background="new    ">
	<path fill="#A2B3D7" d="M13.459,102.464V23.646H0.309V12.865c3.702-0.436,7.228-1.838,10.577-4.206
		c3.349-2.369,5.758-5.24,7.228-8.617h10.781v102.422H13.459z"/>
	<path fill="#A2B3D7" d="M91.375,79.104c0,6.808-2.396,12.578-7.188,17.315c-4.792,4.737-10.536,7.105-17.233,7.105
		c-6.808,0-12.592-2.381-17.356-7.146c-4.765-4.764-7.146-10.522-7.146-17.274V23.238c0-6.807,2.396-12.591,7.188-17.356
		c4.791-4.764,10.563-7.146,17.315-7.146c6.806,0,12.578,2.396,17.315,7.188c4.737,4.792,7.106,10.564,7.106,17.315V79.104z
		 M75.367,22.911c0-2.45-0.872-4.546-2.614-6.289c-1.743-1.742-3.839-2.613-6.289-2.613s-4.533,0.871-6.248,2.613
		c-1.715,1.743-2.573,3.839-2.573,6.289v55.948c0,2.45,0.858,4.547,2.573,6.289c1.715,1.743,3.798,2.613,6.248,2.613
		s4.546-0.87,6.289-2.613c1.742-1.742,2.614-3.839,2.614-6.289V22.911z"/>
</g>
<g>
	<rect x="116" fill="none" width="175" height="140"/>
	<g enable-background="new    ">
		<path fill="#A2B3D7" d="M134.459,102.464V23.646h-13.15V12.865c3.702-0.436,7.228-1.838,10.577-4.206
			c3.349-2.369,5.758-5.24,7.228-8.617h10.781v102.422H134.459z"/>
		<path fill="#A2B3D7" d="M175.703,102.464V23.646h-13.15V12.865c3.702-0.436,7.228-1.838,10.577-4.206
			c3.349-2.369,5.758-5.24,7.228-8.617h10.781v102.422H175.703z"/>
	</g>
</g>
<g>
	<rect x="355.667" y="0.5" fill="none" width="175" height="140"/>
	<g enable-background="new    ">
		<path fill="#A2B3D7" d="M374.125,102.964V24.146h-13.15V13.365c3.702-0.436,7.228-1.838,10.577-4.206
			c3.349-2.369,5.758-5.24,7.228-8.617h10.781v102.422H374.125z"/>
		<path fill="#A2B3D7" d="M425.823,88.262c7.078,0,10.618-3.29,10.618-9.872v-6.036c0-10.498-5.5-15.747-16.499-15.747V43.389
			c5.935,0,10.318-1.657,13.15-4.976c2.614-2.991,3.92-7.18,3.92-12.565v-2.366c0-6.689-2.94-10.034-8.821-10.034
			c-3.267,0-5.664,1.245-7.188,3.735c-1.144,1.895-1.715,4.357-1.715,7.388v2.68h-15.11v-2.368c0-7.296,1.85-13.231,5.554-17.806
			c4.192-5.228,10.1-7.841,17.724-7.841c7.241,0,13.04,2.45,17.397,7.351c3.921,4.41,5.881,9.911,5.881,16.499v4.328
			c0,6.371-1.907,11.871-5.717,16.499c-1.633,1.96-3.54,3.622-5.717,4.982c4.574,2.56,8.113,6.452,10.618,11.68
			c1.307,2.668,1.96,5.908,1.96,9.719v8.086c0,7.569-2.587,13.777-7.759,18.623c-4.956,4.684-10.918,7.023-17.887,7.023
			c-6.807,0-12.578-2.396-17.315-7.188c-4.737-4.791-7.105-10.536-7.105-17.233v-2.532l14.702-1.144l0.327,3.594
			c0.217,2.561,1.129,4.656,2.736,6.289C421.18,87.445,423.263,88.262,425.823,88.262z"/>
	</g>
</g>
<g>
	<rect x="476" y="0.5" fill="none" width="175" height="140"/>
	<g enable-background="new    ">
		<path fill="#A2B3D7" d="M494.459,102.964V24.146h-13.15V13.365c3.702-0.436,7.228-1.838,10.577-4.206
			c3.349-2.369,5.758-5.24,7.228-8.617h10.781v102.422H494.459z"/>
		<path fill="#A2B3D7" d="M522.226,65.312L549.507,0.46h15.436v64.852h9.883V80.83h-9.883v22.052h-15.437V80.83h-27.28V65.312z
			 M549.506,65.312V33.323l-12.748,31.988H549.506z"/>
	</g>
</g>
<g>
	<rect x="596.5" y="0.5" fill="none" width="175" height="140"/>
	<g enable-background="new    ">
		<path fill="#A2B3D7" d="M614.959,102.964V24.146h-13.15V13.365c3.702-0.436,7.228-1.838,10.577-4.206
			c3.349-2.369,5.758-5.24,7.228-8.617h10.781v102.422H614.959z"/>
		<path fill="#A2B3D7" d="M660.45,15.979v21.971c1.529-2.177,3.685-3.865,6.469-5.063c1.474-0.599,3.194-0.898,5.16-0.898
			c6.769,0,11.765,2.368,14.986,7.105c2.785,4.084,4.177,9.856,4.177,17.315v22.053c0,7.569-2.396,13.776-7.188,18.622
			c-4.574,4.684-10.346,7.024-17.315,7.024c-6.752,0-12.361-2.45-16.825-7.351c-4.302-4.683-6.452-10.4-6.452-17.152v-2.45
			l14.783-1.144l0.327,3.512c0.38,4.084,2.042,6.808,4.982,8.168c0.87,0.437,1.797,0.653,2.777,0.653
			c6.316,0,9.475-3.294,9.475-9.883V53.387c0-2.994-1.095-5.473-3.285-7.433c-1.04-0.926-2.491-1.389-4.352-1.389
			c-2.738,0-4.763,1.062-6.076,3.186c-1.095,1.852-1.643,3.812-1.643,5.881v2.776h-15.437V0.46h45.167v15.519H660.45z"/>
	</g>
</g>
<g>
	<rect x="715.667" y="0.5" fill="none" width="175" height="140"/>
	<g enable-background="new    ">
		<path fill="#A2B3D7" d="M734.126,102.964V24.146h-13.15V13.365c3.702-0.436,7.229-1.838,10.577-4.206
			c3.349-2.369,5.758-5.24,7.229-8.617h10.781v102.422H734.126z"/>
		<path fill="#A2B3D7" d="M793.665,25.943v-2.532c0-2.504-0.667-4.614-2.001-6.33c-1.335-1.715-3.226-2.572-5.676-2.572
			s-4.343,0.857-5.677,2.572c-1.335,1.716-2.001,3.826-2.001,6.33V43.83c3.539-3.157,7.433-4.737,11.68-4.737
			c6.806,0,11.896,2.369,15.273,7.106c2.994,4.139,4.492,9.883,4.492,17.233v17.561h-0.082c-0.326,6.534-2.683,12.006-7.064,16.417
			c-4.384,4.41-9.761,6.615-16.132,6.615c-6.807,0-12.414-2.422-16.825-7.269c-4.302-4.683-6.452-10.4-6.452-17.152V23.738
			c0-5.01,1.211-9.528,3.635-13.559c2.422-4.029,5.866-7.024,10.332-8.984c2.83-1.307,5.935-1.96,9.311-1.96
			c6.752,0,12.36,2.45,16.826,7.351c4.301,4.684,6.452,10.401,6.452,17.152v2.205H793.665z M778.31,79.359
			c0,2.505,0.629,4.574,1.889,6.207c1.368,1.797,3.283,2.695,5.748,2.695c2.463,0,4.379-0.898,5.748-2.695
			c1.313-1.633,1.97-3.702,1.97-6.207V60.41c0-2.939-1.095-5.391-3.284-7.351c-1.04-0.925-2.491-1.389-4.353-1.389
			c-2.682,0-4.707,1.063-6.075,3.186c-1.096,1.743-1.643,3.676-1.643,5.799V79.359z"/>
	</g>
</g>
<g>
	<rect x="836" y="0.5" fill="none" width="175" height="140"/>
	<g enable-background="new    ">
		<path fill="#A2B3D7" d="M854.459,102.964V24.146h-13.15V13.365c3.702-0.436,7.228-1.838,10.577-4.206
			c3.349-2.369,5.758-5.24,7.228-8.617h10.781v102.422H854.459z"/>
		<path fill="#A2B3D7" d="M926.904,0.46v15.519l-21.647,86.903h-15.151l21.647-86.903h-31.241V0.46H926.904z"/>
	</g>
</g>
<g>
	<rect x="956" y="0.5" fill="none" width="175" height="140"/>
	<g enable-background="new    ">
		<path fill="#A2B3D7" d="M974.459,102.964V24.146h-13.15V13.365c3.702-0.436,7.228-1.838,10.577-4.206
			c3.349-2.369,5.758-5.24,7.228-8.617h10.781v102.422H974.459z"/>
		<path fill="#A2B3D7" d="M1053.519,79.604c0,6.808-2.396,12.578-7.188,17.315c-4.792,4.737-10.564,7.105-17.315,7.105h-1.225
			c-6.807,0-12.578-2.396-17.315-7.188c-4.737-4.791-7.105-10.536-7.105-17.233v-9.312c0-6.261,2.095-11.732,6.289-16.416
			c1.797-2.015,3.892-3.676,6.289-4.982c-4.139-2.124-7.351-5.663-9.638-10.618c-1.144-2.559-1.715-5.771-1.715-9.638v-5.554
			c0-6.643,1.96-12.142,5.88-16.499c4.356-4.9,10.128-7.351,17.315-7.351h1.225c7.241,0,13.04,2.45,17.397,7.351
			c3.921,4.41,5.881,9.911,5.881,16.499v5.554c0,6.371-1.907,11.652-5.717,15.845c-1.688,1.853-3.567,3.322-5.636,4.411
			c4.574,2.56,8.113,6.452,10.618,11.68c1.307,2.668,1.96,5.908,1.96,9.719V79.604z M1038.573,27.291
			c-0.11-7.004-2.315-11.401-6.616-13.193c-0.98-0.434-2.151-0.65-3.512-0.65c-2.668,0-4.847,0.733-6.534,2.198
			c-1.362,1.194-2.328,2.729-2.9,4.603c-0.571,1.873-0.804,4.22-0.694,7.043c0.163,4.451,0.87,7.654,2.124,9.608
			c1.633,2.605,4.301,3.909,8.004,3.909c3.703,0,6.398-1.384,8.086-4.153C1037.946,34.321,1038.626,31.2,1038.573,27.291z
			 M1038.083,72.335c0-6.098-1.389-10.181-4.166-12.251c-1.307-0.98-3.132-1.471-5.473-1.471c-4.083,0-6.86,1.744-8.331,5.228
			c-0.872,2.124-1.307,4.956-1.307,8.494v4.901c0,3.376,1.034,6.099,3.104,8.167c1.742,1.743,3.92,2.669,6.534,2.777
			c4.192-0.217,7.106-2.287,8.74-6.208c0.598-1.307,0.898-2.885,0.898-4.736V72.335z"/>
	</g>
</g>
<g>
	<rect x="1076" y="0.5" fill="none" width="175" height="140"/>
	<g enable-background="new    ">
		<path fill="#A2B3D7" d="M1094.459,102.964V24.146h-13.15V13.365c3.702-0.436,7.228-1.838,10.577-4.206
			c3.349-2.369,5.758-5.24,7.228-8.617h10.781v102.422H1094.459z"/>
		<path fill="#A2B3D7" d="M1146.402-0.765c6.751,0,12.36,2.45,16.826,7.351c4.301,4.684,6.452,10.401,6.452,17.152v55.866
			c0,6.808-2.219,12.578-6.657,17.315c-4.438,4.737-9.979,7.105-16.621,7.105c-6.807,0-12.415-2.422-16.825-7.269
			c-4.302-4.683-6.452-10.4-6.452-17.152v-2.205h16.008v2.532c0,2.505,0.666,4.602,2.001,6.289c1.334,1.688,3.227,2.531,5.677,2.531
			s4.341-0.844,5.676-2.531c1.334-1.688,2.001-3.784,2.001-6.289V59.431c-3.594,3.213-7.487,4.818-11.68,4.818
			c-6.752,0-11.816-2.368-15.191-7.105c-2.995-4.138-4.492-9.909-4.492-17.315V22.268h0.082c0.217-4.737,1.564-8.997,4.043-12.782
			c2.477-3.784,5.84-6.602,10.087-8.453C1140.113-0.165,1143.136-0.765,1146.402-0.765z M1154.488,23.901
			c0-2.504-0.667-4.614-2.001-6.33c-1.335-1.715-3.226-2.572-5.676-2.572s-4.343,0.857-5.677,2.572
			c-1.335,1.716-2.001,3.826-2.001,6.33v18.949c0,2.995,1.089,5.472,3.267,7.433c0.98,0.926,2.422,1.388,4.329,1.388
			c3.92,0,6.371-2.068,7.351-6.207c0.272-1.252,0.408-2.205,0.408-2.858V23.901z"/>
	</g>
</g>
<g>
	<rect x="1195.333" y="0.5" fill="none" width="175" height="140"/>
	<g enable-background="new    ">
		<path fill="#A2B3D7" d="M1200.888,29.455c0-9.691,2.613-17.097,7.841-22.216c4.519-4.519,10.455-6.779,17.805-6.779
			c6.751,0,12.509,2.532,17.274,7.597c4.764,5.063,7.147,10.973,7.147,17.724c0,6.97-1.552,13.694-4.656,20.174
			c-1.688,3.594-5.636,9.774-11.843,18.54c-1.688,2.396-4.194,6.126-7.514,11.189l-2.777,4.166
			c-1.797,2.724-3.158,4.874-4.083,6.452c-0.437,0.808-0.654,1.298-0.654,1.471h30.302v15.109h-49.087V88.723
			c0-0.326,1.123-2.209,3.369-5.646c1.039-1.575,2.214-3.314,3.527-5.218l4.019-5.787c2.343-3.211,6.024-8.355,11.039-15.432
			c4.742-6.641,8.286-12.655,10.631-18.044c1.908-4.408,2.862-8.519,2.862-12.329c0-3.103-0.872-5.743-2.614-7.921
			c-1.906-2.285-4.357-3.429-7.351-3.429c-4.302,0-7.351,2.479-9.148,7.433c-0.6,1.634-0.898,3.594-0.898,5.881v3.92h-15.191V29.455
			z"/>
		<path fill="#A2B3D7" d="M1308.708,79.604c0,6.808-2.396,12.578-7.188,17.315c-4.792,4.737-10.536,7.105-17.233,7.105
			c-6.808,0-12.592-2.381-17.356-7.146c-4.765-4.764-7.146-10.522-7.146-17.274V23.738c0-6.807,2.396-12.591,7.188-17.356
			c4.791-4.764,10.563-7.146,17.315-7.146c6.806,0,12.578,2.396,17.315,7.188c4.737,4.792,7.106,10.564,7.106,17.315V79.604z
			 M1292.7,23.411c0-2.45-0.872-4.546-2.614-6.289c-1.743-1.742-3.839-2.613-6.289-2.613s-4.533,0.871-6.248,2.613
			c-1.715,1.743-2.573,3.839-2.573,6.289v55.948c0,2.45,0.858,4.547,2.573,6.289c1.715,1.743,3.798,2.613,6.248,2.613
			s4.546-0.87,6.289-2.613c1.742-1.742,2.614-3.839,2.614-6.289V23.411z"/>
	</g>
</g>
<g>
	<rect x="1316" y="0.5" fill="none" width="175" height="140"/>
	<g enable-background="new    ">
		<path fill="#A2B3D7" d="M1321.555,29.455c0-9.691,2.613-17.097,7.841-22.216c4.519-4.519,10.454-6.779,17.805-6.779
			c6.751,0,12.51,2.532,17.274,7.597c4.765,5.063,7.147,10.973,7.147,17.724c0,6.97-1.552,13.694-4.656,20.174
			c-1.688,3.594-5.636,9.774-11.843,18.54c-1.688,2.396-4.193,6.126-7.514,11.189l-2.777,4.166
			c-1.797,2.724-3.158,4.874-4.084,6.452c-0.437,0.808-0.653,1.298-0.653,1.471h30.302v15.109h-49.087V88.723
			c0-0.326,1.123-2.209,3.369-5.646c1.038-1.575,2.214-3.314,3.527-5.218l4.019-5.787c2.343-3.211,6.023-8.355,11.039-15.432
			c4.742-6.641,8.286-12.655,10.631-18.044c1.907-4.408,2.862-8.519,2.862-12.329c0-3.103-0.872-5.743-2.614-7.921
			c-1.906-2.285-4.356-3.429-7.351-3.429c-4.302,0-7.351,2.479-9.147,7.433c-0.6,1.634-0.898,3.594-0.898,5.881v3.92h-15.191V29.455
			z"/>
		<path fill="#A2B3D7" d="M1395.388,102.964V24.146h-13.149V13.365c3.702-0.436,7.228-1.838,10.577-4.206
			c3.349-2.369,5.758-5.24,7.228-8.617h10.781v102.422H1395.388z"/>
	</g>
</g>
<g>
	<rect x="1436.033" y="0.5" fill="none" width="175" height="140"/>
	<g enable-background="new    ">
		<path fill="#A2B3D7" d="M1441.588,29.455c0-9.691,2.613-17.097,7.841-22.216c4.519-4.519,10.454-6.779,17.805-6.779
			c6.751,0,12.51,2.532,17.274,7.597c4.765,5.063,7.147,10.973,7.147,17.724c0,6.97-1.552,13.694-4.656,20.174
			c-1.688,3.594-5.636,9.774-11.843,18.54c-1.688,2.396-4.193,6.126-7.514,11.189l-2.777,4.166
			c-1.797,2.724-3.158,4.874-4.084,6.452c-0.437,0.808-0.653,1.298-0.653,1.471h30.302v15.109h-49.087V88.723
			c0-0.326,1.123-2.209,3.369-5.646c1.038-1.575,2.214-3.314,3.527-5.218l4.019-5.787c2.343-3.211,6.023-8.355,11.039-15.432
			c4.742-6.641,8.286-12.655,10.631-18.044c1.907-4.408,2.862-8.519,2.862-12.329c0-3.103-0.872-5.743-2.614-7.921
			c-1.906-2.285-4.356-3.429-7.351-3.429c-4.302,0-7.351,2.479-9.147,7.433c-0.6,1.634-0.898,3.594-0.898,5.881v3.92h-15.191V29.455
			z"/>
		<path fill="#A2B3D7" d="M1498.606,29.455c0-9.691,2.613-17.097,7.841-22.216c4.52-4.519,10.455-6.779,17.806-6.779
			c6.751,0,12.509,2.532,17.274,7.597c4.764,5.063,7.146,10.973,7.146,17.724c0,6.97-1.552,13.694-4.655,20.174
			c-1.688,3.594-5.636,9.774-11.843,18.54c-1.688,2.396-4.194,6.126-7.515,11.189l-2.777,4.166
			c-1.797,2.724-3.158,4.874-4.083,6.452c-0.437,0.808-0.654,1.298-0.654,1.471h30.303v15.109h-49.088V88.723
			c0-0.326,1.123-2.209,3.369-5.646c1.039-1.575,2.214-3.314,3.527-5.218l4.019-5.787c2.344-3.211,6.024-8.355,11.039-15.432
			c4.742-6.641,8.286-12.655,10.631-18.044c1.908-4.408,2.862-8.519,2.862-12.329c0-3.103-0.871-5.743-2.613-7.921
			c-1.906-2.285-4.357-3.429-7.351-3.429c-4.303,0-7.352,2.479-9.148,7.433c-0.6,1.634-0.898,3.594-0.898,5.881v3.92h-15.191V29.455
			z"/>
	</g>
</g>
<g>
	<rect x="1556" y="0.5" fill="none" width="175" height="140"/>
	<g enable-background="new    ">
		<path fill="#A2B3D7" d="M1561.555,29.455c0-9.691,2.613-17.097,7.841-22.216c4.519-4.519,10.454-6.779,17.805-6.779
			c6.751,0,12.51,2.532,17.274,7.597c4.765,5.063,7.147,10.973,7.147,17.724c0,6.97-1.552,13.694-4.656,20.174
			c-1.688,3.594-5.636,9.774-11.843,18.54c-1.688,2.396-4.193,6.126-7.514,11.189l-2.777,4.166
			c-1.797,2.724-3.158,4.874-4.084,6.452c-0.437,0.808-0.653,1.298-0.653,1.471h30.302v15.109h-49.087V88.723
			c0-0.326,1.123-2.209,3.369-5.646c1.038-1.575,2.214-3.314,3.527-5.218l4.019-5.787c2.343-3.211,6.023-8.355,11.039-15.432
			c4.742-6.641,8.286-12.655,10.631-18.044c1.907-4.408,2.862-8.519,2.862-12.329c0-3.103-0.872-5.743-2.614-7.921
			c-1.906-2.285-4.356-3.429-7.351-3.429c-4.302,0-7.351,2.479-9.147,7.433c-0.6,1.634-0.898,3.594-0.898,5.881v3.92h-15.191V29.455
			z"/>
		<path fill="#A2B3D7" d="M1635.316,15.979v21.971c1.529-2.177,3.685-3.865,6.47-5.063c1.474-0.599,3.194-0.898,5.159-0.898
			c6.77,0,11.766,2.368,14.986,7.105c2.785,4.084,4.177,9.856,4.177,17.315v22.053c0,7.569-2.396,13.776-7.188,18.622
			c-4.573,4.684-10.346,7.024-17.315,7.024c-6.752,0-12.36-2.45-16.825-7.351c-4.302-4.683-6.452-10.4-6.452-17.152v-2.45
			l14.783-1.144l0.327,3.512c0.38,4.084,2.042,6.808,4.982,8.168c0.87,0.437,1.797,0.653,2.776,0.653
			c6.316,0,9.475-3.294,9.475-9.883V53.387c0-2.994-1.095-5.473-3.285-7.433c-1.04-0.926-2.491-1.389-4.352-1.389
			c-2.737,0-4.763,1.062-6.076,3.186c-1.095,1.852-1.643,3.812-1.643,5.881v2.776h-15.437V0.46h45.167v15.519H1635.316z"/>
	</g>
</g>
<g>
	<rect x="1675.333" y="0.5" fill="none" width="175" height="140"/>
	<g enable-background="new    ">
		<path fill="#A2B3D7" d="M1680.888,29.455c0-9.691,2.613-17.097,7.841-22.216c4.52-4.519,10.455-6.779,17.806-6.779
			c6.751,0,12.509,2.532,17.274,7.597c4.764,5.063,7.146,10.973,7.146,17.724c0,6.97-1.552,13.694-4.655,20.174
			c-1.688,3.594-5.636,9.774-11.843,18.54c-1.688,2.396-4.194,6.126-7.515,11.189l-2.777,4.166
			c-1.797,2.724-3.158,4.874-4.083,6.452c-0.437,0.808-0.654,1.298-0.654,1.471h30.303v15.109h-49.088V88.723
			c0-0.326,1.123-2.209,3.369-5.646c1.039-1.575,2.214-3.314,3.527-5.218l4.019-5.787c2.344-3.211,6.024-8.355,11.039-15.432
			c4.742-6.641,8.286-12.655,10.631-18.044c1.908-4.408,2.862-8.519,2.862-12.329c0-3.103-0.871-5.743-2.613-7.921
			c-1.906-2.285-4.357-3.429-7.351-3.429c-4.303,0-7.352,2.479-9.148,7.433c-0.6,1.634-0.898,3.594-0.898,5.881v3.92h-15.191V29.455
			z"/>
		<path fill="#A2B3D7" d="M1770.25,25.943v-2.532c0-2.504-0.667-4.614-2.001-6.33c-1.335-1.715-3.227-2.572-5.677-2.572
			s-4.343,0.857-5.677,2.572c-1.335,1.716-2.001,3.826-2.001,6.33V43.83c3.539-3.157,7.433-4.737,11.68-4.737
			c6.807,0,11.896,2.369,15.273,7.106c2.994,4.139,4.492,9.883,4.492,17.233v17.561h-0.081c-0.327,6.534-2.683,12.006-7.065,16.417
			c-4.384,4.41-9.76,6.615-16.131,6.615c-6.808,0-12.415-2.422-16.825-7.269c-4.302-4.683-6.452-10.4-6.452-17.152V23.738
			c0-5.01,1.211-9.528,3.634-13.559c2.423-4.029,5.867-7.024,10.332-8.984c2.831-1.307,5.935-1.96,9.312-1.96
			c6.751,0,12.36,2.45,16.825,7.351c4.301,4.684,6.452,10.401,6.452,17.152v2.205H1770.25z M1754.894,79.359
			c0,2.505,0.63,4.574,1.889,6.207c1.368,1.797,3.284,2.695,5.748,2.695c2.463,0,4.379-0.898,5.748-2.695
			c1.313-1.633,1.971-3.702,1.971-6.207V60.41c0-2.939-1.095-5.391-3.285-7.351c-1.04-0.925-2.491-1.389-4.352-1.389
			c-2.683,0-4.708,1.063-6.076,3.186c-1.095,1.743-1.643,3.676-1.643,5.799V79.359z"/>
	</g>
</g>
<g>
	<rect x="1795.667" y="0.5" fill="none" width="175" height="140"/>
	<g enable-background="new    ">
		<path fill="#A2B3D7" d="M1801.221,29.455c0-9.691,2.613-17.097,7.841-22.216c4.52-4.519,10.455-6.779,17.806-6.779
			c6.751,0,12.509,2.532,17.274,7.597c4.764,5.063,7.146,10.973,7.146,17.724c0,6.97-1.552,13.694-4.655,20.174
			c-1.688,3.594-5.636,9.774-11.843,18.54c-1.688,2.396-4.194,6.126-7.515,11.189l-2.777,4.166
			c-1.797,2.724-3.158,4.874-4.083,6.452c-0.437,0.808-0.654,1.298-0.654,1.471h30.303v15.109h-49.088V88.723
			c0-0.326,1.123-2.209,3.369-5.646c1.039-1.575,2.214-3.314,3.527-5.218l4.019-5.787c2.344-3.211,6.024-8.355,11.039-15.432
			c4.742-6.641,8.286-12.655,10.631-18.044c1.908-4.408,2.862-8.519,2.862-12.329c0-3.103-0.871-5.743-2.613-7.921
			c-1.906-2.285-4.357-3.429-7.351-3.429c-4.303,0-7.352,2.479-9.148,7.433c-0.6,1.634-0.898,3.594-0.898,5.881v3.92h-15.191V29.455
			z"/>
		<path fill="#A2B3D7" d="M1904.387,0.46v15.519l-21.646,86.903h-15.151l21.647-86.903h-31.241V0.46H1904.387z"/>
	</g>
</g>
<g>
	<rect x="1914.667" y="0.5" fill="none" width="175" height="140"/>
</g>
<g>
	<rect x="1915.667" y="0.5" fill="none" width="175" height="140"/>
	<g enable-background="new    ">
		<path fill="#A2B3D7" d="M1944.988,88.262c7.078,0,10.618-3.29,10.618-9.872v-6.036c0-10.498-5.5-15.747-16.499-15.747V43.389
			c5.935,0,10.318-1.657,13.15-4.976c2.613-2.991,3.92-7.18,3.92-12.565v-2.366c0-6.689-2.94-10.034-8.82-10.034
			c-3.268,0-5.664,1.245-7.188,3.735c-1.144,1.895-1.716,4.357-1.716,7.388v2.68h-15.109v-2.368c0-7.296,1.85-13.231,5.554-17.806
			c4.192-5.228,10.1-7.841,17.724-7.841c7.241,0,13.04,2.45,17.396,7.351c3.921,4.41,5.881,9.911,5.881,16.499v4.328
			c0,6.371-1.906,11.871-5.717,16.499c-1.634,1.96-3.54,3.622-5.718,4.982c4.574,2.56,8.113,6.452,10.618,11.68
			c1.307,2.668,1.96,5.908,1.96,9.719v8.086c0,7.569-2.587,13.777-7.759,18.623c-4.956,4.684-10.918,7.023-17.888,7.023
			c-6.807,0-12.578-2.396-17.315-7.188c-4.736-4.791-7.105-10.536-7.105-17.233v-2.532l14.702-1.144l0.326,3.594
			c0.217,2.561,1.13,4.656,2.736,6.289C1940.346,87.445,1942.429,88.262,1944.988,88.262z"/>
		<path fill="#A2B3D7" d="M2029.205,79.604c0,6.808-2.396,12.578-7.188,17.315c-4.792,4.737-10.536,7.105-17.233,7.105
			c-6.808,0-12.593-2.381-17.356-7.146c-4.766-4.764-7.146-10.522-7.146-17.274V23.738c0-6.807,2.396-12.591,7.188-17.356
			c4.79-4.764,10.563-7.146,17.315-7.146c6.806,0,12.578,2.396,17.314,7.188c4.737,4.792,7.106,10.564,7.106,17.315V79.604z
			 M2013.196,23.411c0-2.45-0.871-4.546-2.613-6.289c-1.743-1.742-3.839-2.613-6.289-2.613s-4.533,0.871-6.248,2.613
			c-1.716,1.743-2.573,3.839-2.573,6.289v55.948c0,2.45,0.857,4.547,2.573,6.289c1.715,1.743,3.798,2.613,6.248,2.613
			s4.546-0.87,6.289-2.613c1.742-1.742,2.613-3.839,2.613-6.289V23.411z"/>
	</g>
</g>
<g>
	<rect x="2036.083" y="0.5" fill="none" width="175" height="140"/>
	<g enable-background="new    ">
		<path fill="#A2B3D7" d="M2054.543,102.964V24.146h-13.151V13.365c3.702-0.436,7.229-1.838,10.577-4.206
			c3.349-2.369,5.758-5.24,7.228-8.617h10.781v102.422H2054.543z"/>
	</g>
</g>
<g>
	<rect x="2155.512" y="0.5" fill="none" width="175" height="140"/>
	<g enable-background="new    ">
		<path fill="#A2B3D7" d="M2171.683,29.455c0-9.691,2.613-17.097,7.841-22.216c4.519-4.519,10.454-6.779,17.805-6.779
			c6.751,0,12.51,2.532,17.274,7.597c4.765,5.063,7.147,10.973,7.147,17.724c0,6.97-1.552,13.694-4.656,20.174
			c-1.688,3.594-5.636,9.774-11.843,18.54c-1.688,2.396-4.193,6.126-7.514,11.189l-2.777,4.166
			c-1.797,2.724-3.158,4.874-4.084,6.452c-0.437,0.808-0.653,1.298-0.653,1.471h30.302v15.109h-49.087V88.723
			c0-0.326,1.123-2.209,3.369-5.646c1.038-1.575,2.214-3.314,3.527-5.218l4.019-5.787c2.343-3.211,6.023-8.355,11.039-15.432
			c4.742-6.641,8.286-12.655,10.631-18.044c1.907-4.408,2.862-8.519,2.862-12.329c0-3.103-0.872-5.743-2.614-7.921
			c-1.906-2.285-4.356-3.429-7.351-3.429c-4.302,0-7.351,2.479-9.147,7.433c-0.6,1.634-0.898,3.594-0.898,5.881v3.92h-15.191V29.455
			z"/>
	</g>
</g>
<g>
	<rect x="2276.846" y="0.5" fill="none" width="175" height="140"/>
	<g enable-background="new    ">
		<path fill="#A2B3D7" d="M2306.168,88.262c7.077,0,10.617-3.29,10.617-9.872v-6.036c0-10.498-5.5-15.747-16.498-15.747V43.389
			c5.934,0,10.318-1.657,13.149-4.976c2.614-2.991,3.921-7.18,3.921-12.565v-2.366c0-6.689-2.941-10.034-8.821-10.034
			c-3.267,0-5.664,1.245-7.188,3.735c-1.144,1.895-1.716,4.357-1.716,7.388v2.68h-15.109v-2.368c0-7.296,1.85-13.231,5.554-17.806
			c4.192-5.228,10.1-7.841,17.724-7.841c7.241,0,13.04,2.45,17.396,7.351c3.922,4.41,5.881,9.911,5.881,16.499v4.328
			c0,6.371-1.906,11.871-5.717,16.499c-1.633,1.96-3.54,3.622-5.717,4.982c4.573,2.56,8.112,6.452,10.617,11.68
			c1.307,2.668,1.961,5.908,1.961,9.719v8.086c0,7.569-2.588,13.777-7.76,18.623c-4.955,4.684-10.918,7.023-17.887,7.023
			c-6.808,0-12.578-2.396-17.316-7.188c-4.736-4.791-7.105-10.536-7.105-17.233v-2.532l14.702-1.144l0.327,3.594
			c0.217,2.561,1.129,4.656,2.736,6.289C2301.524,87.445,2303.607,88.262,2306.168,88.262z"/>
	</g>
</g>
<g>
	<rect x="2396" y="0.5" fill="none" width="175" height="140"/>
	<g enable-background="new    ">
		<path fill="#A2B3D7" d="M2431.773,25.943v-2.532c0-2.504-0.666-4.614-2-6.33c-1.336-1.715-3.227-2.572-5.677-2.572
			s-4.343,0.857-5.677,2.572c-1.335,1.716-2.001,3.826-2.001,6.33V43.83c3.539-3.157,7.433-4.737,11.68-4.737
			c6.806,0,11.896,2.369,15.273,7.106c2.994,4.139,4.492,9.883,4.492,17.233v17.561h-0.081c-0.327,6.534-2.684,12.006-7.065,16.417
			c-4.384,4.41-9.761,6.615-16.132,6.615c-6.807,0-12.414-2.422-16.824-7.269c-4.303-4.683-6.453-10.4-6.453-17.152V23.738
			c0-5.01,1.211-9.528,3.635-13.559c2.422-4.029,5.867-7.024,10.332-8.984c2.83-1.307,5.935-1.96,9.311-1.96
			c6.752,0,12.361,2.45,16.826,7.351c4.301,4.684,6.452,10.401,6.452,17.152v2.205H2431.773z M2416.419,79.359
			c0,2.505,0.63,4.574,1.889,6.207c1.368,1.797,3.284,2.695,5.748,2.695c2.463,0,4.379-0.898,5.748-2.695
			c1.313-1.633,1.97-3.702,1.97-6.207V60.41c0-2.939-1.094-5.391-3.284-7.351c-1.04-0.925-2.491-1.389-4.353-1.389
			c-2.682,0-4.707,1.063-6.075,3.186c-1.095,1.743-1.643,3.676-1.643,5.799V79.359z"/>
	</g>
</g>
<g>
	<rect x="2515.667" y="0.5" fill="none" width="175" height="140"/>
	<g enable-background="new    ">
		<path fill="#A2B3D7" d="M2567.368,0.46v15.519l-21.647,86.903h-15.15l21.646-86.903h-31.241V0.46H2567.368z"/>
	</g>
</g>
<g>
	<rect x="2636" y="0.5" fill="none" width="175" height="140"/>
	<g enable-background="new    ">
		<path fill="#A2B3D7" d="M2654.459,102.964V24.146h-13.15V13.365c3.703-0.436,7.229-1.838,10.578-4.206
			c3.348-2.369,5.758-5.24,7.228-8.617h10.781v102.422H2654.459z"/>
		<path fill="#A2B3D7" d="M2732.375,79.604c0,6.808-2.396,12.578-7.188,17.315s-10.535,7.105-17.232,7.105
			c-6.809,0-12.593-2.381-17.357-7.146c-4.765-4.764-7.146-10.522-7.146-17.274V23.738c0-6.807,2.396-12.591,7.188-17.356
			c4.791-4.764,10.563-7.146,17.316-7.146c6.805,0,12.578,2.396,17.314,7.188c4.737,4.792,7.105,10.564,7.105,17.315V79.604z
			 M2716.367,23.411c0-2.45-0.871-4.546-2.613-6.289c-1.744-1.742-3.84-2.613-6.289-2.613c-2.451,0-4.533,0.871-6.248,2.613
			c-1.716,1.743-2.574,3.839-2.574,6.289v55.948c0,2.45,0.858,4.547,2.574,6.289c1.715,1.743,3.797,2.613,6.248,2.613
			c2.449,0,4.545-0.87,6.289-2.613c1.742-1.742,2.613-3.839,2.613-6.289V23.411z"/>
	</g>
</g>
<g>
	<rect x="236" fill="none" width="175" height="140"/>
	<g enable-background="new    ">
		<path fill="#A2B3D7" d="M254.459,102.464V23.646h-13.15V12.865c3.702-0.436,7.228-1.838,10.577-4.206
			c3.349-2.369,5.758-5.24,7.228-8.617h10.781v102.422H254.459z"/>
		<path fill="#A2B3D7" d="M282.798,28.955c0-9.691,2.613-17.097,7.841-22.216c4.519-4.519,10.455-6.779,17.805-6.779
			c6.751,0,12.509,2.532,17.274,7.597c4.764,5.063,7.147,10.973,7.147,17.724c0,6.97-1.552,13.694-4.656,20.174
			c-1.688,3.594-5.636,9.774-11.843,18.54c-1.688,2.396-4.194,6.126-7.514,11.189l-2.777,4.166
			c-1.797,2.724-3.158,4.874-4.083,6.452c-0.437,0.808-0.654,1.298-0.654,1.471h30.302v15.109h-49.087V88.223
			c0-0.326,1.123-2.209,3.369-5.646c1.039-1.575,2.214-3.314,3.527-5.218l4.019-5.787c2.343-3.211,6.024-8.355,11.039-15.432
			c4.742-6.641,8.286-12.655,10.631-18.044c1.908-4.408,2.862-8.519,2.862-12.329c0-3.103-0.872-5.743-2.614-7.921
			c-1.906-2.285-4.357-3.429-7.351-3.429c-4.302,0-7.351,2.479-9.148,7.433c-0.6,1.634-0.898,3.594-0.898,5.881v3.92h-15.191V28.955
			z"/>
	</g>
</g>
</svg>
