<?xml version="1.0" encoding="utf-8"?>
<!-- Generator: Adobe Illustrator 17.0.0, SVG Export Plug-In . SVG Version: 6.00 Build 0)  -->
<!DOCTYPE svg PUBLIC "-//W3C//DTD SVG 1.1//EN" "http://www.w3.org/Graphics/SVG/1.1/DTD/svg11.dtd">
<svg version="1.1" id="Capa_1" xmlns="http://www.w3.org/2000/svg" xmlns:xlink="http://www.w3.org/1999/xlink" x="0px" y="0px"
	 width="2760px" height="80px" viewBox="0 0 2760 80" enable-background="new 0 0 2760 80" xml:space="preserve">
<rect fill="none" width="175" height="140"/>
<g enable-background="new    ">
	<path fill="#325D87" d="M9.135,79.672V19.319H-0.934v-8.256C1.9,10.73,4.6,9.656,7.165,7.843C9.729,6.029,11.574,3.83,12.7,1.245
		h8.255v78.427H9.135z"/>
	<path fill="#325D87" d="M68.798,61.785c0,5.212-1.835,9.631-5.504,13.259c-3.669,3.627-8.068,5.441-13.196,5.441
		c-5.212,0-9.642-1.824-13.29-5.473c-3.649-3.648-5.472-8.058-5.472-13.228V19.007c0-5.212,1.834-9.642,5.503-13.29
		c3.668-3.648,8.088-5.473,13.259-5.473c5.211,0,9.631,1.835,13.259,5.504s5.441,8.089,5.441,13.259V61.785z M56.539,18.756
		c0-1.876-0.667-3.48-2.001-4.815c-1.335-1.334-2.939-2.001-4.815-2.001c-1.876,0-3.471,0.667-4.785,2.001
		c-1.313,1.335-1.97,2.939-1.97,4.815v42.842c0,1.876,0.657,3.481,1.97,4.815c1.313,1.335,2.908,2.001,4.785,2.001
		c1.876,0,3.48-0.666,4.815-2.001c1.334-1.334,2.001-2.939,2.001-4.815V18.756z"/>
</g>
<g>
	<rect x="116" y="0.608" fill="none" width="135.773" height="108.618"/>
	<g enable-background="new    ">
		<path fill="#325D87" d="M130.322,80.104v-61.15H120.12V10.59c2.872-0.338,5.608-1.426,8.206-3.264s4.467-4.065,5.608-6.686h8.365
			v79.464H130.322z"/>
		<path fill="#325D87" d="M162.321,80.104v-61.15h-10.202V10.59c2.872-0.338,5.608-1.426,8.206-3.264s4.467-4.065,5.608-6.686h8.365
			v79.464H162.321z"/>
	</g>
</g>
<g>
	<rect x="355.667" y="1.528" fill="none" width="133.507" height="106.806"/>
	<g enable-background="new    ">
		<path fill="#325D87" d="M369.748,79.697v-60.13h-10.032v-8.225c2.824-0.332,5.514-1.402,8.069-3.209
			c2.555-1.808,4.393-3.998,5.514-6.574h8.225v78.138H369.748z"/>
		<path fill="#325D87" d="M409.189,68.481c5.399,0,8.1-2.51,8.1-7.532v-4.604c0-8.009-4.196-12.014-12.586-12.014V34.247
			c4.527,0,7.872-1.265,10.032-3.796c1.994-2.282,2.991-5.478,2.991-9.586v-1.805c0-5.104-2.243-7.656-6.729-7.656
			c-2.493,0-4.321,0.95-5.483,2.851c-0.873,1.445-1.309,3.324-1.309,5.636v2.045h-11.527v-1.808c0-5.565,1.412-10.094,4.237-13.583
			c3.198-3.988,7.705-5.982,13.521-5.982c5.524,0,9.948,1.869,13.272,5.608c2.991,3.364,4.486,7.561,4.486,12.587v3.302
			c0,4.86-1.455,9.057-4.362,12.587c-1.247,1.495-2.701,2.764-4.362,3.801c3.489,1.953,6.189,4.923,8.1,8.911
			c0.997,2.035,1.496,4.508,1.496,7.415v6.168c0,5.774-1.974,10.511-5.919,14.207c-3.78,3.573-8.329,5.358-13.646,5.358
			c-5.193,0-9.596-1.827-13.21-5.482c-3.614-3.655-5.421-8.038-5.421-13.148v-1.932l11.216-0.872l0.249,2.742
			c0.166,1.953,0.862,3.552,2.087,4.798C405.647,67.858,407.236,68.481,409.189,68.481z"/>
	</g>
</g>
<g>
	<rect x="476" y="0.809" fill="none" width="134.405" height="107.524"/>
	<g enable-background="new    ">
		<path fill="#325D87" d="M490.177,79.505V18.971h-10.099v-8.28c2.843-0.334,5.551-1.411,8.123-3.23
			c2.572-1.819,4.423-4.024,5.552-6.618h8.28v78.663H490.177z"/>
		<path fill="#325D87" d="M511.503,50.587l20.953-49.808h11.855v49.808h7.59v11.918h-7.59v16.938h-11.856V62.505h-20.952V50.587z
			 M532.455,50.587V26.019l-9.791,24.568H532.455z"/>
	</g>
</g>
<g>
	<rect x="596.5" y="0.716" fill="none" width="134" height="107.2"/>
	<g enable-background="new    ">
		<path fill="#325D87" d="M610.634,79.174V18.822h-10.069v-8.256c2.835-0.333,5.535-1.406,8.099-3.221
			c2.564-1.813,4.409-4.012,5.535-6.598h8.255v78.426H610.634z"/>
		<path fill="#325D87" d="M645.468,12.568v16.823c1.17-1.667,2.821-2.96,4.953-3.878c1.129-0.458,2.446-0.688,3.951-0.688
			c5.183,0,9.009,1.813,11.476,5.441c2.132,3.127,3.198,7.547,3.198,13.258v16.887c0,5.795-1.835,10.549-5.503,14.259
			c-3.502,3.586-7.922,5.379-13.259,5.379c-5.17,0-9.465-1.877-12.883-5.629c-3.294-3.586-4.941-7.963-4.941-13.134v-1.876
			l11.32-0.876l0.25,2.689c0.291,3.127,1.563,5.213,3.815,6.254c0.667,0.334,1.376,0.501,2.126,0.501
			c4.836,0,7.254-2.522,7.254-7.567v-19.2c0-2.293-0.838-4.19-2.515-5.691c-0.796-0.708-1.908-1.063-3.332-1.063
			c-2.096,0-3.647,0.813-4.653,2.439c-0.838,1.418-1.257,2.919-1.257,4.503v2.126h-11.82V0.686h34.585v11.883H645.468z"/>
	</g>
</g>
<g>
	<rect x="715.667" y="1.346" fill="none" width="134.083" height="107.266"/>
	<g enable-background="new    ">
		<path fill="#325D87" d="M729.81,79.852V19.463h-10.075v-8.261c2.836-0.333,5.538-1.408,8.104-3.223
			c2.565-1.815,4.412-4.015,5.538-6.603h8.26v78.475H729.81z"/>
		<path fill="#325D87" d="M775.429,20.839v-1.939c0-1.919-0.511-3.536-1.533-4.85c-1.023-1.314-2.472-1.972-4.349-1.972
			s-3.328,0.657-4.349,1.972c-1.023,1.313-1.533,2.931-1.533,4.85v15.645c2.711-2.419,5.694-3.629,8.949-3.629
			c5.214,0,9.115,1.814,11.702,5.444c2.294,3.171,3.442,7.571,3.442,13.204v13.454h-0.063c-0.25,5.007-2.055,9.199-5.413,12.578
			c-3.359,3.38-7.479,5.069-12.359,5.069c-5.216,0-9.512-1.855-12.892-5.569c-3.296-3.588-4.943-7.969-4.943-13.142V19.149
			c0-3.838,0.928-7.3,2.785-10.388c1.856-3.087,4.495-5.382,7.916-6.884c2.169-1.001,4.547-1.502,7.134-1.502
			c5.172,0,9.47,1.877,12.891,5.632c3.295,3.589,4.944,7.97,4.944,13.142v1.689H775.429z M763.664,61.767
			c0,1.919,0.482,3.504,1.447,4.756c1.048,1.376,2.516,2.064,4.404,2.064c1.887,0,3.354-0.688,4.404-2.064
			c1.006-1.252,1.51-2.837,1.51-4.756V47.248c0-2.253-0.839-4.131-2.517-5.633c-0.797-0.709-1.909-1.063-3.334-1.063
			c-2.055,0-3.607,0.813-4.655,2.44c-0.839,1.336-1.258,2.816-1.258,4.443V61.767z"/>
	</g>
</g>
<g>
	<rect x="836" y="1.152" fill="none" width="134.5" height="107.6"/>
	<g enable-background="new    ">
		<path fill="#325D87" d="M850.187,79.902V19.325H840.08v-8.286c2.846-0.334,5.556-1.412,8.129-3.232s4.426-4.027,5.556-6.623h8.286
			v78.719H850.187z"/>
		<path fill="#325D87" d="M905.867,1.121v11.927L889.229,79.84h-11.645l16.637-66.792h-24.011V1.121H905.867z"/>
	</g>
</g>
<g>
	<rect x="956" y="1.36" fill="none" width="134.5" height="107.6"/>
	<g enable-background="new    ">
		<path fill="#325D87" d="M970.186,80.111V19.534h-10.107v-8.286c2.846-0.334,5.556-1.412,8.129-3.232s4.426-4.027,5.556-6.623
			h8.286v78.719H970.186z"/>
		<path fill="#325D87" d="M1030.95,62.158c0,5.231-1.842,9.667-5.524,13.308c-3.683,3.642-8.12,5.462-13.308,5.462h-0.942
			c-5.232,0-9.667-1.842-13.308-5.524c-3.641-3.682-5.461-8.098-5.461-13.245v-7.156c0-4.813,1.611-9.018,4.834-12.618
			c1.381-1.548,2.991-2.824,4.833-3.829c-3.181-1.632-5.65-4.352-7.407-8.16c-0.879-1.967-1.318-4.436-1.318-7.407v-4.269
			c0-5.105,1.506-9.332,4.52-12.681c3.348-3.767,7.784-5.649,13.308-5.649h0.942c5.565,0,10.022,1.883,13.371,5.649
			c3.013,3.39,4.52,7.617,4.52,12.681v4.269c0,4.896-1.466,8.956-4.395,12.178c-1.297,1.424-2.741,2.554-4.331,3.39
			c3.515,1.968,6.235,4.959,8.16,8.977c1.004,2.052,1.507,4.542,1.507,7.471V62.158z M1019.462,21.951
			c-0.084-5.383-1.779-8.763-5.084-10.14c-0.753-0.334-1.654-0.5-2.699-0.5c-2.051,0-3.726,0.563-5.022,1.689
			c-1.047,0.918-1.789,2.097-2.229,3.537c-0.439,1.439-0.618,3.243-0.534,5.413c0.125,3.421,0.669,5.883,1.632,7.385
			c1.255,2.003,3.305,3.005,6.152,3.005c2.845,0,4.917-1.063,6.214-3.192C1018.981,27.354,1019.504,24.956,1019.462,21.951z
			 M1019.086,56.571c0-4.687-1.067-7.825-3.202-9.416c-1.004-0.754-2.407-1.13-4.206-1.13c-3.139,0-5.273,1.34-6.403,4.018
			c-0.67,1.632-1.004,3.809-1.004,6.528v3.767c0,2.595,0.795,4.688,2.386,6.277c1.339,1.34,3.013,2.051,5.022,2.134
			c3.222-0.167,5.461-1.758,6.717-4.771c0.46-1.005,0.69-2.218,0.69-3.641V56.571z"/>
	</g>
</g>
<g>
	<rect x="1076" y="1.116" fill="none" width="133.5" height="106.8"/>
	<g enable-background="new    ">
		<path fill="#325D87" d="M1090.081,79.281V19.155h-10.032v-8.225c2.824-0.332,5.514-1.402,8.069-3.209
			c2.555-1.808,4.393-3.998,5.514-6.573h8.225v78.133H1090.081z"/>
		<path fill="#325D87" d="M1129.707,0.151c5.15,0,9.429,1.869,12.835,5.607c3.281,3.573,4.922,7.935,4.922,13.085v42.617
			c0,5.193-1.693,9.596-5.078,13.21c-3.386,3.613-7.612,5.42-12.679,5.42c-5.193,0-9.471-1.848-12.835-5.545
			c-3.282-3.572-4.922-7.934-4.922-13.085v-1.682h12.212v1.932c0,1.911,0.508,3.511,1.526,4.797
			c1.018,1.288,2.461,1.932,4.331,1.932s3.312-0.644,4.33-1.932c1.018-1.286,1.527-2.886,1.527-4.797v-15.64
			c-2.742,2.451-5.712,3.677-8.91,3.677c-5.151,0-9.014-1.808-11.589-5.421c-2.285-3.156-3.427-7.56-3.427-13.209V17.722h0.063
			c0.166-3.613,1.193-6.863,3.084-9.751c1.89-2.887,4.455-5.036,7.695-6.449C1124.909,0.608,1127.215,0.151,1129.707,0.151z
			 M1135.875,18.968c0-1.91-0.509-3.521-1.527-4.829c-1.018-1.308-2.461-1.962-4.33-1.962s-3.313,0.654-4.331,1.962
			c-1.018,1.309-1.526,2.919-1.526,4.829v14.455c0,2.285,0.831,4.175,2.492,5.67c0.748,0.707,1.848,1.06,3.302,1.06
			c2.991,0,4.86-1.578,5.608-4.735c0.207-0.955,0.312-1.683,0.312-2.181V18.968z"/>
	</g>
</g>
<g>
	<rect x="1195.333" y="1.322" fill="none" width="133.417" height="106.734"/>
	<g enable-background="new    ">
		<path fill="#325D87" d="M1199.567,23.396c0-7.388,1.993-13.034,5.978-16.937c3.445-3.445,7.971-5.168,13.575-5.168
			c5.147,0,9.537,1.93,13.17,5.79c3.632,3.861,5.448,8.366,5.448,13.513c0,5.314-1.183,10.44-3.549,15.38
			c-1.287,2.74-4.296,7.452-9.029,14.136c-1.287,1.827-3.197,4.67-5.729,8.53l-2.117,3.176c-1.37,2.076-2.408,3.716-3.114,4.919
			c-0.333,0.616-0.498,0.99-0.498,1.121h23.102v11.52h-37.423V68.581c0-0.249,0.856-1.684,2.569-4.305
			c0.792-1.201,1.688-2.527,2.689-3.978l3.064-4.412c1.786-2.448,4.592-6.37,8.416-11.766c3.615-5.062,6.317-9.647,8.104-13.756
			c1.455-3.36,2.182-6.494,2.182-9.399c0-2.365-0.665-4.379-1.992-6.038c-1.454-1.743-3.322-2.614-5.604-2.614
			c-3.28,0-5.604,1.889-6.974,5.666c-0.457,1.245-0.685,2.74-0.685,4.483v2.989h-11.582V23.396z"/>
		<path fill="#325D87" d="M1282.82,61.63c0,5.189-1.827,9.589-5.479,13.201c-3.653,3.611-8.033,5.417-13.139,5.417
			c-5.19,0-9.6-1.815-13.232-5.448c-3.633-3.633-5.449-8.022-5.449-13.17V19.038c0-5.188,1.826-9.599,5.479-13.232
			c3.653-3.632,8.053-5.448,13.201-5.448c5.188,0,9.589,1.827,13.201,5.479c3.612,3.653,5.417,8.055,5.417,13.201V61.63z
			 M1270.616,18.789c0-1.868-0.665-3.466-1.993-4.795c-1.329-1.328-2.926-1.992-4.794-1.992s-3.456,0.664-4.764,1.992
			c-1.308,1.329-1.961,2.927-1.961,4.795v42.654c0,1.867,0.654,3.466,1.961,4.794c1.308,1.329,2.896,1.993,4.764,1.993
			s3.465-0.664,4.794-1.993c1.328-1.328,1.993-2.927,1.993-4.794V18.789z"/>
	</g>
</g>
<g>
	<rect x="1316" y="1.16" fill="none" width="134.75" height="107.8"/>
	<g enable-background="new    ">
		<path fill="#325D87" d="M1320.276,23.456c0-7.462,2.013-13.165,6.038-17.106c3.479-3.479,8.05-5.22,13.71-5.22
			c5.198,0,9.632,1.949,13.301,5.849c3.668,3.899,5.503,8.449,5.503,13.647c0,5.367-1.195,10.545-3.585,15.534
			c-1.3,2.767-4.339,7.526-9.119,14.276c-1.3,1.845-3.229,4.717-5.786,8.615l-2.139,3.208c-1.383,2.097-2.432,3.753-3.145,4.968
			c-0.336,0.622-0.503,1-0.503,1.133h23.333v11.635h-37.797V69.092c0-0.251,0.865-1.701,2.594-4.348
			c0.8-1.213,1.705-2.553,2.716-4.018l3.094-4.456c1.804-2.473,4.638-6.434,8.5-11.883c3.651-5.112,6.38-9.744,8.186-13.894
			c1.469-3.395,2.204-6.56,2.204-9.494c0-2.389-0.671-4.422-2.012-6.098c-1.468-1.761-3.355-2.641-5.66-2.641
			c-3.313,0-5.66,1.908-7.044,5.723c-0.462,1.258-0.692,2.768-0.692,4.528v3.019h-11.698V23.456z"/>
		<path fill="#325D87" d="M1377.128,80.058V19.368h-10.125v-8.302c2.851-0.335,5.566-1.415,8.145-3.238
			c2.578-1.824,4.434-4.035,5.565-6.636h8.302v78.865H1377.128z"/>
	</g>
</g>
<g>
	<rect x="1436.033" y="1.017" fill="none" width="133.217" height="106.574"/>
	<g enable-background="new    ">
		<path fill="#325D87" d="M1440.262,23.06c0-7.377,1.988-13.015,5.969-16.911c3.439-3.44,7.958-5.161,13.554-5.161
			c5.14,0,9.522,1.928,13.149,5.783c3.627,3.854,5.441,8.353,5.441,13.491c0,5.307-1.182,10.426-3.545,15.357
			c-1.285,2.736-4.289,7.44-9.016,14.114c-1.285,1.824-3.191,4.663-5.719,8.518l-2.115,3.171c-1.367,2.073-2.404,3.71-3.108,4.912
			c-0.332,0.615-0.497,0.988-0.497,1.119h23.066v11.502h-37.367V68.177c0-0.249,0.855-1.682,2.564-4.299
			c0.791-1.199,1.686-2.522,2.686-3.972l3.06-4.405c1.784-2.444,4.585-6.36,8.403-11.747c3.609-5.055,6.308-9.634,8.092-13.736
			c1.453-3.355,2.18-6.484,2.18-9.386c0-2.361-0.664-4.371-1.99-6.028c-1.451-1.74-3.316-2.61-5.596-2.61
			c-3.274,0-5.596,1.887-6.963,5.657c-0.457,1.244-0.684,2.736-0.684,4.477v2.984h-11.564V23.06z"/>
		<path fill="#325D87" d="M1484.717,23.06c0-7.377,1.989-13.015,5.969-16.911c3.439-3.44,7.959-5.161,13.555-5.161
			c5.139,0,9.521,1.928,13.149,5.783c3.626,3.854,5.44,8.353,5.44,13.491c0,5.307-1.182,10.426-3.544,15.357
			c-1.285,2.736-4.29,7.44-9.016,14.114c-1.285,1.824-3.192,4.663-5.72,8.518l-2.114,3.171c-1.368,2.073-2.404,3.71-3.108,4.912
			c-0.332,0.615-0.498,0.988-0.498,1.119h23.067v11.502h-37.367V68.177c0-0.249,0.854-1.682,2.564-4.299
			c0.791-1.199,1.686-2.522,2.686-3.972l3.06-4.405c1.783-2.444,4.585-6.36,8.402-11.747c3.61-5.055,6.309-9.634,8.093-13.736
			c1.452-3.355,2.179-6.484,2.179-9.386c0-2.361-0.663-4.371-1.989-6.028c-1.451-1.74-3.316-2.61-5.596-2.61
			c-3.274,0-5.596,1.887-6.964,5.657c-0.456,1.244-0.684,2.736-0.684,4.477v2.984h-11.564V23.06z"/>
	</g>
</g>
<g>
	<rect x="1556" y="1.325" fill="none" width="133.5" height="106.8"/>
	<g enable-background="new    ">
		<path fill="#325D87" d="M1560.236,23.414c0-7.394,1.994-13.043,5.982-16.948c3.447-3.447,7.975-5.171,13.582-5.171
			c5.15,0,9.543,1.932,13.179,5.794c3.634,3.863,5.452,8.371,5.452,13.521c0,5.317-1.184,10.446-3.552,15.39
			c-1.288,2.741-4.3,7.456-9.034,14.144c-1.289,1.828-3.199,4.673-5.732,8.536l-2.119,3.178c-1.371,2.077-2.409,3.718-3.115,4.922
			c-0.333,0.616-0.498,0.99-0.498,1.122h23.115v11.526h-37.446V68.626c0-0.249,0.856-1.685,2.57-4.308
			c0.792-1.201,1.688-2.528,2.69-3.979l3.066-4.415c1.787-2.45,4.595-6.374,8.421-11.772c3.618-5.065,6.321-9.653,8.11-13.765
			c1.455-3.363,2.184-6.499,2.184-9.406c0-2.366-0.666-4.381-1.994-6.041c-1.455-1.744-3.324-2.616-5.607-2.616
			c-3.282,0-5.607,1.891-6.979,5.67c-0.458,1.246-0.686,2.741-0.686,4.486v2.99h-11.59V23.414z"/>
		<path fill="#325D87" d="M1617.559,13.133v16.761c1.167-1.661,2.811-2.948,4.935-3.863c1.125-0.456,2.438-0.685,3.937-0.685
			c5.163,0,8.976,1.807,11.433,5.42c2.124,3.116,3.186,7.52,3.186,13.21v16.822c0,5.774-1.828,10.51-5.482,14.206
			c-3.489,3.573-7.893,5.358-13.209,5.358c-5.151,0-9.43-1.869-12.836-5.607c-3.281-3.572-4.922-7.934-4.922-13.085v-1.869
			l11.277-0.872l0.25,2.68c0.289,3.115,1.557,5.192,3.801,6.23c0.664,0.333,1.37,0.498,2.118,0.498c4.817,0,7.228-2.513,7.228-7.539
			V41.67c0-2.284-0.836-4.175-2.506-5.67c-0.793-0.706-1.9-1.06-3.32-1.06c-2.088,0-3.633,0.811-4.635,2.43
			c-0.835,1.413-1.253,2.908-1.253,4.486v2.119h-11.776V1.295h34.456v11.838H1617.559z"/>
	</g>
</g>
<g>
	<rect x="1675.333" y="1.34" fill="none" width="133.917" height="107.134"/>
	<g enable-background="new    ">
		<path fill="#325D87" d="M1679.583,23.497c0-7.416,2-13.083,6.001-17c3.457-3.458,8-5.188,13.625-5.188
			c5.166,0,9.572,1.938,13.219,5.813c3.646,3.875,5.469,8.396,5.469,13.563c0,5.334-1.188,10.48-3.563,15.438
			c-1.292,2.75-4.313,7.479-9.063,14.188c-1.292,1.834-3.209,4.688-5.75,8.563l-2.125,3.188c-1.375,2.085-2.418,3.73-3.125,4.938
			c-0.334,0.618-0.5,0.993-0.5,1.125h23.188v11.563h-37.563V68.852c0-0.25,0.859-1.69,2.578-4.321
			c0.795-1.205,1.694-2.537,2.7-3.993l3.074-4.429c1.793-2.457,4.609-6.394,8.447-11.809c3.629-5.081,6.342-9.684,8.136-13.808
			c1.46-3.374,2.19-6.52,2.19-9.436c0-2.374-0.667-4.395-2-6.061c-1.459-1.749-3.334-2.624-5.625-2.624
			c-3.293,0-5.625,1.896-7,5.688c-0.459,1.25-0.688,2.75-0.688,4.5v3h-11.626V23.497z"/>
		<path fill="#325D87" d="M1749.023,20.81v-1.938c0-1.916-0.512-3.531-1.531-4.844c-1.022-1.313-2.47-1.969-4.345-1.969
			s-3.323,0.656-4.344,1.969c-1.021,1.313-1.531,2.928-1.531,4.844v15.626c2.708-2.416,5.688-3.625,8.938-3.625
			c5.208,0,9.104,1.813,11.688,5.438c2.291,3.167,3.438,7.563,3.438,13.188v13.438h-0.063c-0.25,5-2.053,9.188-5.406,12.563
			c-3.355,3.375-7.469,5.063-12.345,5.063c-5.209,0-9.5-1.854-12.875-5.563c-3.292-3.583-4.938-7.958-4.938-13.126V19.122
			c0-3.833,0.928-7.291,2.781-10.375c1.854-3.083,4.49-5.375,7.907-6.875c2.166-1,4.541-1.5,7.125-1.5
			c5.167,0,9.458,1.875,12.876,5.625c3.291,3.584,4.938,7.959,4.938,13.125v1.688H1749.023z M1737.272,61.686
			c0,1.918,0.481,3.501,1.445,4.751c1.047,1.375,2.513,2.063,4.398,2.063c1.885,0,3.351-0.688,4.399-2.063
			c1.004-1.25,1.508-2.833,1.508-4.751v-14.5c0-2.25-0.838-4.125-2.515-5.625c-0.796-0.708-1.906-1.063-3.33-1.063
			c-2.053,0-3.603,0.813-4.649,2.438c-0.838,1.334-1.257,2.813-1.257,4.438V61.686z"/>
	</g>
</g>
<g>
	<rect x="1795.667" y="1.07" fill="none" width="134.689" height="107.751"/>
	<g enable-background="new    ">
		<path fill="#325D87" d="M1799.941,23.354c0-7.459,2.012-13.158,6.035-17.099c3.479-3.478,8.047-5.217,13.703-5.217
			c5.197,0,9.629,1.948,13.296,5.846s5.501,8.445,5.501,13.641c0,5.365-1.195,10.541-3.584,15.527
			c-1.299,2.766-4.337,7.522-9.115,14.27c-1.299,1.845-3.227,4.715-5.783,8.612l-2.137,3.206c-1.383,2.096-2.432,3.751-3.143,4.966
			c-0.336,0.622-0.504,0.999-0.504,1.132h23.322v11.63h-37.78V68.97c0-0.251,0.864-1.7,2.593-4.346
			c0.8-1.212,1.705-2.551,2.715-4.016l3.094-4.454c1.803-2.472,4.636-6.431,8.496-11.877c3.65-5.111,6.377-9.74,8.182-13.888
			c1.469-3.393,2.203-6.557,2.203-9.489c0-2.388-0.671-4.42-2.012-6.096c-1.467-1.76-3.354-2.64-5.657-2.64
			c-3.312,0-5.657,1.907-7.04,5.721c-0.463,1.257-0.692,2.766-0.692,4.526v3.017h-11.692V23.354z"/>
		<path fill="#325D87" d="M1879.432,1.039v11.943l-16.66,66.886h-11.661l16.661-66.886h-24.045V1.039H1879.432z"/>
	</g>
</g>
<g>
	<rect x="1914.667" y="0.5" fill="none" width="175" height="140"/>
</g>
<g>
	<rect x="1915.667" y="2.11" fill="none" width="132.083" height="105.666"/>
	<g enable-background="new    ">
		<path fill="#325D87" d="M1937.796,68.349c5.342,0,8.015-2.482,8.015-7.451v-4.556c0-7.924-4.152-11.886-12.453-11.886V34.48
			c4.479,0,7.787-1.251,9.925-3.756c1.973-2.258,2.959-5.419,2.959-9.483v-1.786c0-5.049-2.22-7.573-6.657-7.573
			c-2.467,0-4.275,0.939-5.426,2.819c-0.862,1.43-1.294,3.289-1.294,5.575V22.3h-11.404v-1.788c0-5.507,1.396-9.986,4.192-13.438
			c3.164-3.945,7.622-5.918,13.377-5.918c5.465,0,9.842,1.85,13.13,5.548c2.959,3.329,4.438,7.48,4.438,12.452v3.268
			c0,4.809-1.439,8.96-4.314,12.452c-1.233,1.479-2.672,2.734-4.316,3.761c3.453,1.933,6.124,4.87,8.015,8.815
			c0.986,2.014,1.479,4.46,1.479,7.336v6.103c0,5.713-1.953,10.398-5.856,14.056c-3.74,3.535-8.24,5.302-13.501,5.302
			c-5.137,0-9.492-1.809-13.068-5.425c-3.575-3.616-5.363-7.953-5.363-13.008v-1.911l11.096-0.863l0.247,2.713
			c0.164,1.933,0.853,3.514,2.065,4.747C1934.291,67.732,1935.863,68.349,1937.796,68.349z"/>
		<path fill="#325D87" d="M2002.314,61.814c0,5.138-1.81,9.493-5.426,13.069c-3.617,3.575-7.952,5.363-13.007,5.363
			c-5.138,0-9.505-1.798-13.101-5.395c-3.596-3.596-5.394-7.941-5.394-13.038V19.648c0-5.137,1.808-9.503,5.425-13.1
			c3.616-3.596,7.973-5.394,13.069-5.394c5.137,0,9.493,1.809,13.069,5.425c3.574,3.616,5.363,7.974,5.363,13.068V61.814z
			 M1990.23,19.402c0-1.85-0.657-3.431-1.973-4.747c-1.314-1.314-2.896-1.973-4.746-1.973s-3.422,0.658-4.716,1.973
			c-1.294,1.316-1.942,2.897-1.942,4.747V61.63c0,1.85,0.648,3.432,1.942,4.746c1.294,1.316,2.866,1.973,4.716,1.973
			s3.432-0.656,4.746-1.973c1.315-1.314,1.973-2.896,1.973-4.746V19.402z"/>
	</g>
</g>
<g>
	<rect x="2036.083" y="1.113" fill="none" width="133.417" height="106.734"/>
	<g enable-background="new    ">
		<path fill="#325D87" d="M2050.156,79.229V19.141h-10.026v-8.22c2.823-0.332,5.512-1.401,8.065-3.207
			c2.553-1.806,4.39-3.994,5.511-6.569h8.22v78.085H2050.156z"/>
	</g>
</g>
<g>
	<rect x="2155.512" y="0.942" fill="none" width="134.488" height="107.59"/>
	<text transform="matrix(1 0 0 1 2155.5117 79.6855)" fill="#A2B3D7" font-family="'Bebas'" font-size="88.3778"> </text>
	<g enable-background="new    ">
		<path fill="#325D87" d="M2167.938,23.194c0-7.448,2.01-13.14,6.026-17.073c3.474-3.473,8.034-5.21,13.684-5.21
			c5.188,0,9.613,1.946,13.275,5.838c3.661,3.892,5.492,8.433,5.492,13.62c0,5.357-1.192,10.524-3.577,15.504
			c-1.298,2.762-4.332,7.512-9.102,14.249c-1.298,1.842-3.223,4.707-5.775,8.599l-2.134,3.201c-1.381,2.093-2.427,3.746-3.138,4.959
			c-0.336,0.621-0.503,0.997-0.503,1.13h23.287v11.612h-37.724V68.741c0-0.251,0.863-1.697,2.589-4.34
			c0.798-1.21,1.702-2.547,2.711-4.009l3.089-4.448c1.801-2.468,4.629-6.421,8.482-11.859c3.645-5.103,6.369-9.725,8.17-13.867
			c1.467-3.387,2.2-6.546,2.2-9.475c0-2.384-0.67-4.413-2.009-6.087c-1.465-1.756-3.348-2.635-5.648-2.635
			c-3.307,0-5.649,1.904-7.03,5.712c-0.461,1.255-0.69,2.762-0.69,4.52v3.013h-11.676V23.194z"/>
	</g>
</g>
<g>
	<rect x="2276.846" y="1.695" fill="none" width="132.154" height="105.723"/>
	<g enable-background="new    ">
		<path fill="#325D87" d="M2298.988,67.97c5.346,0,8.019-2.484,8.019-7.455v-4.559c0-7.928-4.153-11.892-12.46-11.892v-9.981
			c4.482,0,7.793-1.252,9.932-3.758c1.973-2.259,2.96-5.422,2.96-9.488V19.05c0-5.052-2.22-7.578-6.661-7.578
			c-2.467,0-4.277,0.941-5.428,2.821c-0.863,1.431-1.295,3.291-1.295,5.579v2.023h-11.411v-1.788c0-5.51,1.397-9.992,4.194-13.446
			c3.166-3.947,7.627-5.921,13.385-5.921c5.468,0,9.847,1.85,13.137,5.551c2.961,3.331,4.441,7.484,4.441,12.459v3.27
			c0,4.811-1.439,8.964-4.318,12.459c-1.232,1.48-2.673,2.735-4.316,3.763c3.453,1.933,6.126,4.872,8.018,8.819
			c0.987,2.016,1.48,4.462,1.48,7.34v6.106c0,5.716-1.953,10.403-5.859,14.063c-3.742,3.537-8.244,5.305-13.508,5.305
			c-5.141,0-9.498-1.809-13.076-5.428c-3.577-3.618-5.365-7.957-5.365-13.015V59.52l11.102-0.863l0.246,2.714
			c0.164,1.934,0.854,3.516,2.066,4.75C2295.482,67.354,2297.055,67.97,2298.988,67.97z"/>
	</g>
</g>
<g>
	<rect x="2396" y="1.298" fill="none" width="132.75" height="106.2"/>
	<g enable-background="new    ">
		<path fill="#325D87" d="M2423.137,20.599v-1.921c0-1.899-0.506-3.5-1.518-4.802c-1.013-1.301-2.447-1.951-4.306-1.951
			s-3.294,0.65-4.306,1.951c-1.014,1.302-1.519,2.902-1.519,4.802v15.489c2.685-2.395,5.638-3.593,8.86-3.593
			c5.162,0,9.023,1.797,11.586,5.39c2.271,3.14,3.407,7.497,3.407,13.073v13.321h-0.062c-0.248,4.956-2.035,9.107-5.359,12.453
			c-3.326,3.346-7.404,5.019-12.236,5.019c-5.164,0-9.418-1.838-12.764-5.515c-3.264-3.552-4.895-7.889-4.895-13.011V18.926
			c0-3.8,0.918-7.228,2.757-10.285c1.837-3.056,4.45-5.328,7.838-6.814c2.147-0.992,4.501-1.487,7.063-1.487
			c5.121,0,9.375,1.858,12.763,5.576c3.263,3.553,4.895,7.89,4.895,13.011v1.673H2423.137z M2411.489,61.119
			c0,1.9,0.478,3.47,1.433,4.708c1.038,1.363,2.491,2.045,4.36,2.045c1.868,0,3.321-0.682,4.36-2.045
			c0.996-1.238,1.494-2.808,1.494-4.708V46.745c0-2.23-0.83-4.09-2.491-5.576c-0.789-0.702-1.89-1.054-3.302-1.054
			c-2.034,0-3.57,0.806-4.608,2.416c-0.831,1.323-1.246,2.788-1.246,4.399V61.119z"/>
	</g>
</g>
<g>
	<rect x="2515.667" y="1.137" fill="none" width="134.083" height="107.266"/>
	<g enable-background="new    ">
		<path fill="#325D87" d="M2555.279,1.106v11.891l-16.585,66.584h-11.608l16.586-66.584h-23.938V1.106H2555.279z"/>
	</g>
</g>
<g>
	<rect x="2636" y="1.337" fill="none" width="133.833" height="107.066"/>
	<g enable-background="new    ">
		<path fill="#325D87" d="M2650.116,79.697V19.421h-10.057v-8.245c2.832-0.333,5.528-1.405,8.089-3.217
			c2.562-1.812,4.404-4.008,5.528-6.59h8.245v78.328H2650.116z"/>
		<path fill="#325D87" d="M2709.703,61.833c0,5.206-1.833,9.619-5.496,13.242c-3.665,3.623-8.058,5.435-13.18,5.435
			c-5.206,0-9.63-1.821-13.273-5.466c-3.645-3.644-5.466-8.047-5.466-13.211V19.108c0-5.205,1.832-9.629,5.497-13.273
			c3.664-3.644,8.078-5.465,13.242-5.465c5.205,0,9.619,1.832,13.242,5.496c3.622,3.665,5.434,8.079,5.434,13.242V61.833z
			 M2697.461,18.858c0-1.874-0.667-3.477-1.999-4.81c-1.333-1.332-2.936-1.999-4.81-1.999s-3.467,0.667-4.778,1.999
			c-1.312,1.333-1.968,2.936-1.968,4.81v42.787c0,1.874,0.656,3.478,1.968,4.81c1.312,1.333,2.904,1.999,4.778,1.999
			s3.477-0.666,4.81-1.999c1.332-1.332,1.999-2.936,1.999-4.81V18.858z"/>
	</g>
</g>
<g>
	<rect x="236" y="0.849" fill="none" width="135.123" height="108.098"/>
	<g enable-background="new    ">
		<path fill="#325D87" d="M250.253,79.965V19.107h-10.153v-8.324c2.859-0.336,5.582-1.419,8.167-3.248s4.446-4.046,5.581-6.653
			h8.325v79.083H250.253z"/>
		<path fill="#325D87" d="M272.135,23.207c0-7.483,2.018-13.201,6.054-17.154c3.489-3.489,8.072-5.234,13.748-5.234
			c5.212,0,9.659,1.955,13.338,5.865c3.679,3.91,5.519,8.473,5.519,13.686c0,5.382-1.198,10.574-3.595,15.576
			c-1.304,2.775-4.352,7.548-9.145,14.316c-1.304,1.851-3.238,4.729-5.802,8.64l-2.145,3.216c-1.387,2.104-2.438,3.764-3.153,4.982
			c-0.337,0.624-0.504,1.002-0.504,1.135h23.397v11.667h-37.902V68.969c0-0.252,0.867-1.705,2.602-4.36
			c0.802-1.216,1.709-2.559,2.724-4.028l3.103-4.469c1.809-2.479,4.651-6.451,8.523-11.915c3.662-5.127,6.398-9.771,8.208-13.933
			c1.473-3.403,2.21-6.577,2.21-9.52c0-2.396-0.673-4.435-2.018-6.115c-1.472-1.765-3.364-2.647-5.676-2.647
			c-3.322,0-5.676,1.913-7.063,5.738c-0.463,1.262-0.693,2.775-0.693,4.541v3.027h-11.73V23.207z"/>
	</g>
</g>
</svg>
