<?xml version="1.0" encoding="utf-8"?>
<!-- Generator: Adobe Illustrator 17.0.0, SVG Export Plug-In . SVG Version: 6.00 Build 0)  -->
<!DOCTYPE svg PUBLIC "-//W3C//DTD SVG 1.1//EN" "http://www.w3.org/Graphics/SVG/1.1/DTD/svg11.dtd">
<svg version="1.1" id="Capa_1" xmlns="http://www.w3.org/2000/svg" xmlns:xlink="http://www.w3.org/1999/xlink" x="0px" y="0px"
	 width="2760px" height="64.787px" viewBox="0 0 2760 64.787" enable-background="new 0 0 2760 64.787" xml:space="preserve">
<rect fill="none" width="175" height="140"/>
<g enable-background="new    ">
	<path fill="#325D87" d="M6.926,62.25V15.135h-7.86V8.69c2.212-0.26,4.32-1.098,6.322-2.514C7.39,4.761,8.83,3.043,9.709,1.026
		h6.445v61.225C16.154,62.25,6.926,62.25,6.926,62.25z"/>
	<path fill="#325D87" d="M53.502,48.286c0,4.068-1.432,7.519-4.296,10.351c-2.864,2.831-6.298,4.248-10.302,4.248
		c-4.068,0-7.528-1.424-10.375-4.272c-2.849-2.848-4.272-6.29-4.272-10.327V14.892c0-4.068,1.432-7.528,4.295-10.375
		s6.314-4.272,10.351-4.272c4.068,0,7.519,1.432,10.351,4.296s4.248,6.315,4.248,10.351C53.502,14.892,53.502,48.286,53.502,48.286z
		 M43.932,14.696c0-1.464-0.521-2.717-1.562-3.759c-1.042-1.041-2.295-1.562-3.759-1.562c-1.464,0-2.71,0.521-3.736,1.562
		c-1.025,1.042-1.538,2.295-1.538,3.759v33.445c0,1.464,0.513,2.718,1.538,3.759c1.025,1.042,2.27,1.562,3.736,1.562
		c1.464,0,2.717-0.52,3.759-1.562c1.041-1.041,1.562-2.295,1.562-3.759V14.696z"/>
</g>
<g>
	<rect x="116" y="0.608" fill="none" width="104.762" height="83.809"/>
	<g enable-background="new    ">
		<path fill="#325D87" d="M127.051,61.946V14.764h-7.872V8.31c2.216-0.261,4.327-1.1,6.331-2.518s3.447-3.136,4.327-5.159h6.454
			v61.314H127.051z"/>
		<path fill="#325D87" d="M151.741,61.946V14.764h-7.872V8.31c2.216-0.261,4.327-1.1,6.331-2.518
			c2.004-1.418,3.447-3.136,4.327-5.159h6.454v61.314H151.741z"/>
	</g>
</g>
<g>
	<rect x="355.667" y="1.323" fill="none" width="105.166" height="84.134"/>
	<g enable-background="new    ">
		<path fill="#325D87" d="M366.759,62.898V15.533h-7.902V9.054c2.225-0.262,4.344-1.104,6.356-2.528
			c2.013-1.424,3.46-3.15,4.344-5.178h6.479v61.551H366.759z"/>
		<path fill="#325D87" d="M397.827,54.063c4.253,0,6.38-1.977,6.38-5.933v-3.627c0-6.309-3.305-9.463-9.914-9.463v-7.943
			c3.566,0,6.201-0.996,7.902-2.991c1.571-1.797,2.356-4.315,2.356-7.551v-1.422c0-4.02-1.767-6.03-5.301-6.03
			c-1.964,0-3.403,0.748-4.319,2.245c-0.687,1.138-1.032,2.618-1.032,4.44v1.611h-9.08v-1.424c0-4.384,1.112-7.951,3.338-10.7
			c2.519-3.142,6.07-4.712,10.651-4.712c4.352,0,7.837,1.472,10.455,4.417c2.356,2.649,3.534,5.956,3.534,9.915v2.601
			c0,3.828-1.146,7.134-3.436,9.915c-0.983,1.178-2.128,2.177-3.436,2.995c2.748,1.538,4.875,3.878,6.38,7.02
			c0.785,1.603,1.179,3.552,1.179,5.841v4.859c0,4.549-1.555,8.28-4.662,11.191c-2.978,2.814-6.561,4.22-10.75,4.22
			c-4.091,0-7.559-1.439-10.406-4.318c-2.847-2.879-4.27-6.331-4.27-10.357v-1.522l8.835-0.687l0.196,2.16
			c0.13,1.538,0.678,2.798,1.644,3.779C395.037,53.573,396.289,54.063,397.827,54.063z"/>
	</g>
</g>
<g>
	<rect x="476" y="0.803" fill="none" width="105.833" height="84.667"/>
	<g enable-background="new    ">
		<path fill="#325D87" d="M487.163,62.77V15.103h-7.952v-6.52c2.239-0.263,4.371-1.111,6.396-2.543
			c2.025-1.432,3.483-3.168,4.371-5.212h6.52V62.77H487.163L487.163,62.77z"/>
		<path fill="#325D87" d="M503.956,39.999l16.499-39.22h9.335v39.22h5.976v9.385h-5.976v13.337h-9.336V49.384h-16.498
			L503.956,39.999L503.956,39.999z M520.454,39.999V20.653l-7.709,19.345C512.745,39.999,520.454,39.999,520.454,39.999z"/>
	</g>
</g>
<g>
	<rect x="596.5" y="0.709" fill="none" width="104.667" height="83.734"/>
	<g enable-background="new    ">
		<path fill="#325D87" d="M607.54,61.992v-47.14h-7.865V8.403c2.215-0.26,4.323-1.098,6.326-2.516
			c2.003-1.416,3.444-3.134,4.323-5.154h6.448v61.258H607.54L607.54,61.992z"/>
		<path fill="#325D87" d="M634.749,9.967v13.14c0.914-1.302,2.204-2.312,3.868-3.029c0.882-0.358,1.91-0.537,3.086-0.537
			c4.049,0,7.037,1.416,8.964,4.25c1.666,2.443,2.498,5.895,2.498,10.356v13.19c0,4.527-1.433,8.24-4.299,11.137
			c-2.735,2.801-6.187,4.202-10.356,4.202c-4.038,0-7.393-1.466-10.063-4.397c-2.573-2.801-3.86-6.22-3.86-10.259v-1.466
			l8.842-0.685l0.195,2.1c0.227,2.443,1.221,4.072,2.98,4.885c0.521,0.261,1.075,0.391,1.661,0.391c3.778,0,5.666-1.97,5.666-5.91
			V32.34c0-1.791-0.654-3.273-1.965-4.445c-0.622-0.553-1.49-0.83-2.603-0.83c-1.637,0-2.848,0.635-3.634,1.905
			c-0.654,1.108-0.982,2.28-0.982,3.517v1.66h-9.233V0.686h27.014v9.282L634.749,9.967L634.749,9.967z"/>
	</g>
</g>
<g>
	<rect x="715.667" y="2.71" fill="none" width="102.166" height="81.733"/>
	<g enable-background="new    ">
		<path fill="#325D87" d="M726.443,62.528V16.515h-7.676V10.22c2.16-0.254,4.22-1.073,6.175-2.456
			c1.955-1.383,3.361-3.059,4.22-5.031h6.294v59.795H726.443L726.443,62.528z"/>
		<path fill="#325D87" d="M761.203,17.563v-1.477c0-1.462-0.39-2.695-1.168-3.695c-0.779-1.001-1.883-1.502-3.314-1.502
			c-1.431,0-2.536,0.5-3.313,1.502c-0.779,1.001-1.168,2.234-1.168,3.695v11.921c2.066-1.843,4.338-2.765,6.819-2.765
			c3.972,0,6.945,1.382,8.917,4.149c1.748,2.416,2.622,5.769,2.622,10.061v10.252h-0.048c-0.19,3.816-1.566,7.01-4.125,9.584
			c-2.56,2.575-5.699,3.863-9.417,3.863c-3.974,0-7.248-1.414-9.823-4.244c-2.512-2.734-3.767-6.072-3.767-10.014V16.275
			c0-2.925,0.707-5.562,2.122-7.915c1.415-2.352,3.425-4.1,6.032-5.246c1.652-0.763,3.464-1.144,5.436-1.144
			c3.941,0,7.215,1.43,9.822,4.291c2.511,2.735,3.768,6.073,3.768,10.014v1.287L761.203,17.563L761.203,17.563z M752.239,48.749
			c0,1.462,0.368,2.669,1.103,3.624c0.799,1.049,1.917,1.572,3.356,1.572c1.438,0,2.556-0.524,3.356-1.572
			c0.767-0.954,1.151-2.161,1.151-3.624V37.686c0-1.717-0.639-3.148-1.918-4.292c-0.607-0.54-1.455-0.81-2.541-0.81
			c-1.566,0-2.748,0.62-3.547,1.859c-0.639,1.018-0.958,2.146-0.958,3.385L752.239,48.749L752.239,48.749z"/>
	</g>
</g>
<g>
	<rect x="836" y="2.443" fill="none" width="102.5" height="82.001"/>
	<g enable-background="new    ">
		<path fill="#325D87" d="M846.812,62.457V16.291h-7.702V9.977c2.169-0.254,4.234-1.076,6.195-2.463
			c1.961-1.387,3.373-3.069,4.234-5.048h6.315v59.99H846.812L846.812,62.457z"/>
		<path fill="#325D87" d="M889.244,2.419v9.09l-12.679,50.9h-8.875l12.679-50.901h-18.298V2.419H889.244z"/>
	</g>
</g>
<g>
	<rect x="956" y="2.729" fill="none" width="102.143" height="81.714"/>
	<g enable-background="new    ">
		<path fill="#325D87" d="M966.773,62.534V16.53h-7.676v-6.293c2.161-0.254,4.219-1.072,6.174-2.455
			c1.954-1.382,3.361-3.058,4.219-5.03h6.293v59.781H966.773L966.773,62.534z"/>
		<path fill="#325D87" d="M1012.919,48.9c0,3.972-1.399,7.341-4.195,10.106c-2.797,2.765-6.167,4.148-10.106,4.148h-0.715
			c-3.973,0-7.341-1.399-10.106-4.195c-2.766-2.796-4.147-6.15-4.147-10.058v-5.435c0-3.656,1.223-6.848,3.671-9.582
			c1.049-1.176,2.272-2.145,3.67-2.908c-2.416-1.239-4.291-3.305-5.625-6.197c-0.668-1.493-1.001-3.369-1.001-5.625v-3.242
			c0-3.877,1.144-7.087,3.432-9.63c2.542-2.861,5.911-4.29,10.106-4.29h0.715c4.226,0,7.611,1.43,10.154,4.29
			c2.288,2.574,3.432,5.785,3.432,9.63v3.242c0,3.718-1.113,6.801-3.338,9.248c-0.985,1.082-2.081,1.94-3.289,2.574
			c2.669,1.494,4.735,3.766,6.197,6.817c0.762,1.558,1.144,3.45,1.144,5.673L1012.919,48.9L1012.919,48.9z M1004.195,18.366
			c-0.063-4.088-1.351-6.655-3.86-7.701c-0.572-0.254-1.256-0.38-2.05-0.38c-1.558,0-2.83,0.427-3.814,1.283
			c-0.795,0.698-1.359,1.593-1.693,2.687c-0.333,1.093-0.47,2.462-0.405,4.111c0.095,2.598,0.508,4.468,1.239,5.608
			c0.953,1.521,2.509,2.282,4.672,2.282c2.16,0,3.734-0.807,4.719-2.424C1003.829,22.469,1004.226,20.648,1004.195,18.366z
			 M1003.909,44.658c0-3.559-0.81-5.943-2.432-7.15c-0.762-0.573-1.828-0.858-3.194-0.858c-2.383,0-4.005,1.018-4.862,3.051
			c-0.509,1.239-0.762,2.892-0.762,4.957v2.861c0,1.971,0.603,3.56,1.812,4.767c1.017,1.018,2.288,1.558,3.813,1.62
			c2.447-0.127,4.147-1.335,5.101-3.623c0.349-0.763,0.524-1.685,0.524-2.765L1003.909,44.658L1003.909,44.658z"/>
	</g>
</g>
<g>
	<rect x="1076" y="2.977" fill="none" width="101.833" height="81.467"/>
	<g enable-background="new    ">
		<path fill="#325D87" d="M1086.741,62.601V16.737h-7.652v-6.274c2.154-0.253,4.206-1.069,6.154-2.448
			c1.949-1.379,3.351-3.049,4.206-5.014h6.274v59.599C1095.724,62.601,1086.741,62.601,1086.741,62.601z"/>
		<path fill="#325D87" d="M1116.967,2.241c3.928,0,7.193,1.426,9.79,4.277c2.503,2.725,3.754,6.053,3.754,9.982v32.508
			c0,3.962-1.291,7.32-3.873,10.076c-2.583,2.756-5.807,4.134-9.672,4.134c-3.962,0-7.224-1.41-9.79-4.23
			c-2.504-2.724-3.754-6.052-3.754-9.982v-1.283h9.316v1.474c0,1.458,0.388,2.678,1.164,3.659c0.777,0.982,1.878,1.474,3.304,1.474
			c1.427,0,2.526-0.492,3.303-1.474c0.777-0.981,1.164-2.201,1.164-3.659v-11.93c-2.092,1.87-4.357,2.805-6.797,2.805
			c-3.929,0-6.876-1.379-8.84-4.135c-1.743-2.407-2.615-5.767-2.615-10.075V15.644h0.048c0.127-2.756,0.91-5.235,2.352-7.438
			c1.442-2.202,3.398-3.841,5.869-4.919C1113.308,2.589,1115.066,2.241,1116.967,2.241z M1121.672,16.594
			c0-1.457-0.388-2.686-1.165-3.684c-0.777-0.998-1.878-1.497-3.303-1.497s-2.527,0.499-3.304,1.497
			c-0.777,0.998-1.164,2.227-1.164,3.684V27.62c0,1.743,0.634,3.185,1.901,4.325c0.57,0.539,1.41,0.809,2.519,0.809
			c2.281,0,3.707-1.204,4.278-3.612c0.158-0.728,0.238-1.284,0.238-1.663L1121.672,16.594L1121.672,16.594z"/>
	</g>
</g>
<g>
	<rect x="1195.333" y="1.101" fill="none" width="102.834" height="82.267"/>
	<g enable-background="new    ">
		<path fill="#325D87" d="M1198.596,18.115c0-5.694,1.536-10.046,4.608-13.054c2.655-2.655,6.144-3.983,10.463-3.983
			c3.968,0,7.351,1.487,10.151,4.462c2.8,2.976,4.199,6.449,4.199,10.415c0,4.095-0.912,8.046-2.736,11.854
			c-0.992,2.112-3.311,5.744-6.959,10.895c-0.992,1.408-2.465,3.6-4.416,6.574l-1.632,2.448c-1.056,1.6-1.856,2.865-2.4,3.791
			c-0.257,0.475-0.384,0.763-0.384,0.864h17.806v8.879h-28.845v-8.321c0-0.192,0.66-1.298,1.98-3.318
			c0.61-0.926,1.302-1.947,2.072-3.066l2.362-3.401c1.377-1.886,3.54-4.91,6.486-9.069c2.786-3.902,4.869-7.435,6.246-10.603
			c1.121-2.59,1.682-5.006,1.682-7.245c0-1.823-0.512-3.375-1.535-4.654c-1.12-1.343-2.561-2.015-4.319-2.015
			c-2.528,0-4.319,1.456-5.376,4.367c-0.353,0.96-0.528,2.112-0.528,3.455v2.304h-8.927L1198.596,18.115L1198.596,18.115z"/>
		<path fill="#325D87" d="M1262.765,47.584c0,4-1.408,7.391-4.223,10.175c-2.815,2.783-6.192,4.175-10.128,4.175
			c-4,0-7.4-1.399-10.199-4.199c-2.801-2.801-4.2-6.183-4.2-10.151V14.755c0-3.999,1.407-7.399,4.223-10.199
			c2.815-2.8,6.207-4.199,10.175-4.199c3.999,0,7.391,1.408,10.175,4.223s4.175,6.208,4.175,10.175L1262.765,47.584L1262.765,47.584
			z M1253.359,14.564c0-1.44-0.512-2.672-1.536-3.695c-1.025-1.024-2.255-1.535-3.695-1.535s-2.664,0.511-3.672,1.535
			c-1.008,1.025-1.512,2.256-1.512,3.695v32.876c0,1.439,0.505,2.672,1.512,3.695c1.008,1.025,2.232,1.536,3.672,1.536
			s2.671-0.511,3.695-1.536c1.024-1.024,1.536-2.256,1.536-3.695V14.564z"/>
	</g>
</g>
<g>
	<rect x="1316" y="1.153" fill="none" width="103.833" height="83.067"/>
	<g enable-background="new    ">
		<path fill="#325D87" d="M1319.295,18.333c0-5.75,1.551-10.144,4.653-13.181c2.681-2.681,6.203-4.023,10.565-4.023
			c4.005,0,7.422,1.501,10.249,4.507c2.827,3.005,4.24,6.511,4.24,10.516c0,4.136-0.92,8.125-2.762,11.97
			c-1.001,2.132-3.343,5.799-7.027,11c-1.002,1.421-2.488,3.635-4.458,6.639l-1.649,2.472c-1.066,1.616-1.874,2.892-2.424,3.828
			c-0.259,0.48-0.388,0.77-0.388,0.873h17.979v8.966h-29.125v-8.401c0-0.193,0.667-1.31,1.999-3.35
			c0.616-0.935,1.314-1.967,2.092-3.096l2.384-3.434c1.39-1.906,3.574-4.958,6.55-9.157c2.814-3.939,4.916-7.508,6.308-10.706
			c1.132-2.616,1.698-5.055,1.698-7.316c0-1.841-0.517-3.407-1.55-4.699c-1.131-1.357-2.586-2.035-4.361-2.035
			c-2.552,0-4.361,1.47-5.428,4.41c-0.356,0.969-0.533,2.133-0.533,3.489v2.326h-9.013L1319.295,18.333L1319.295,18.333z"/>
		<path fill="#325D87" d="M1363.103,61.949V15.183h-7.802V8.786c2.197-0.258,4.289-1.09,6.277-2.495
			c1.986-1.406,3.416-3.109,4.288-5.114h6.398v60.77L1363.103,61.949L1363.103,61.949z"/>
	</g>
</g>
<g>
	<rect x="1436.033" y="1.01" fill="none" width="104.29" height="83.433"/>
	<g enable-background="new    ">
		<path fill="#325D87" d="M1439.344,18.267c0-5.776,1.557-10.189,4.673-13.239c2.692-2.693,6.23-4.04,10.611-4.04
			c4.024,0,7.454,1.509,10.294,4.528c2.839,3.017,4.26,6.539,4.26,10.562c0,4.154-0.925,8.162-2.776,12.022
			c-1.006,2.142-3.358,5.825-7.058,11.049c-1.006,1.428-2.498,3.65-4.477,6.669l-1.656,2.482c-1.07,1.622-1.882,2.904-2.433,3.846
			c-0.26,0.482-0.389,0.773-0.389,0.876h18.057v9.005h-29.254v-8.438c0-0.194,0.67-1.317,2.007-3.366
			c0.619-0.938,1.32-1.975,2.103-3.109l2.395-3.449c1.397-1.914,3.589-4.979,6.579-9.196c2.825-3.958,4.938-7.542,6.335-10.753
			c1.138-2.627,1.707-5.076,1.707-7.348c0-1.849-0.52-3.422-1.558-4.719c-1.136-1.362-2.596-2.043-4.38-2.043
			c-2.563,0-4.381,1.477-5.452,4.429c-0.358,0.974-0.535,2.142-0.535,3.505v2.336h-9.053L1439.344,18.267L1439.344,18.267z"/>
		<path fill="#325D87" d="M1474.145,18.267c0-5.776,1.557-10.189,4.673-13.239c2.692-2.693,6.23-4.04,10.612-4.04
			c4.023,0,7.453,1.509,10.294,4.528c2.838,3.017,4.259,6.539,4.259,10.562c0,4.154-0.926,8.162-2.775,12.022
			c-1.006,2.142-3.359,5.825-7.058,11.049c-1.006,1.428-2.499,3.65-4.478,6.669l-1.655,2.482c-1.071,1.622-1.882,2.904-2.433,3.846
			c-0.26,0.482-0.39,0.773-0.39,0.876h18.058v9.005h-29.253v-8.438c0-0.194,0.668-1.317,2.007-3.366
			c0.619-0.938,1.32-1.975,2.103-3.109l2.395-3.449c1.396-1.914,3.589-4.979,6.578-9.196c2.826-3.958,4.939-7.542,6.336-10.753
			c1.137-2.627,1.705-5.076,1.705-7.348c0-1.849-0.519-3.422-1.557-4.719c-1.136-1.362-2.596-2.043-4.381-2.043
			c-2.563,0-4.38,1.477-5.452,4.429c-0.357,0.974-0.535,2.142-0.535,3.505v2.336h-9.053L1474.145,18.267L1474.145,18.267z"/>
	</g>
</g>
<g>
	<rect x="1556" y="1.318" fill="none" width="103.905" height="83.125"/>
	<g enable-background="new    ">
		<path fill="#325D87" d="M1559.297,18.51c0-5.755,1.552-10.152,4.656-13.191c2.683-2.683,6.207-4.025,10.571-4.025
			c4.008,0,7.427,1.503,10.257,4.509c2.828,3.007,4.243,6.515,4.243,10.523c0,4.138-0.922,8.13-2.765,11.979
			c-1.003,2.133-3.347,5.804-7.031,11.009c-1.003,1.422-2.49,3.637-4.461,6.643l-1.649,2.473c-1.068,1.617-1.875,2.894-2.424,3.831
			c-0.259,0.479-0.388,0.77-0.388,0.873h17.991v8.971h-29.145v-8.408c0-0.194,0.667-1.312,2-3.353
			c0.617-0.935,1.314-1.968,2.094-3.097l2.386-3.436c1.391-1.907,3.576-4.961,6.554-9.162c2.816-3.942,4.92-7.513,6.312-10.714
			c1.132-2.618,1.7-5.059,1.7-7.321c0-1.842-0.518-3.41-1.552-4.702c-1.132-1.358-2.587-2.036-4.364-2.036
			c-2.554,0-4.364,1.472-5.432,4.413c-0.357,0.97-0.534,2.133-0.534,3.492v2.328h-9.021v-1.6L1559.297,18.51L1559.297,18.51z"/>
		<path fill="#325D87" d="M1603.913,10.508v13.045c0.908-1.292,2.188-2.294,3.841-3.007c0.876-0.355,1.897-0.533,3.065-0.533
			c4.019,0,6.986,1.407,8.899,4.218c1.653,2.425,2.48,5.853,2.48,10.282v13.093c0,4.494-1.422,8.18-4.267,11.057
			c-2.716,2.781-6.143,4.17-10.281,4.17c-4.009,0-7.339-1.455-9.99-4.364c-2.553-2.78-3.831-6.175-3.831-10.184v-1.455l8.777-0.678
			l0.195,2.086c0.225,2.424,1.212,4.041,2.958,4.849c0.517,0.259,1.066,0.388,1.648,0.388c3.749,0,5.626-1.956,5.626-5.868V32.72
			c0-1.778-0.651-3.249-1.95-4.413c-0.617-0.549-1.479-0.825-2.583-0.825c-1.626,0-2.828,0.631-3.607,1.892
			c-0.65,1.1-0.976,2.263-0.976,3.492v1.649h-9.165V1.295h26.818v9.213H1603.913z"/>
	</g>
</g>
<g>
	<rect x="1675.333" y="1.905" fill="none" width="102.5" height="82.001"/>
	<g enable-background="new    ">
		<path fill="#325D87" d="M1678.586,18.864c0-5.676,1.531-10.014,4.594-13.012c2.646-2.647,6.123-3.971,10.429-3.971
			c3.954,0,7.327,1.484,10.118,4.45c2.79,2.966,4.185,6.426,4.185,10.381c0,4.083-0.909,8.021-2.727,11.816
			c-0.989,2.104-3.301,5.724-6.937,10.859c-0.989,1.404-2.456,3.588-4.401,6.554l-1.626,2.441c-1.052,1.596-1.851,2.855-2.392,3.779
			c-0.255,0.473-0.383,0.76-0.383,0.861h17.749v8.85h-28.751v-8.294c0-0.191,0.658-1.293,1.973-3.307
			c0.608-0.922,1.296-1.942,2.067-3.057l2.353-3.39c1.372-1.881,3.528-4.894,6.466-9.038c2.778-3.889,4.854-7.412,6.228-10.569
			c1.117-2.582,1.676-4.99,1.676-7.223c0-1.817-0.51-3.364-1.531-4.639c-1.116-1.339-2.551-2.008-4.305-2.008
			c-2.52,0-4.305,1.452-5.358,4.354c-0.352,0.957-0.526,2.104-0.526,3.444v2.296h-8.899L1678.586,18.864L1678.586,18.864z"/>
		<path fill="#325D87" d="M1731.735,16.807v-1.484c0-1.466-0.391-2.703-1.172-3.707c-0.782-1.005-1.891-1.507-3.326-1.507
			c-1.435,0-2.544,0.502-3.325,1.507s-1.172,2.241-1.172,3.707v11.96c2.072-1.849,4.354-2.775,6.841-2.775
			c3.986,0,6.968,1.387,8.946,4.162c1.754,2.424,2.631,5.789,2.631,10.095V49.05h-0.049c-0.191,3.827-1.571,7.032-4.138,9.616
			c-2.568,2.583-5.717,3.876-9.448,3.876c-3.987,0-7.271-1.419-9.854-4.258c-2.52-2.743-3.779-6.091-3.779-10.047V15.514
			c0-2.934,0.71-5.581,2.129-7.941c1.42-2.36,3.436-4.114,6.052-5.262c1.658-0.766,3.476-1.148,5.453-1.148
			c3.955,0,7.239,1.435,9.856,4.305c2.519,2.743,3.779,6.092,3.779,10.046v1.292L1731.735,16.807L1731.735,16.807z M1722.742,48.093
			c0,1.468,0.368,2.68,1.106,3.637c0.801,1.052,1.924,1.579,3.366,1.579c1.443,0,2.565-0.527,3.367-1.579
			c0.769-0.957,1.154-2.169,1.154-3.637V36.995c0-1.723-0.641-3.158-1.925-4.305c-0.609-0.542-1.459-0.813-2.548-0.813
			c-1.571,0-2.757,0.622-3.558,1.866c-0.641,1.021-0.962,2.153-0.962,3.397L1722.742,48.093L1722.742,48.093z"/>
	</g>
</g>
<g>
	<rect x="1795.667" y="1.062" fill="none" width="103.556" height="82.844"/>
	<g enable-background="new    ">
		<path fill="#325D87" d="M1798.953,18.195c0-5.735,1.547-10.116,4.64-13.147c2.675-2.674,6.187-4.012,10.536-4.012
			c3.996,0,7.403,1.498,10.223,4.494c2.82,2.997,4.229,6.493,4.229,10.488c0,4.125-0.919,8.105-2.756,11.938
			c-0.998,2.126-3.334,5.783-7.008,10.971c-0.998,1.418-2.481,3.625-4.447,6.622l-1.644,2.465c-1.063,1.611-1.87,2.884-2.417,3.818
			c-0.258,0.478-0.388,0.768-0.388,0.87h17.932v8.942h-29.047v-8.378c0-0.193,0.664-1.307,1.993-3.341
			c0.615-0.931,1.31-1.961,2.087-3.088l2.379-3.425c1.386-1.901,3.565-4.944,6.532-9.131c2.806-3.93,4.903-7.489,6.291-10.678
			c1.13-2.609,1.694-5.041,1.694-7.296c0-1.836-0.516-3.399-1.547-4.687c-1.128-1.353-2.579-2.03-4.35-2.03
			c-2.547,0-4.35,1.466-5.413,4.398c-0.355,0.966-0.532,2.126-0.532,3.48v2.32h-8.99L1798.953,18.195L1798.953,18.195z"/>
		<path fill="#325D87" d="M1860.069,1.039v9.182l-12.809,51.426h-8.965l12.81-51.426h-18.487V1.039H1860.069z"/>
	</g>
</g>
<g>
	<rect x="1914.667" y="0.5" fill="none" width="175" height="140"/>
</g>
<g>
	<rect x="1915.667" y="1.896" fill="none" width="102.5" height="81.999"/>
	<g enable-background="new    ">
		<path fill="#325D87" d="M1932.84,53.298c4.145,0,6.22-1.926,6.22-5.782V43.98c0-6.149-3.222-9.224-9.663-9.224v-7.741
			c3.476,0,6.043-0.971,7.702-2.915c1.531-1.752,2.296-4.205,2.296-7.359v-1.386c0-3.919-1.722-5.877-5.166-5.877
			c-1.915,0-3.317,0.729-4.211,2.187c-0.669,1.109-1.005,2.552-1.005,4.327v1.57h-8.85v-1.388c0-4.274,1.083-7.75,3.254-10.428
			c2.455-3.061,5.915-4.592,10.38-4.592c4.241,0,7.638,1.436,10.189,4.305c2.296,2.584,3.444,5.805,3.444,9.663v2.536
			c0,3.732-1.116,6.953-3.348,9.663c-0.956,1.148-2.074,2.122-3.35,2.919c2.68,1.5,4.752,3.779,6.22,6.84
			c0.765,1.563,1.148,3.461,1.148,5.693v4.736c0,4.433-1.516,8.07-4.544,10.908c-2.902,2.743-6.394,4.115-10.478,4.115
			c-3.986,0-7.366-1.404-10.141-4.21c-2.774-2.806-4.162-6.172-4.162-10.094v-1.483l8.611-0.67l0.191,2.105
			c0.127,1.5,0.662,2.727,1.603,3.684C1930.12,52.82,1931.339,53.298,1932.84,53.298z"/>
		<path fill="#325D87" d="M1982.907,48.227c0,3.987-1.405,7.367-4.211,10.142c-2.807,2.774-6.171,4.162-10.094,4.162
			c-3.987,0-7.376-1.396-10.167-4.186c-2.791-2.791-4.186-6.163-4.186-10.118V15.506c0-3.986,1.403-7.374,4.21-10.166
			c2.806-2.791,6.187-4.186,10.142-4.186c3.986,0,7.367,1.404,10.142,4.21c2.774,2.806,4.162,6.188,4.162,10.141v32.722
			C1982.905,48.227,1982.907,48.227,1982.907,48.227z M1973.53,15.315c0-1.436-0.51-2.662-1.531-3.684
			c-1.02-1.02-2.247-1.531-3.683-1.531c-1.436,0-2.655,0.511-3.66,1.531c-1.004,1.021-1.507,2.248-1.507,3.684v32.769
			c0,1.436,0.503,2.663,1.507,3.683c1.005,1.021,2.224,1.531,3.66,1.531c1.436,0,2.663-0.509,3.683-1.531
			c1.02-1.02,1.531-2.247,1.531-3.683V15.315z"/>
	</g>
</g>
<g>
	<rect x="2036.083" y="1.113" fill="none" width="103.417" height="82.734"/>
	<g enable-background="new    ">
		<path fill="#325D87" d="M2046.992,61.664V15.087h-7.772V8.716c2.189-0.257,4.272-1.086,6.251-2.486
			c1.979-1.4,3.403-3.096,4.271-5.092h6.372v60.526L2046.992,61.664L2046.992,61.664z"/>
	</g>
</g>
<g>
	<rect x="2155.512" y="0.02" fill="none" width="108.517" height="86.813"/>
	<text transform="matrix(1 0 0 1 2155.5117 63.5577)" fill="#A2B3D7" font-family="'Bebas'" font-size="71.311"> </text>
	<g enable-background="new    ">
		<path fill="#325D87" d="M2165.538,17.975c0-6.01,1.622-10.603,4.862-13.776c2.803-2.802,6.483-4.204,11.042-4.204
			c4.186,0,7.757,1.57,10.711,4.711c2.954,3.14,4.431,6.804,4.431,10.99c0,4.322-0.962,8.492-2.886,12.51
			c-1.047,2.229-3.495,6.061-7.344,11.497c-1.047,1.486-2.601,3.798-4.66,6.938l-1.722,2.583c-1.115,1.689-1.958,3.023-2.532,4.001
			c-0.271,0.501-0.406,0.804-0.406,0.912h18.79v9.37h-30.439v-8.781c0-0.203,0.697-1.369,2.089-3.502
			c0.644-0.976,1.373-2.055,2.188-3.235l2.493-3.589c1.453-1.991,3.735-5.181,6.844-9.569c2.941-4.118,5.139-7.847,6.592-11.189
			c1.184-2.733,1.775-5.282,1.775-7.645c0-1.924-0.541-3.561-1.621-4.912c-1.182-1.417-2.701-2.126-4.557-2.126
			c-2.668,0-4.558,1.536-5.673,4.609c-0.372,1.013-0.557,2.229-0.557,3.647v2.431h-9.421L2165.538,17.975L2165.538,17.975z"/>
	</g>
</g>
<g>
	<rect x="2276.846" y="1.501" fill="none" width="105.321" height="84.256"/>
	<g enable-background="new    ">
		<path fill="#325D87" d="M2294.492,54.319c4.26,0,6.391-1.98,6.391-5.941v-3.633c0-6.318-3.31-9.477-9.93-9.477v-7.954
			c3.572,0,6.211-0.998,7.915-2.995c1.572-1.8,2.359-4.321,2.359-7.561v-1.424c0-4.026-1.769-6.039-5.308-6.039
			c-1.966,0-3.409,0.75-4.326,2.248c-0.688,1.14-1.032,2.623-1.032,4.446V17.6h-9.094v-1.425c0-4.391,1.113-7.963,3.342-10.716
			c2.523-3.146,6.078-4.719,10.667-4.719c4.358,0,7.848,1.474,10.47,4.424c2.36,2.655,3.539,5.964,3.539,9.929v2.606
			c0,3.834-1.147,7.144-3.441,9.929c-0.982,1.179-2.13,2.18-3.439,2.999c2.752,1.541,4.882,3.883,6.39,7.028
			c0.787,1.607,1.18,3.556,1.18,5.85v4.866c0,4.555-1.556,8.291-4.669,11.208c-2.982,2.819-6.57,4.228-10.765,4.228
			c-4.097,0-7.57-1.442-10.421-4.326c-2.851-2.883-4.276-6.341-4.276-10.372v-1.524l8.848-0.688l0.196,2.163
			c0.131,1.541,0.68,2.802,1.646,3.786C2291.698,53.828,2292.951,54.319,2294.492,54.319z"/>
	</g>
</g>
<g>
	<rect x="2396" y="1.104" fill="none" width="105.833" height="84.667"/>
	<g enable-background="new    ">
		<path fill="#325D87" d="M2417.635,16.491V14.96c0-1.514-0.403-2.79-1.21-3.828c-0.808-1.037-1.951-1.555-3.433-1.555
			s-2.626,0.518-3.433,1.555c-0.808,1.038-1.211,2.314-1.211,3.828v12.348c2.141-1.909,4.495-2.864,7.063-2.864
			c4.115,0,7.194,1.433,9.237,4.297c1.811,2.503,2.716,5.977,2.716,10.422v10.62h-0.049c-0.198,3.951-1.622,7.26-4.272,9.928
			c-2.652,2.668-5.903,4.001-9.755,4.001c-4.117,0-7.508-1.465-10.176-4.397c-2.602-2.832-3.903-6.289-3.903-10.373V15.157
			c0-3.03,0.732-5.762,2.198-8.2c1.465-2.436,3.548-4.248,6.249-5.432c1.712-0.791,3.588-1.185,5.631-1.185
			c4.083,0,7.474,1.481,10.175,4.445c2.601,2.833,3.902,6.29,3.902,10.373v1.334L2417.635,16.491L2417.635,16.491z M2408.348,48.795
			c0,1.515,0.381,2.766,1.143,3.753c0.828,1.087,1.986,1.63,3.476,1.63c1.489,0,2.647-0.544,3.476-1.63
			c0.794-0.987,1.191-2.239,1.191-3.753V37.336c0-1.778-0.662-3.261-1.986-4.445c-0.629-0.56-1.507-0.84-2.633-0.84
			c-1.622,0-2.846,0.643-3.674,1.926c-0.663,1.055-0.993,2.223-0.993,3.507V48.795L2408.348,48.795z"/>
	</g>
</g>
<g>
	<rect x="2515.667" y="1.131" fill="none" width="106.166" height="84.933"/>
	<g enable-background="new    ">
		<path fill="#325D87" d="M2547.031,1.106v9.415L2533.9,63.242h-9.191l13.133-52.721h-18.954V1.106H2547.031z"/>
	</g>
</g>
<g>
	<rect x="2636" y="1.137" fill="none" width="106.158" height="84.926"/>
	<g enable-background="new    ">
		<path fill="#325D87" d="M2647.197,63.293V15.482h-7.977v-6.54c2.246-0.264,4.385-1.114,6.416-2.552
			c2.032-1.437,3.493-3.179,4.385-5.227h6.54v62.131C2656.561,63.293,2647.197,63.293,2647.197,63.293z"/>
		<path fill="#325D87" d="M2694.462,49.123c0,4.129-1.454,7.63-4.36,10.504c-2.907,2.874-6.392,4.311-10.455,4.311
			c-4.129,0-7.638-1.444-10.528-4.336c-2.891-2.89-4.336-6.383-4.336-10.479v-33.89c0-4.129,1.453-7.638,4.36-10.528
			c2.906-2.89,6.407-4.335,10.504-4.335c4.129,0,7.63,1.453,10.504,4.36c2.873,2.907,4.311,6.408,4.311,10.504L2694.462,49.123
			L2694.462,49.123z M2684.752,15.035c0-1.486-0.529-2.758-1.586-3.815s-2.329-1.586-3.815-1.586s-2.75,0.529-3.79,1.586
			c-1.041,1.057-1.561,2.329-1.561,3.815v33.939c0,1.486,0.52,2.759,1.561,3.815c1.041,1.057,2.303,1.586,3.79,1.586
			s2.758-0.528,3.815-1.586c1.057-1.057,1.586-2.329,1.586-3.815V15.035z"/>
	</g>
</g>
<g>
	<rect x="236" y="0.842" fill="none" width="105.833" height="84.666"/>
	<g enable-background="new    ">
		<path fill="#325D87" d="M247.164,62.809V15.143h-7.953v-6.52c2.24-0.263,4.372-1.111,6.397-2.544
			c2.024-1.432,3.482-3.169,4.372-5.211h6.52v61.94L247.164,62.809L247.164,62.809z"/>
		<path fill="#325D87" d="M264.302,18.354c0-5.861,1.58-10.339,4.741-13.436c2.733-2.733,6.323-4.1,10.768-4.1
			c4.082,0,7.565,1.531,10.447,4.594s4.323,6.637,4.323,10.72c0,4.215-0.938,8.282-2.816,12.2
			c-1.021,2.173-3.409,5.912-7.163,11.213c-1.021,1.45-2.536,3.704-4.545,6.767l-1.68,2.518c-1.086,1.648-1.91,2.948-2.47,3.902
			c-0.264,0.489-0.394,0.785-0.394,0.889h18.325v9.138h-29.686v-8.563c0-0.198,0.679-1.336,2.038-3.415
			c0.628-0.952,1.339-2.004,2.134-3.154l2.43-3.5c1.417-1.941,3.643-5.053,6.676-9.332c2.868-4.015,5.012-7.653,6.429-10.912
			c1.154-2.665,1.731-5.151,1.731-7.457c0-1.877-0.527-3.473-1.58-4.789c-1.153-1.383-2.635-2.073-4.446-2.073
			c-2.602,0-4.446,1.498-5.532,4.494c-0.363,0.988-0.543,2.173-0.543,3.557v2.371h-9.187L264.302,18.354L264.302,18.354z"/>
	</g>
</g>
</svg>
