<?xml version="1.0" encoding="utf-8"?>
<!-- Generator: Adobe Illustrator 17.0.0, SVG Export Plug-In . SVG Version: 6.00 Build 0)  -->
<!DOCTYPE svg PUBLIC "-//W3C//DTD SVG 1.1//EN" "http://www.w3.org/Graphics/SVG/1.1/DTD/svg11.dtd">
<svg version="1.1" id="Capa_1" xmlns="http://www.w3.org/2000/svg" xmlns:xlink="http://www.w3.org/1999/xlink" x="0px" y="0px"
	 width="1199.5px" height="100px" viewBox="0 0 1199.5 100" enable-background="new 0 0 1199.5 100" xml:space="preserve">
<rect fill="none" width="175" height="140"/>
<g enable-background="new    ">
	<path fill="#1D3E66" d="M18.051,77.005l-3.589,22.51H-0.919L15.73,1.582h20.32l16.412,97.933H36.93l-3.456-22.51H18.051z
		 M25.811,24.014l-5.471,38.61h10.942L25.811,24.014z"/>
</g>
<rect x="113" y="1.401" fill="none" width="122.481" height="97.985"/>
<g enable-background="new    ">
	<path fill="#1D3E66" d="M118.079,99.306V1.295h22.119c5.835,0,11.099,1.537,15.788,4.611c4.012,2.606,6.878,6.644,8.597,12.114
		c0.938,2.919,1.407,6.384,1.407,10.396c0,6.565-1.746,11.829-5.236,15.788c-1.459,1.668-3.179,2.944-5.159,3.83
		c3.283,1.25,6.07,3.726,8.363,7.425c1.51,2.501,2.63,5.732,3.361,9.691c0.364,2.032,0.547,4.299,0.547,6.8
		c0,6.201-1.172,11.464-3.517,15.788c-1.825,3.388-4.404,6.097-7.738,8.128c-3.751,2.294-7.478,3.439-11.177,3.439H118.079z
		 M134.023,41.313h6.175c4.584,0,7.66-2.24,9.223-6.722c0.573-1.667,0.86-3.725,0.86-6.175c0-4.064-0.991-7.138-2.97-9.223
		c-1.825-1.927-4.195-2.892-7.112-2.892h-6.175V41.313z M134.023,84.69h6.175c5.002,0,8.467-2.58,10.395-7.738
		c0.677-1.771,1.016-3.803,1.016-6.096c0-5.472-1.043-9.458-3.126-11.959c-1.876-2.292-4.638-3.438-8.285-3.438h-6.175V84.69z"/>
</g>
<rect x="353" y="1.434" fill="none" width="122.025" height="97.62"/>
<g enable-background="new    ">
	<path fill="#1D3E66" d="M404.506,75.527c0,6.461-2.267,11.984-6.8,16.569c-4.533,4.586-10.004,6.878-16.413,6.878H358.08V0.964
		h23.213c6.46,0,11.945,2.294,16.452,6.878c4.506,4.586,6.761,10.082,6.761,16.491V75.527z M372.852,84.359h8.91
		c2.345,0,4.325-0.847,5.94-2.541c1.615-1.692,2.423-3.686,2.423-5.979V24.567c0-2.345-0.821-4.35-2.462-6.018
		c-1.641-1.667-3.608-2.501-5.901-2.501h-8.91V84.359z"/>
</g>
<rect x="473" y="1.864" fill="none" width="122.1" height="97.68"/>
<g enable-background="new    ">
	<path fill="#1D3E66" d="M478.08,99.464V1.453h42.049v14.851h-27.277v26.729h19.931v14.851h-19.931v26.729h27.277v14.851H478.08z"/>
</g>
<rect x="593" y="0.527" fill="none" width="123.953" height="99.163"/>
<g enable-background="new    ">
	<path fill="#1D3E66" d="M612.853,99.608H598.08V1.598h42.05v14.851h-27.277v26.729h19.931v14.851h-19.931V99.608z"/>
</g>
<rect x="233" y="1.39" fill="none" width="123.017" height="98.414"/>
<g enable-background="new    ">
	<path fill="#1D3E66" d="M261.528,99.722c-6.514,0-12.05-2.279-16.609-6.839c-4.56-4.56-6.839-10.069-6.839-16.531v-53.46
		c0-6.513,2.292-12.049,6.878-16.608c4.584-4.56,10.108-6.839,16.57-6.839c6.513,0,12.037,2.293,16.57,6.878
		c4.533,4.585,6.799,10.109,6.799,16.569v11.177h-15.319V22.579c0-2.345-0.834-4.351-2.501-6.019
		c-1.668-1.667-3.673-2.501-6.018-2.501s-4.338,0.834-5.979,2.501c-1.641,1.668-2.462,3.674-2.462,6.019v53.616
		c0,2.345,0.821,4.338,2.462,5.979c1.642,1.642,3.635,2.462,5.979,2.462s4.35-0.82,6.018-2.462c1.667-1.642,2.501-3.635,2.501-5.979
		V62.674h15.319v13.678c0,6.515-2.293,12.037-6.878,16.57C273.434,97.455,267.937,99.722,261.528,99.722z"/>
</g>
<rect x="717" y="0.198" fill="none" width="26.798" height="54.29"/>
<g enable-background="new    ">
	<path fill="#1D3E66" d="M726.186,51.183V11.964h-6.544V6.6c1.843-0.217,3.597-0.915,5.263-2.094s2.865-2.607,3.598-4.287h5.364
		v50.964H726.186z"/>
</g>
<line fill="none" stroke="#1D3E66" stroke-width="7" stroke-miterlimit="10" x1="730.936" y1="78.496" x2="756.486" y2="18.614"/>
<rect x="747.627" y="46.943" fill="none" width="33.044" height="60.044"/>
<g enable-background="new    ">
	<path fill="#1D3E66" d="M775.221,86.305c0,3.387-1.193,6.259-3.576,8.615c-2.385,2.357-5.258,3.536-8.617,3.536h-0.609
		c-3.387,0-6.258-1.192-8.615-3.576s-3.536-5.243-3.536-8.575v-4.634c0-3.115,1.043-5.838,3.13-8.169
		c0.894-1.002,1.937-1.828,3.129-2.479c-2.059-1.057-3.658-2.817-4.795-5.283c-0.57-1.273-0.854-2.872-0.854-4.796v-2.764
		c0-3.306,0.975-6.042,2.926-8.21c2.167-2.438,5.039-3.657,8.615-3.657h0.609c3.604,0,6.489,1.219,8.657,3.657
		c1.95,2.195,2.927,4.932,2.927,8.21v2.764c0,3.17-0.949,5.798-2.846,7.884c-0.84,0.922-1.774,1.653-2.805,2.195
		c2.277,1.273,4.037,3.21,5.284,5.812c0.65,1.328,0.976,2.94,0.976,4.836V86.305z M767.783,60.273
		c-0.055-3.484-1.152-5.673-3.292-6.564c-0.487-0.216-1.071-0.324-1.747-0.324c-1.328,0-2.412,0.365-3.252,1.095
		c-0.678,0.594-1.158,1.357-1.443,2.289c-0.283,0.933-0.399,2.101-0.345,3.505c0.081,2.215,0.433,3.809,1.057,4.781
		c0.813,1.297,2.14,1.945,3.983,1.945c1.842,0,3.183-0.688,4.023-2.066C767.471,63.771,767.81,62.219,767.783,60.273z
		 M767.539,82.688c0-3.034-0.691-5.066-2.072-6.097c-0.65-0.487-1.559-0.731-2.723-0.731c-2.033,0-3.414,0.867-4.146,2.602
		c-0.434,1.057-0.65,2.466-0.65,4.227v2.438c0,1.68,0.516,3.034,1.545,4.063c0.867,0.868,1.951,1.328,3.252,1.382
		c2.086-0.107,3.535-1.138,4.348-3.088c0.299-0.65,0.447-1.437,0.447-2.357V82.688z"/>
</g>
<rect x="839.128" y="1.071" fill="none" width="26.988" height="54.674"/>
<g enable-background="new    ">
	<path fill="#1D3E66" d="M848.377,52.418V12.921h-6.59V7.519c1.855-0.219,3.623-0.921,5.301-2.108
		c1.678-1.187,2.885-2.626,3.622-4.317h5.403v51.325H848.377z"/>
</g>
<line fill="none" stroke="#1D3E66" stroke-width="7" stroke-miterlimit="10" x1="853.163" y1="79.925" x2="878.894" y2="19.618"/>
<rect x="869.972" y="48.148" fill="none" width="33.278" height="60.469"/>
<g enable-background="new    ">
	<path fill="#1D3E66" d="M872.633,80.626l13.67-32.498h7.735v32.498h4.952v7.776h-4.952v11.051h-7.735V88.402h-13.67V80.626z
		 M886.303,80.626v-16.03l-6.389,16.03H886.303z"/>
</g>
<rect x="956.745" y="0.208" fill="none" width="27.204" height="55.113"/>
<g enable-background="new    ">
	<path fill="#1D3E66" d="M966.068,51.967V12.153h-6.643V6.707c1.87-0.22,3.651-0.929,5.343-2.125s2.908-2.646,3.651-4.353h5.446
		v51.737H966.068z"/>
</g>
<line fill="none" stroke="#1D3E66" stroke-width="7" stroke-miterlimit="10" x1="970.892" y1="79.694" x2="996.83" y2="18.904"/>
<rect x="987.836" y="47.663" fill="none" width="33.545" height="60.954"/>
<g enable-background="new    ">
	<path fill="#1D3E66" d="M990.642,62.289c0-4.896,1.32-8.637,3.96-11.223c2.283-2.282,5.281-3.424,8.994-3.424
		c3.411,0,6.319,1.278,8.727,3.837c2.406,2.558,3.61,5.543,3.61,8.953c0,3.521-0.784,6.917-2.352,10.19
		c-0.854,1.815-2.848,4.938-5.982,9.365c-0.854,1.211-2.119,3.095-3.796,5.652l-1.403,2.104c-0.907,1.376-1.596,2.462-2.063,3.259
		c-0.221,0.408-0.33,0.656-0.33,0.743h15.307v7.633h-24.796v-7.152c0-0.165,0.567-1.116,1.702-2.853
		c0.524-0.796,1.118-1.675,1.781-2.636l2.03-2.924c1.184-1.622,3.043-4.22,5.576-7.795c2.396-3.354,4.186-6.393,5.37-9.114
		c0.964-2.227,1.446-4.304,1.446-6.229c0-1.567-0.44-2.9-1.32-4.001c-0.964-1.154-2.201-1.731-3.714-1.731
		c-2.173,0-3.713,1.252-4.621,3.754c-0.303,0.825-0.453,1.815-0.453,2.971v1.98h-7.674V62.289z"/>
</g>
<path fill="#1D3E66" d="M1118.678,61.749c4.239-7.488,4.786-20.839,4.276-26.148c-0.384-3.99-2.722-6.064-2.722-6.064
	s2.755-10.384-1.342-14.481s-9.112-1.837-9.112-1.837s-0.106-0.918,0.565-1.554c0.37-0.35,3.308-0.517,5.498-1.011
	c2.19-0.495,2.767-7.465,2.343-7.96s-16.654-0.565-16.654-0.565s-14.569,0-15.523,0.741s0.812,7.382,1.837,7.841
	c0.895,0.401,5.263,0.741,5.263,0.741s0,0,0.741,0.318s0.812,1.66,0.812,1.66c-1.554-1.13-6.075-1.554-9.466,1.837
	s-0.989,14.269-0.989,14.269s-1.13,1.13-2.261,4.521c-1.13,3.391,0,15.965,2.119,22.747s10.172,18.367,11.443,21.899
	c1.272,3.532-6.923,12.715-7.206,13.987s3.108,4.662,14.128,4.662s14.128-3.532,14.269-4.945s-8.477-11.02-7.77-13.704
	C1109.637,76.019,1114.44,69.237,1118.678,61.749z M1109.33,17.105c0,0,3.108-2.826,5.934,0c2.826,2.826,1.413,9.607,1.413,9.607
	s-4.521-0.989-5.51-2.261C1110.177,23.179,1109.047,20.778,1109.33,17.105z M1093.107,24.451c-0.989,1.272-5.51,2.261-5.51,2.261
	s-1.413-6.782,1.413-9.607c2.826-2.826,5.934,0,5.934,0C1095.226,20.778,1094.096,23.179,1093.107,24.451z"/>
<rect x="-392.417" y="-54.167" display="none" fill="#0B1F49" width="137.333" height="136.667"/>
<text transform="matrix(1 0 0 1 -369.3328 70)" display="none" fill="#173259" enable-background="new    " font-family="'Bebas'" font-size="110.0471">A</text>
</svg>
