<?xml version="1.0" encoding="utf-8"?>
<!-- Generator: Adobe Illustrator 17.0.0, SVG Export Plug-In . SVG Version: 6.00 Build 0)  -->
<!DOCTYPE svg PUBLIC "-//W3C//DTD SVG 1.1//EN" "http://www.w3.org/Graphics/SVG/1.1/DTD/svg11.dtd">
<svg version="1.1" id="Capa_1" xmlns="http://www.w3.org/2000/svg" xmlns:xlink="http://www.w3.org/1999/xlink" x="0px" y="0px"
	 width="1199.5px" height="100.083px" viewBox="0 0 1199.5 100.083" enable-background="new 0 0 1199.5 100.083"
	 xml:space="preserve">
<rect x="10" fill="none" width="175" height="140"/>
<g enable-background="new    ">
	<path fill="#325D87" d="M47.113,74.499l-3.412,21.397H29.081L44.907,2.805h19.315l15.601,93.091H65.059l-3.285-21.397H47.113z
		 M54.489,24.128l-5.201,36.701H59.69L54.489,24.128z"/>
</g>
<rect x="133" y="1.401" fill="none" width="122.481" height="97.985"/>
<g enable-background="new    ">
	<path fill="#325D87" d="M150.079,96.078V1.295h21.39c5.643,0,10.733,1.486,15.268,4.459c3.88,2.52,6.651,6.425,8.314,11.715
		c0.907,2.823,1.361,6.174,1.361,10.054c0,6.349-1.688,11.439-5.064,15.268c-1.411,1.613-3.074,2.847-4.989,3.704
		c3.175,1.209,5.87,3.603,8.088,7.18c1.46,2.419,2.543,5.543,3.25,9.372c0.352,1.965,0.529,4.157,0.529,6.576
		c0,5.997-1.133,11.086-3.401,15.268c-1.765,3.276-4.259,5.896-7.483,7.86c-3.627,2.218-7.232,3.326-10.809,3.326L150.079,96.078
		L150.079,96.078z M165.498,39.995h5.972c4.433,0,7.408-2.166,8.919-6.501c0.554-1.612,0.832-3.602,0.832-5.972
		c0-3.93-0.958-6.903-2.872-8.919c-1.765-1.864-4.057-2.797-6.878-2.797h-5.972L165.498,39.995L165.498,39.995z M165.498,81.943
		h5.972c4.837,0,8.188-2.495,10.053-7.483c0.655-1.713,0.983-3.678,0.983-5.895c0-5.292-1.009-9.146-3.023-11.565
		c-1.814-2.217-4.485-3.325-8.012-3.325h-5.972V81.943z"/>
</g>
<rect x="373" y="1.434" fill="none" width="122.025" height="97.62"/>
<g enable-background="new    ">
	<path fill="#325D87" d="M438.808,72.801c0,6.225-2.184,11.546-6.551,15.963c-4.367,4.418-9.638,6.627-15.813,6.627H394.08V0.964
		h22.364c6.224,0,11.508,2.21,15.85,6.627c4.341,4.418,6.514,9.713,6.514,15.888L438.808,72.801L438.808,72.801z M408.312,81.31
		h8.584c2.259,0,4.167-0.816,5.723-2.448c1.556-1.63,2.334-3.551,2.334-5.76V23.704c0-2.259-0.791-4.191-2.372-5.798
		c-1.581-1.606-3.476-2.41-5.685-2.41h-8.584V81.31z"/>
</g>
<rect x="493" y="1.864" fill="none" width="122.1" height="97.68"/>
<g enable-background="new    ">
	<path fill="#325D87" d="M518.08,96.25V1.453h40.67v14.364h-26.382v25.852h19.277v14.364h-19.277v25.852h26.382V96.25
		C558.75,96.25,518.08,96.25,518.08,96.25z"/>
</g>
<rect x="613" y="0.527" fill="none" width="123.953" height="99.163"/>
<g enable-background="new    ">
	<path fill="#325D87" d="M652.388,96.524H638.08V1.598h40.727v14.384h-26.419V41.87h19.304v14.384h-19.304V96.524z"/>
</g>
<rect x="253" y="1.39" fill="none" width="123.017" height="98.414"/>
<g enable-background="new    ">
	<path fill="#325D87" d="M296.633,95.896c-6.265,0-11.59-2.192-15.975-6.578c-4.386-4.386-6.578-9.685-6.578-15.9v-51.42
		c0-6.265,2.205-11.589,6.616-15.974c4.409-4.386,9.722-6.578,15.938-6.578c6.265,0,11.578,2.206,15.938,6.616
		c4.36,4.41,6.54,9.723,6.54,15.937v10.751h-14.735V21.696c0-2.256-0.802-4.185-2.406-5.789c-1.604-1.603-3.533-2.406-5.788-2.406
		c-2.256,0-4.173,0.802-5.751,2.406c-1.578,1.604-2.368,3.534-2.368,5.789v51.57c0,2.256,0.79,4.172,2.368,5.751
		c1.579,1.579,3.496,2.368,5.751,2.368c2.255,0,4.184-0.789,5.788-2.368c1.603-1.579,2.406-3.496,2.406-5.751V60.262h14.735v13.156
		c0,6.266-2.206,11.578-6.616,15.938C308.085,93.716,302.798,95.896,296.633,95.896z"/>
</g>
<rect x="747" y="0.198" fill="none" width="26.2" height="53.078"/>
<g enable-background="new    ">
	<path fill="#325D87" d="M755.981,50.045V11.701h-6.398V6.457c1.802-0.212,3.517-0.895,5.146-2.047
		c1.629-1.153,2.801-2.549,3.518-4.191h5.244v49.827H755.981z"/>
</g>
<line fill="#325D87" stroke="#325D87" stroke-width="7" stroke-miterlimit="10" x1="760.625" y1="76.749" x2="785.605" y2="18.203"/>
<rect x="776.943" y="45.9" fill="none" width="32.307" height="58.704"/>
<g enable-background="new    ">
	<path fill="#325D87" d="M803.922,84.383c0,3.311-1.166,6.119-3.496,8.423c-2.332,2.304-5.141,3.457-8.425,3.457h-0.595
		c-3.311,0-6.118-1.165-8.423-3.496c-2.304-2.331-3.457-5.126-3.457-8.384v-4.531c0-3.045,1.02-5.708,3.06-7.987
		c0.874-0.98,1.894-1.787,3.059-2.424c-2.013-1.033-3.576-2.754-4.688-5.165c-0.557-1.245-0.835-2.808-0.835-4.689v-2.702
		c0-3.232,0.953-5.907,2.861-8.027c2.119-2.384,4.927-3.575,8.423-3.575h0.595c3.524,0,6.344,1.192,8.464,3.575
		c1.906,2.146,2.862,4.822,2.862,8.027v2.702c0,3.099-0.928,5.669-2.782,7.708c-0.821,0.901-1.734,1.616-2.742,2.146
		c2.226,1.245,3.947,3.138,5.166,5.682c0.635,1.298,0.954,2.874,0.954,4.728L803.922,84.383L803.922,84.383z M796.65,58.932
		c-0.054-3.406-1.126-5.546-3.219-6.418c-0.476-0.211-1.047-0.317-1.708-0.317c-1.298,0-2.358,0.357-3.179,1.071
		c-0.663,0.581-1.132,1.327-1.411,2.238c-0.277,0.912-0.39,2.054-0.337,3.427c0.079,2.166,0.423,3.724,1.033,4.674
		c0.795,1.268,2.092,1.902,3.894,1.902c1.801,0,3.112-0.673,3.933-2.02C796.345,62.352,796.676,60.835,796.65,58.932z
		 M796.411,80.847c0-2.966-0.676-4.953-2.026-5.961c-0.635-0.476-1.524-0.715-2.662-0.715c-1.988,0-3.338,0.848-4.053,2.544
		c-0.424,1.033-0.636,2.411-0.636,4.133v2.384c0,1.643,0.505,2.966,1.51,3.972c0.848,0.849,1.907,1.298,3.179,1.351
		c2.039-0.105,3.456-1.113,4.251-3.019c0.292-0.635,0.437-1.405,0.437-2.304L796.411,80.847L796.411,80.847z"/>
</g>
<rect x="869.128" y="1.071" fill="none" width="25.725" height="52.116"/>
<g enable-background="new    ">
	<path fill="#325D87" d="M877.944,50.016V12.367h-6.282V7.217c1.768-0.209,3.453-0.878,5.053-2.009s2.75-2.503,3.453-4.115h5.15
		v48.924L877.944,50.016L877.944,50.016z"/>
</g>
<line fill="none" stroke="#325D87" stroke-width="7" stroke-miterlimit="10" x1="882.506" y1="76.236" x2="907.034" y2="18.75"/>
<rect x="898.529" y="45.946" fill="none" width="31.721" height="57.64"/>
<g enable-background="new    ">
	<path fill="#325D87" d="M901.065,76.904l13.03-30.978h7.373v30.978h4.72v7.412h-4.72V94.85h-7.373V84.316h-13.03V76.904z
		 M914.096,76.904v-15.28l-6.09,15.28H914.096z"/>
</g>
<rect x="986.745" y="0.208" fill="none" width="26.518" height="53.722"/>
<g>
	<path fill="#325D87" d="M995.833,50.661V11.852h-6.475V6.543c1.823-0.214,3.559-0.906,5.208-2.071
		c1.649-1.166,2.835-2.579,3.559-4.243h5.309V50.66L995.833,50.661L995.833,50.661z"/>
</g>
<line fill="none" stroke="#325D87" stroke-width="7" stroke-miterlimit="10" x1="1000.535" y1="77.688" x2="1025.819" y2="18.432"/>
<rect x="1017.052" y="46.466" fill="none" width="32.699" height="59.416"/>
<g>
	<path fill="#325D87" d="M1019.787,60.723c0-4.772,1.287-8.419,3.86-10.94c2.225-2.224,5.148-3.338,8.767-3.338
		c3.325,0,6.159,1.246,8.507,3.74c2.345,2.493,3.519,5.403,3.519,8.727c0,3.432-0.764,6.742-2.293,9.933
		c-0.833,1.769-2.776,4.813-5.831,9.129c-0.833,1.18-2.066,3.017-3.7,5.509l-1.368,2.051c-0.884,1.341-1.556,2.4-2.011,3.177
		c-0.215,0.398-0.322,0.639-0.322,0.724h14.921v7.44h-24.17v-6.972c0-0.161,0.553-1.088,1.659-2.781
		c0.511-0.776,1.09-1.633,1.736-2.569l1.979-2.85c1.154-1.581,2.966-4.114,5.435-7.598c2.335-3.269,4.08-6.232,5.234-8.884
		c0.94-2.171,1.409-4.195,1.409-6.072c0-1.527-0.429-2.827-1.287-3.9c-0.94-1.125-2.146-1.687-3.62-1.687
		c-2.118,0-3.619,1.22-4.504,3.659c-0.295,0.804-0.442,1.769-0.442,2.896v1.93h-7.48L1019.787,60.723L1019.787,60.723z"/>
</g>
<path fill="#325D87" d="M1155.173,60.939c4.181-7.386,4.721-20.556,4.218-25.793c-0.379-3.936-2.685-5.982-2.685-5.982
	s2.718-10.243-1.324-14.284s-8.988-1.812-8.988-1.812s-0.105-0.906,0.557-1.533c0.365-0.345,3.263-0.51,5.423-0.997
	c2.16-0.488,2.729-7.364,2.311-7.852c-0.418-0.488-16.428-0.557-16.428-0.557s-14.371,0-15.312,0.731s0.801,7.282,1.812,7.734
	c0.883,0.396,5.191,0.731,5.191,0.731s0,0,0.731,0.314c0.731,0.314,0.801,1.637,0.801,1.637c-1.533-1.115-5.992-1.533-9.337,1.812
	c-3.345,3.345-0.975,14.075-0.975,14.075s-1.115,1.115-2.23,4.46c-1.115,3.345,0,15.748,2.09,22.438s10.034,18.117,11.287,21.601
	c1.255,3.484-6.829,12.542-7.108,13.797c-0.279,1.255,3.066,4.599,13.936,4.599s13.936-3.484,14.075-4.878
	c0.139-1.394-8.362-10.87-7.664-13.518C1146.254,75.015,1150.992,68.325,1155.173,60.939z M1145.952,16.901c0,0,3.066-2.788,5.853,0
	s1.394,9.476,1.394,9.476s-4.459-0.976-5.435-2.23C1146.787,22.893,1145.672,20.524,1145.952,16.901z M1129.949,24.148
	c-0.976,1.255-5.435,2.23-5.435,2.23s-1.394-6.69,1.394-9.476c2.788-2.788,5.853,0,5.853,0
	C1132.039,20.524,1130.925,22.893,1129.949,24.148z"/>
<rect x="-392.417" y="-54.167" display="none" fill="#0B1F49" width="137.333" height="136.667"/>
<text transform="matrix(1 0 0 1 -369.3328 70)" display="none" fill="#173259" enable-background="new    " font-family="'Bebas'" font-size="110.0471">A</text>
</svg>
