<?xml version="1.0" encoding="utf-8"?>
<!-- Generator: Adobe Illustrator 17.0.0, SVG Export Plug-In . SVG Version: 6.00 Build 0)  -->
<!DOCTYPE svg PUBLIC "-//W3C//DTD SVG 1.1//EN" "http://www.w3.org/Graphics/SVG/1.1/DTD/svg11.dtd">
<svg version="1.1" id="Capa_1" xmlns="http://www.w3.org/2000/svg" xmlns:xlink="http://www.w3.org/1999/xlink" x="0px" y="0px"
	 width="1199.5px" height="120.5px" viewBox="0 0 1199.5 120.5" enable-background="new 0 0 1199.5 120.5" xml:space="preserve">
<rect x="10" fill="none" width="175" height="140"/>
<g enable-background="new    ">
	<path fill="#325D87" d="M51.104,90.367L46.938,116.5H29.081L48.41,2.805H72L91.053,116.5H73.022l-4.012-26.133H51.104z
		 M60.113,28.847l-6.352,44.824h12.703L60.113,28.847z"/>
</g>
<rect x="133" y="1.401" fill="none" width="122.481" height="97.985"/>
<g enable-background="new    ">
	<path fill="#325D87" d="M150.079,116.42V1.295h25.981c6.854,0,13.037,1.805,18.545,5.416c4.713,3.061,8.079,7.804,10.098,14.229
		c1.102,3.429,1.653,7.499,1.653,12.211c0,7.711-2.051,13.895-6.15,18.545c-1.714,1.959-3.734,3.458-6.06,4.499
		c3.856,1.468,7.13,4.377,9.823,8.722c1.774,2.938,3.089,6.733,3.948,11.383c0.428,2.387,0.643,5.05,0.643,7.987
		c0,7.284-1.377,13.466-4.131,18.545c-2.144,3.98-5.173,7.162-9.089,9.547c-4.406,2.695-8.784,4.039-13.129,4.039h-32.132V116.42z
		 M168.807,48.301h7.253c5.384,0,8.998-2.631,10.833-7.896c0.673-1.958,1.01-4.375,1.01-7.253c0-4.774-1.164-8.384-3.489-10.833
		c-2.144-2.263-4.928-3.397-8.354-3.397h-7.253v29.379H168.807z M168.807,99.252h7.253c5.875,0,9.945-3.031,12.21-9.089
		c0.795-2.08,1.193-4.467,1.193-7.16c0-6.427-1.225-11.109-3.672-14.047c-2.204-2.692-5.448-4.038-9.732-4.038h-7.253V99.252z"/>
</g>
<rect x="373" y="1.434" fill="none" width="122.025" height="97.62"/>
<g enable-background="new    ">
	<path fill="#325D87" d="M448.77,88.799c0,7.611-2.671,14.117-8.01,19.518c-5.34,5.402-11.785,8.102-19.335,8.102H394.08V0.964
		h27.345c7.61,0,14.071,2.702,19.38,8.102c5.308,5.402,7.964,11.877,7.964,19.426L448.77,88.799L448.77,88.799z M411.481,99.203
		h10.496c2.762,0,5.095-0.998,6.997-2.993c1.902-1.993,2.854-4.342,2.854-7.043V28.768c0-2.762-0.967-5.124-2.9-7.089
		c-1.933-1.964-4.25-2.946-6.951-2.946h-10.496V99.203z"/>
</g>
<rect x="493" y="1.864" fill="none" width="122.1" height="97.68"/>
<g enable-background="new    ">
	<path fill="#325D87" d="M518.08,116.418V1.453h49.323v17.42h-31.995v31.353h23.379v17.42h-23.379v31.353h31.995v17.42
		C567.403,116.418,518.08,116.418,518.08,116.418z"/>
</g>
<rect x="613" y="0.527" fill="none" width="123.953" height="99.163"/>
<g enable-background="new    ">
	<path fill="#325D87" d="M655.374,116.336H638.08V1.598h49.227v17.386h-31.932v31.291h23.333V67.66h-23.333V116.336z"/>
</g>
<rect x="253" y="1.39" fill="none" width="123.017" height="98.414"/>
<g enable-background="new    ">
	<path fill="#325D87" d="M301.432,116.418c-7.599,0-14.056-2.658-19.374-7.978c-5.319-5.319-7.978-11.745-7.978-19.283V26.796
		c0-7.597,2.674-14.055,8.023-19.373c5.347-5.319,11.791-7.978,19.329-7.978c7.597,0,14.041,2.675,19.329,8.023
		c5.288,5.348,7.931,11.792,7.931,19.328v13.038h-17.87V26.431c0-2.735-0.973-5.075-2.917-7.021
		c-1.946-1.945-4.285-2.917-7.02-2.917s-5.06,0.973-6.975,2.917c-1.914,1.946-2.872,4.286-2.872,7.021v62.543
		c0,2.735,0.958,5.06,2.872,6.974c1.915,1.915,4.24,2.872,6.975,2.872c2.734,0,5.074-0.957,7.02-2.872
		c1.945-1.915,2.917-4.24,2.917-6.974V73.202h17.87v15.955c0,7.6-2.675,14.041-8.023,19.329
		C315.32,113.774,308.908,116.418,301.432,116.418z"/>
</g>
<rect x="747" y="0.198" fill="none" width="31.946" height="64.719"/>
<g enable-background="new    ">
	<path fill="#325D87" d="M757.951,60.977V14.224h-7.801V7.83c2.197-0.259,4.288-1.091,6.274-2.496
		c1.986-1.405,3.415-3.108,4.289-5.11h6.394v60.754H757.951z"/>
</g>
<line fill="#325D87" stroke="#325D87" stroke-width="7" stroke-miterlimit="10" x1="763.613" y1="93.536" x2="794.071" y2="22.152"/>
<rect x="783.51" y="55.922" fill="none" width="39.391" height="71.578"/>
<g enable-background="new    ">
	<path fill="#325D87" d="M816.405,102.845c0,4.038-1.422,7.461-4.263,10.27c-2.843,2.81-6.268,4.215-10.272,4.215h-0.726
		c-4.038,0-7.46-1.421-10.27-4.263s-4.215-6.25-4.215-10.222v-5.524c0-3.713,1.243-6.959,3.731-9.738
		c1.066-1.194,2.309-2.179,3.73-2.955c-2.455-1.26-4.361-3.358-5.716-6.298c-0.68-1.518-1.018-3.424-1.018-5.717v-3.295
		c0-3.941,1.162-7.203,3.488-9.787c2.583-2.906,6.007-4.359,10.27-4.359h0.726c4.296,0,7.735,1.453,10.32,4.359
		c2.325,2.617,3.489,5.879,3.489,9.787v3.295c0,3.779-1.131,6.912-3.393,9.398c-1.001,1.099-2.115,1.971-3.344,2.617
		c2.714,1.518,4.812,3.827,6.299,6.928c0.775,1.583,1.164,3.505,1.164,5.765L816.405,102.845L816.405,102.845z M807.538,71.813
		c-0.066-4.153-1.373-6.763-3.924-7.825c-0.581-0.257-1.277-0.386-2.083-0.386c-1.583,0-2.875,0.435-3.877,1.305
		c-0.808,0.708-1.38,1.618-1.72,2.729c-0.337,1.112-0.476,2.505-0.411,4.178c0.097,2.64,0.516,4.541,1.26,5.699
		c0.969,1.546,2.551,2.319,4.748,2.319c2.196,0,3.794-0.82,4.796-2.463C807.166,75.983,807.57,74.133,807.538,71.813z
		 M807.247,98.533c0-3.617-0.824-6.039-2.47-7.268c-0.775-0.581-1.859-0.871-3.246-0.871c-2.424,0-4.07,1.034-4.942,3.102
		c-0.517,1.26-0.775,2.94-0.775,5.039v2.906c0,2.003,0.615,3.617,1.842,4.843c1.034,1.035,2.326,1.583,3.877,1.647
		c2.487-0.128,4.214-1.357,5.183-3.681c0.356-0.775,0.533-1.713,0.533-2.81v-2.908H807.247z"/>
</g>
<rect x="869.128" y="1.071" fill="none" width="31.392" height="63.596"/>
<g enable-background="new    ">
	<path fill="#325D87" d="M879.886,60.797V14.855h-7.665V8.571c2.158-0.255,4.214-1.071,6.166-2.452
		c1.952-1.381,3.356-3.055,4.213-5.021h6.285v59.7h-8.998V60.797z"/>
</g>
<line fill="none" stroke="#325D87" stroke-width="7" stroke-miterlimit="10" x1="885.453" y1="92.793" x2="915.383" y2="22.645"/>
<rect x="905.005" y="55.83" fill="none" width="38.708" height="70.337"/>
<g enable-background="new    ">
	<path fill="#325D87" d="M908.1,93.608l15.901-37.801h8.997v37.801h5.76v9.045h-5.76v12.854h-8.997v-12.854H908.1V93.608z
		 M924.001,93.608V74.962l-7.432,18.646H924.001z"/>
</g>
<rect x="986.745" y="0.208" fill="none" width="31.779" height="64.381"/>
<g>
	<path fill="#325D87" d="M997.636,60.671V14.162h-7.76V7.8c2.184-0.257,4.265-1.085,6.241-2.482
		c1.977-1.397,3.397-3.091,4.265-5.085h6.362V60.67h-9.108V60.671z"/>
</g>
<line fill="none" stroke="#325D87" stroke-width="7" stroke-miterlimit="10" x1="1003.271" y1="93.06" x2="1033.571" y2="22.048"/>
<rect x="1023.064" y="55.643" fill="none" width="39.186" height="71.204"/>
<g>
	<path fill="#325D87" d="M1026.342,72.728c0-5.719,1.542-10.089,4.626-13.11c2.667-2.666,6.169-4,10.506-4
		c3.984,0,7.381,1.493,10.194,4.482c2.811,2.988,4.217,6.475,4.217,10.459c0,4.113-0.916,8.08-2.748,11.904
		c-0.998,2.12-3.327,5.768-6.988,10.94c-0.998,1.415-2.475,3.615-4.434,6.602l-1.639,2.458c-1.059,1.607-1.864,2.876-2.41,3.807
		c-0.258,0.477-0.385,0.766-0.385,0.868h17.881v8.917h-28.966V107.7c0-0.193,0.662-1.304,1.988-3.333
		c0.612-0.93,1.306-1.957,2.081-3.079l2.371-3.416c1.383-1.895,3.555-4.93,6.514-9.106c2.799-3.918,4.89-7.468,6.273-10.647
		c1.126-2.601,1.689-5.028,1.689-7.276c0-1.831-0.514-3.388-1.542-4.674c-1.126-1.348-2.571-2.022-4.339-2.022
		c-2.538,0-4.337,1.463-5.398,4.385c-0.354,0.964-0.529,2.12-0.529,3.471v2.313h-8.964v-1.588H1026.342z"/>
</g>
<path fill="#325D87" d="M1163.291,73.956c5.107-9.021,5.766-25.106,5.151-31.502c-0.463-4.807-3.279-7.306-3.279-7.306
	s3.319-12.51-1.617-17.446s-10.978-2.213-10.978-2.213s-0.128-1.106,0.681-1.872c0.446-0.422,3.985-0.623,6.624-1.218
	c2.638-0.596,3.333-8.993,2.823-9.59s-20.064-0.681-20.064-0.681s-17.552,0-18.701,0.893s0.978,8.893,2.213,9.446
	c1.078,0.483,6.341,0.893,6.341,0.893s0,0,0.893,0.383c0.893,0.383,0.978,2,0.978,2c-1.872-1.361-7.319-1.872-11.404,2.213
	c-4.085,4.085-1.191,17.191-1.191,17.191s-1.361,1.361-2.724,5.447c-1.361,4.085,0,19.234,2.553,27.404
	c2.553,8.171,12.255,22.128,13.786,26.383c1.532,4.255-8.34,15.318-8.682,16.851s3.744,5.617,17.021,5.617
	s17.021-4.255,17.191-5.957c0.17-1.702-10.213-13.276-9.361-16.51C1152.398,91.148,1158.185,82.977,1163.291,73.956z
	 M1152.029,20.171c0,0,3.744-3.405,7.149,0c3.405,3.405,1.702,11.574,1.702,11.574s-5.447-1.191-6.638-2.724
	C1153.049,27.489,1151.688,24.596,1152.029,20.171z M1132.484,29.021c-1.191,1.532-6.638,2.724-6.638,2.724
	s-1.702-8.171,1.702-11.574c3.405-3.405,7.149,0,7.149,0C1135.037,24.596,1133.675,27.489,1132.484,29.021z"/>
<rect x="-392.417" y="-54.167" display="none" fill="#0B1F49" width="137.333" height="136.667"/>
<text transform="matrix(1 0 0 1 -369.3328 70)" display="none" fill="#173259" enable-background="new    " font-family="'Bebas'" font-size="110.0471">A</text>
</svg>
