<?xml version="1.0" encoding="utf-8"?>
<!-- Generator: Adobe Illustrator 17.0.0, SVG Export Plug-In . SVG Version: 6.00 Build 0)  -->
<!DOCTYPE svg PUBLIC "-//W3C//DTD SVG 1.1//EN" "http://www.w3.org/Graphics/SVG/1.1/DTD/svg11.dtd">
<svg version="1.1" id="Capa_1" xmlns="http://www.w3.org/2000/svg" xmlns:xlink="http://www.w3.org/1999/xlink" x="0px" y="0px"
	 width="1199.5px" height="85px" viewBox="0 0 1199.5 85" enable-background="new 0 0 1199.5 85" xml:space="preserve">
<rect x="10" fill="none" width="175" height="140"/>
<g enable-background="new    ">
	<path fill="#325D87" d="M44.6,64.506L41.664,82.92H29.081l13.62-80.115h16.623L72.75,82.92H60.044l-2.827-18.415H44.6z
		 M50.948,21.156l-4.476,31.585h8.951L50.948,21.156z"/>
</g>
<rect x="133" y="1.401" fill="none" width="122.481" height="97.985"/>
<g enable-background="new    ">
	<path fill="#325D87" d="M150.079,83.965V1.295h18.657c4.922,0,9.362,1.296,13.317,3.889c3.384,2.198,5.801,5.604,7.251,10.218
		c0.791,2.462,1.187,5.385,1.187,8.769c0,5.537-1.473,9.977-4.416,13.317c-1.231,1.407-2.681,2.483-4.352,3.231
		c2.769,1.054,5.12,3.143,7.054,6.263c1.274,2.11,2.218,4.835,2.835,8.174c0.307,1.714,0.461,3.626,0.461,5.736
		c0,5.23-0.989,9.67-2.967,13.317c-1.539,2.858-3.715,5.143-6.527,6.856c-3.164,1.935-6.307,2.901-9.428,2.901L150.079,83.965
		L150.079,83.965z M163.527,35.049h5.208c3.866,0,6.461-1.889,7.779-5.67c0.483-1.406,0.725-3.142,0.725-5.208
		c0-3.428-0.836-6.021-2.505-7.779c-1.539-1.625-3.538-2.439-5.999-2.439h-5.208L163.527,35.049L163.527,35.049z M163.527,71.637
		h5.208c4.219,0,7.142-2.176,8.768-6.527c0.571-1.494,0.857-3.208,0.857-5.142c0-4.615-0.88-7.978-2.637-10.087
		c-1.582-1.933-3.912-2.9-6.988-2.9h-5.208V71.637z"/>
</g>
<rect x="373" y="1.434" fill="none" width="122.025" height="97.62"/>
<g enable-background="new    ">
	<path fill="#325D87" d="M432.381,62.478c0,5.33-1.87,9.887-5.61,13.669c-3.74,3.783-8.253,5.674-13.541,5.674H394.08V0.964h19.151
		c5.329,0,9.855,1.893,13.573,5.674c3.717,3.783,5.578,8.318,5.578,13.605L432.381,62.478L432.381,62.478z M406.267,69.764h7.351
		c1.935,0,3.568-0.699,4.9-2.096c1.332-1.396,1.999-3.041,1.999-4.933V20.436c0-1.935-0.677-3.589-2.031-4.965
		c-1.354-1.375-2.977-2.063-4.868-2.063h-7.351V69.764z"/>
</g>
<rect x="493" y="1.864" fill="none" width="122.1" height="97.68"/>
<g enable-background="new    ">
	<path fill="#325D87" d="M518.08,82.847V1.453H553v12.333h-22.652v22.197h16.552v12.333h-16.552v22.197H553v12.333
		C553,82.847,518.08,82.847,518.08,82.847z"/>
</g>
<rect x="613" y="0.527" fill="none" width="123.953" height="99.163"/>
<g enable-background="new    ">
	<path fill="#325D87" d="M650.368,83.122H638.08V1.598h34.977v12.353h-22.689v22.233h16.579v12.353h-16.579V83.122z"/>
</g>
<rect x="253" y="1.39" fill="none" width="123.017" height="98.414"/>
<g enable-background="new    ">
	<path fill="#325D87" d="M293.758,83.598c-5.467,0-10.112-1.913-13.938-5.739c-3.827-3.827-5.739-8.45-5.739-13.873V19.122
		c0-5.466,1.923-10.112,5.772-13.938c3.847-3.827,8.483-5.739,13.906-5.739c5.466,0,10.102,1.924,13.906,5.772
		c3.804,3.848,5.706,8.484,5.706,13.905v9.38h-12.856v-9.643c0-1.968-0.7-3.651-2.099-5.051c-1.4-1.399-3.082-2.099-5.05-2.099
		c-1.968,0-3.64,0.7-5.018,2.099c-1.377,1.4-2.066,3.083-2.066,5.051v44.995c0,1.968,0.689,3.64,2.066,5.018
		c1.378,1.378,3.051,2.066,5.018,2.066s3.651-0.688,5.05-2.066c1.399-1.378,2.099-3.051,2.099-5.018V52.507h12.856v11.479
		c0,5.467-1.924,10.102-5.772,13.906C303.749,81.696,299.136,83.598,293.758,83.598z"/>
</g>
<rect x="747" y="0.198" fill="none" width="22.622" height="45.831"/>
<g enable-background="new    ">
	<path fill="#325D87" d="M754.755,43.239V10.131h-5.524V5.602c1.556-0.183,3.037-0.772,4.443-1.768
		c1.406-0.995,2.419-2.201,3.037-3.619h4.528v43.023H754.755z"/>
</g>
<line fill="#325D87" stroke="#325D87" stroke-width="7" stroke-miterlimit="10" x1="758.765" y1="66.296" x2="780.333" y2="15.744"/>
<rect x="772.855" y="39.659" fill="none" width="27.895" height="50.688"/>
<g enable-background="new    ">
	<path fill="#325D87" d="M796.149,72.888c0,2.859-1.007,5.284-3.019,7.273c-2.013,1.99-4.439,2.985-7.274,2.985h-0.514
		c-2.859,0-5.283-1.006-7.273-3.019c-1.99-2.013-2.985-4.426-2.985-7.239v-3.912c0-2.63,0.88-4.928,2.642-6.896
		c0.755-0.846,1.635-1.543,2.641-2.093c-1.738-0.892-3.088-2.378-4.048-4.46c-0.481-1.075-0.721-2.424-0.721-4.049v-2.333
		c0-2.791,0.823-5.101,2.47-6.931c1.829-2.058,4.254-3.087,7.273-3.087h0.514c3.042,0,5.478,1.029,7.308,3.087
		c1.646,1.853,2.471,4.164,2.471,6.931v2.333c0,2.676-0.801,4.895-2.403,6.656c-0.709,0.778-1.498,1.395-2.368,1.853
		c1.922,1.075,3.408,2.71,4.461,4.906c0.549,1.121,0.824,2.482,0.824,4.082L796.149,72.888L796.149,72.888z M789.87,50.912
		c-0.046-2.941-0.972-4.789-2.779-5.541c-0.411-0.182-0.904-0.274-1.475-0.274c-1.121,0-2.036,0.308-2.745,0.924
		c-0.572,0.501-0.978,1.146-1.218,1.932c-0.239,0.788-0.337,1.774-0.291,2.959c0.068,1.87,0.365,3.215,0.892,4.036
		c0.686,1.095,1.807,1.642,3.362,1.642c1.555,0,2.687-0.581,3.396-1.744C789.607,53.865,789.893,52.555,789.87,50.912z
		 M789.664,69.835c0-2.561-0.583-4.277-1.749-5.147c-0.549-0.411-1.316-0.617-2.299-0.617c-1.716,0-2.882,0.732-3.5,2.197
		c-0.366,0.892-0.549,2.082-0.549,3.568v2.058c0,1.418,0.436,2.561,1.304,3.43c0.732,0.733,1.647,1.121,2.745,1.167
		c1.761-0.09,2.984-0.961,3.671-2.607c0.252-0.549,0.377-1.213,0.377-1.99L789.664,69.835L789.664,69.835z"/>
</g>
<rect x="869.128" y="1.071" fill="none" width="22.569" height="45.721"/>
<g enable-background="new    ">
	<path fill="#325D87" d="M876.862,44.01V10.981h-5.511V6.463c1.551-0.183,3.03-0.77,4.433-1.763c1.403-0.993,2.413-2.196,3.029-3.61
		h4.518v42.921L876.862,44.01L876.862,44.01z"/>
</g>
<line fill="none" stroke="#325D87" stroke-width="7" stroke-miterlimit="10" x1="880.865" y1="67.013" x2="902.382" y2="16.581"/>
<rect x="894.921" y="40.439" fill="none" width="27.829" height="50.567"/>
<g enable-background="new    ">
	<path fill="#325D87" d="M897.147,67.599l11.432-27.176h6.468v27.176h4.141v6.503h-4.141v9.241h-6.468v-9.241h-11.432V67.599z
		 M908.578,67.599V54.194l-5.343,13.405H908.578z"/>
</g>
<rect x="986.745" y="0.208" fill="none" width="22.94" height="46.475"/>
<g>
	<path fill="#325D87" d="M994.607,43.854V10.281h-5.602V5.688c1.577-0.186,3.079-0.783,4.506-1.792s2.452-2.231,3.079-3.671h4.592
		v43.628L994.607,43.854L994.607,43.854z"/>
</g>
<line fill="none" stroke="#325D87" stroke-width="7" stroke-miterlimit="10" x1="998.675" y1="67.235" x2="1020.547" y2="15.974"/>
<rect x="1012.963" y="40.225" fill="none" width="28.287" height="51.4"/>
<g>
	<path fill="#325D87" d="M1015.329,52.559c0-4.129,1.113-7.283,3.339-9.464c1.925-1.924,4.453-2.887,7.584-2.887
		c2.876,0,5.329,1.078,7.359,3.236c2.029,2.157,3.044,4.674,3.044,7.55c0,2.969-0.661,5.833-1.983,8.593
		c-0.72,1.531-2.402,4.164-5.044,7.897c-0.72,1.021-1.787,2.61-3.201,4.766l-1.183,1.774c-0.765,1.16-1.346,2.076-1.74,2.748
		c-0.186,0.344-0.278,0.553-0.278,0.627h12.908v6.437h-20.91v-6.031c0-0.139,0.478-0.941,1.435-2.406
		c0.442-0.671,0.943-1.412,1.502-2.223l1.712-2.466c0.998-1.368,2.566-3.559,4.702-6.573c2.021-2.828,3.53-5.391,4.528-7.685
		c0.813-1.878,1.219-3.629,1.219-5.253c0-1.321-0.371-2.445-1.113-3.374c-0.813-0.973-1.856-1.46-3.132-1.46
		c-1.832,0-3.131,1.056-3.897,3.166c-0.255,0.696-0.382,1.531-0.382,2.505v1.67h-6.471L1015.329,52.559L1015.329,52.559z"/>
</g>
<path fill="#325D87" d="M1150.259,53.059c3.621-6.397,4.089-17.802,3.653-22.337c-0.328-3.408-2.325-5.18-2.325-5.18
	s2.353-8.87-1.146-12.37c-3.5-3.5-7.784-1.569-7.784-1.569s-0.091-0.784,0.483-1.327c0.316-0.299,2.826-0.442,4.697-0.864
	c1.871-0.423,2.364-6.377,2.002-6.8c-0.362-0.423-14.227-0.483-14.227-0.483s-12.445,0-13.26,0.633s0.694,6.306,1.569,6.698
	c0.765,0.343,4.496,0.633,4.496,0.633s0,0,0.633,0.272c0.633,0.272,0.694,1.418,0.694,1.418c-1.328-0.965-5.189-1.327-8.086,1.569
	s-0.845,12.189-0.845,12.189s-0.965,0.965-1.932,3.862c-0.965,2.897,0,13.638,1.81,19.431s8.689,15.69,9.775,18.707
	c1.087,3.017-5.914,10.862-6.156,11.948s2.655,3.982,12.069,3.982c9.414,0,12.069-3.017,12.189-4.224
	c0.12-1.207-7.241-9.414-6.637-11.707C1142.535,65.249,1146.638,59.455,1150.259,53.059z M1142.273,14.922c0,0,2.655-2.414,5.069,0
	c2.414,2.414,1.207,8.207,1.207,8.207s-3.862-0.845-4.707-1.931C1142.997,20.111,1142.031,18.06,1142.273,14.922z M1128.415,21.197
	c-0.845,1.087-4.707,1.931-4.707,1.931s-1.207-5.793,1.207-8.207c2.414-2.414,5.069,0,5.069,0
	C1130.225,18.06,1129.26,20.111,1128.415,21.197z"/>
<rect x="-392.417" y="-54.167" display="none" fill="#0B1F49" width="137.333" height="136.667"/>
<text transform="matrix(1 0 0 1 -369.3328 70)" display="none" fill="#173259" enable-background="new    " font-family="'Bebas'" font-size="110.0471">A</text>
</svg>
