<?xml version="1.0" encoding="utf-8"?>
<!-- Generator: Adobe Illustrator 17.0.0, SVG Export Plug-In . SVG Version: 6.00 Build 0)  -->
<!DOCTYPE svg PUBLIC "-//W3C//DTD SVG 1.1//EN" "http://www.w3.org/Graphics/SVG/1.1/DTD/svg11.dtd">
<svg version="1.1" id="Capa_1" xmlns="http://www.w3.org/2000/svg" xmlns:xlink="http://www.w3.org/1999/xlink" x="0px" y="0px"
	 width="1199.5px" height="140px" viewBox="0 0 1199.5 140" enable-background="new 0 0 1199.5 140" xml:space="preserve">
<rect fill="none" width="175" height="140"/>
<g enable-background="new    ">
	<path fill="#A2B3D7" d="M28.313,107.772l-5.121,32.113H1.248L25.001,0.169h28.99l23.414,139.717H55.246l-4.931-32.113H28.313z
		 M39.383,32.171l-7.805,55.084h15.61L39.383,32.171z"/>
</g>
<g>
	<rect x="113" fill="none" width="175" height="140"/>
	<g enable-background="new    ">
		<path fill="#A2B3D7" d="M120.248,139.886V0.058h31.556c8.324,0,15.833,2.193,22.524,6.579c5.723,3.718,9.813,9.478,12.266,17.283
			c1.338,4.164,2.007,9.106,2.007,14.83c0,9.366-2.492,16.876-7.471,22.524c-2.082,2.38-4.535,4.2-7.359,5.464
			c4.683,1.784,8.659,5.315,11.931,10.593c2.155,3.568,3.753,8.179,4.795,13.827c0.519,2.898,0.78,6.133,0.78,9.7
			c0,8.848-1.672,16.355-5.018,22.524c-2.603,4.833-6.283,8.697-11.039,11.597c-5.353,3.272-10.668,4.906-15.945,4.906H120.248z
			 M142.995,57.148h8.809c6.541,0,10.927-3.195,13.157-9.59c0.817-2.378,1.227-5.313,1.227-8.809c0-5.798-1.413-10.184-4.237-13.157
			c-2.603-2.75-5.985-4.126-10.147-4.126h-8.809V57.148z M142.995,119.034h8.809c7.136,0,12.079-3.68,14.83-11.039
			c0.965-2.526,1.45-5.426,1.45-8.697c0-7.806-1.488-13.492-4.46-17.061c-2.676-3.271-6.617-4.906-11.819-4.906h-8.809V119.034z"/>
	</g>
</g>
<g>
	<rect x="353" y="0.5" fill="none" width="175" height="140"/>
	<g enable-background="new    ">
		<path fill="#A2B3D7" d="M426.482,106.934c0,9.219-3.234,17.1-9.701,23.64c-6.467,6.542-14.273,9.813-23.416,9.813h-33.117V0.558
			h33.117c9.216,0,17.041,3.272,23.472,9.813c6.429,6.542,9.646,14.384,9.646,23.527V106.934z M381.322,119.534h12.712
			c3.345,0,6.169-1.207,8.474-3.624c2.304-2.415,3.457-5.258,3.457-8.53V34.232c0-3.346-1.171-6.206-3.513-8.586
			c-2.341-2.378-5.148-3.568-8.418-3.568h-12.712V119.534z"/>
	</g>
</g>
<g>
	<rect x="473" y="0.5" fill="none" width="175" height="140"/>
	<g enable-background="new    ">
		<path fill="#A2B3D7" d="M480.248,140.386V0.558h59.99v21.187h-38.915v38.135h28.434v21.186h-28.434v38.135h38.915v21.187H480.248z
			"/>
	</g>
</g>
<g>
	<rect x="593" y="0.5" fill="none" width="175" height="140"/>
	<g enable-background="new    ">
		<path fill="#A2B3D7" d="M621.322,140.386h-21.074V0.558h59.99v21.187h-38.916v38.135h28.434v21.186h-28.434V140.386z"/>
	</g>
</g>
<g>
	<rect x="233" fill="none" width="175" height="140"/>
	<g enable-background="new    ">
		<path fill="#A2B3D7" d="M273.181,139.865c-9.175,0-16.972-3.21-23.393-9.633c-6.423-6.421-9.632-14.182-9.632-23.283V31.651
			c0-9.174,3.229-16.971,9.688-23.394c6.457-6.421,14.237-9.632,23.338-9.632c9.173,0,16.953,3.229,23.338,9.688
			c6.385,6.458,9.578,14.238,9.578,23.338v15.742H284.52V31.211c0-3.303-1.175-6.127-3.523-8.477
			c-2.35-2.348-5.174-3.522-8.477-3.522c-3.302,0-6.11,1.175-8.421,3.522c-2.312,2.35-3.468,5.174-3.468,8.477v75.519
			c0,3.303,1.156,6.109,3.468,8.421c2.312,2.313,5.119,3.468,8.421,3.468c3.303,0,6.127-1.155,8.477-3.468
			c2.348-2.312,3.523-5.118,3.523-8.421V87.685h21.577v19.265c0,9.175-3.23,16.953-9.688,23.338
			C289.95,136.673,282.208,139.865,273.181,139.865z"/>
	</g>
</g>
<rect x="717" y="0.5" fill="none" width="38.09" height="77.166"/>
<g enable-background="new    ">
	<path fill="#A2B3D7" d="M730.055,72.969V17.224h-9.3V9.599c2.618-0.308,5.112-1.3,7.481-2.975c2.367-1.676,4.072-3.706,5.111-6.095
		h7.625v72.439H730.055z"/>
</g>
<line fill="none" stroke="#A2B3D7" stroke-width="7" stroke-miterlimit="10" x1="736.809" y1="111.792" x2="773.125" y2="26.676"/>
<rect x="760.532" y="66.943" fill="none" width="46.968" height="85.345"/>
<g enable-background="new    ">
	<path fill="#A2B3D7" d="M799.755,122.89c0,4.814-1.695,8.896-5.083,12.247c-3.39,3.351-7.473,5.025-12.247,5.025h-0.866
		c-4.814,0-8.896-1.694-12.246-5.083c-3.352-3.389-5.026-7.452-5.026-12.189v-6.585c0-4.429,1.481-8.299,4.448-11.611
		c1.271-1.424,2.752-2.6,4.447-3.523c-2.927-1.502-5.199-4.005-6.816-7.51c-0.809-1.81-1.213-4.082-1.213-6.816v-3.929
		c0-4.697,1.387-8.587,4.16-11.669c3.08-3.466,7.162-5.198,12.246-5.198h0.866c5.122,0,9.223,1.732,12.304,5.198
		c2.773,3.12,4.16,7.01,4.16,11.669v3.929c0,4.506-1.349,8.241-4.044,11.206c-1.194,1.311-2.522,2.35-3.985,3.12
		c3.234,1.811,5.737,4.563,7.509,8.261c0.925,1.887,1.387,4.179,1.387,6.874V122.89z M789.184,85.891
		c-0.078-4.954-1.637-8.064-4.68-9.331c-0.693-0.308-1.521-0.461-2.483-0.461c-1.888,0-3.429,0.52-4.622,1.556
		c-0.963,0.845-1.646,1.93-2.051,3.255c-0.404,1.325-0.568,2.984-0.49,4.981c0.115,3.148,0.615,5.413,1.502,6.796
		c1.155,1.843,3.041,2.765,5.661,2.765c2.618,0,4.524-0.979,5.719-2.938C788.74,90.863,789.221,88.655,789.184,85.891z
		 M788.837,117.749c0-4.313-0.981-7.201-2.946-8.665c-0.924-0.693-2.215-1.04-3.87-1.04c-2.888,0-4.853,1.232-5.892,3.697
		c-0.617,1.502-0.925,3.505-0.925,6.008v3.466c0,2.388,0.731,4.313,2.194,5.776c1.232,1.233,2.773,1.888,4.622,1.964
		c2.965-0.153,5.025-1.617,6.181-4.39c0.424-0.925,0.636-2.041,0.636-3.351V117.749z"/>
</g>
<rect x="837.245" y="0" fill="none" width="38.408" height="77.81"/>
<g enable-background="new    ">
	<path fill="#A2B3D7" d="M850.408,73.074v-56.21h-9.378V9.175c2.641-0.31,5.155-1.311,7.544-2.999
		c2.388-1.689,4.106-3.737,5.154-6.146h7.689v73.044H850.408z"/>
</g>
<line fill="none" stroke="#A2B3D7" stroke-width="7" stroke-miterlimit="10" x1="857.219" y1="112.221" x2="893.838" y2="26.395"/>
<rect x="881.14" y="66.998" fill="none" width="47.36" height="86.057"/>
<g enable-background="new    ">
	<path fill="#A2B3D7" d="M884.926,113.22l19.456-46.25h11.009v46.25h7.048v11.067h-7.048v15.727h-11.01v-15.727h-19.455V113.22z
		 M904.381,113.22V90.407l-9.091,22.813H904.381z"/>
</g>
<rect x="956.745" y="0" fill="none" width="38.408" height="77.81"/>
<g enable-background="new    ">
	<path fill="#A2B3D7" d="M969.908,73.074v-56.21h-9.378V9.175c2.64-0.31,5.155-1.311,7.543-2.999
		c2.389-1.689,4.106-3.737,5.155-6.146h7.688v73.044H969.908z"/>
</g>
<line fill="none" stroke="#A2B3D7" stroke-width="7" stroke-miterlimit="10" x1="976.719" y1="112.221" x2="1013.338" y2="26.395"/>
<rect x="1000.64" y="66.998" fill="none" width="47.36" height="86.057"/>
<g enable-background="new    ">
	<path fill="#A2B3D7" d="M1004.601,87.648c0-6.912,1.863-12.193,5.592-15.844c3.223-3.223,7.456-4.835,12.698-4.835
		c4.814,0,8.921,1.806,12.319,5.417c3.397,3.611,5.097,7.825,5.097,12.641c0,4.971-1.106,9.767-3.32,14.387
		c-1.204,2.563-4.019,6.972-8.445,13.223c-1.204,1.71-2.991,4.369-5.359,7.98l-1.98,2.971c-1.281,1.942-2.253,3.476-2.912,4.602
		c-0.312,0.576-0.466,0.926-0.466,1.049h21.61v10.775h-35.008v-10.098c0-0.233,0.801-1.575,2.402-4.027
		c0.741-1.123,1.579-2.363,2.516-3.721l2.866-4.128c1.671-2.289,4.296-5.958,7.873-11.005c3.382-4.735,5.909-9.025,7.581-12.868
		c1.36-3.144,2.042-6.075,2.042-8.793c0-2.213-0.622-4.096-1.864-5.648c-1.36-1.63-3.107-2.445-5.242-2.445
		c-3.068,0-5.243,1.768-6.524,5.3c-0.428,1.165-0.641,2.563-0.641,4.194v2.796h-10.834V87.648z"/>
</g>
<path fill="#A2B3D7" d="M1134.655,87.369c6.06-10.706,6.843-29.794,6.113-37.384c-0.549-5.704-3.891-8.67-3.891-8.67
	s3.939-14.846-1.919-20.704c-5.858-5.858-13.028-2.626-13.028-2.626s-0.151-1.313,0.808-2.222c0.529-0.501,4.729-0.739,7.86-1.446
	s3.956-10.673,3.35-11.38c-0.606-0.707-23.81-0.808-23.81-0.808s-20.83,0-22.194,1.06s1.161,10.554,2.626,11.21
	c1.279,0.573,7.524,1.06,7.524,1.06s0,0,1.06,0.454s1.161,2.373,1.161,2.373c-2.222-1.616-8.686-2.222-13.533,2.626
	s-1.414,20.401-1.414,20.401s-1.616,1.616-3.232,6.464c-1.616,4.848,0,22.825,3.03,32.521s14.543,26.259,16.361,31.309
	c1.818,5.05-9.898,18.179-10.302,19.997s4.444,6.666,20.199,6.666s20.199-5.05,20.401-7.07s-12.119-15.755-11.109-19.593
	C1121.728,107.77,1128.596,98.074,1134.655,87.369z M1121.289,23.54c0,0,4.444-4.04,8.484,0s2.02,13.735,2.02,13.735
	s-6.464-1.414-7.878-3.232C1122.501,32.225,1120.885,28.791,1121.289,23.54z M1098.095,34.043c-1.414,1.818-7.878,3.232-7.878,3.232
	s-2.02-9.696,2.02-13.735c4.04-4.04,8.484,0,8.484,0C1101.125,28.791,1099.509,32.225,1098.095,34.043z"/>
</svg>
