<?xml version="1.0" encoding="utf-8"?>
<!-- Generator: Adobe Illustrator 17.0.0, SVG Export Plug-In . SVG Version: 6.00 Build 0)  -->
<!DOCTYPE svg PUBLIC "-//W3C//DTD SVG 1.1//EN" "http://www.w3.org/Graphics/SVG/1.1/DTD/svg11.dtd">
<svg version="1.1" id="Capa_1" xmlns="http://www.w3.org/2000/svg" xmlns:xlink="http://www.w3.org/1999/xlink" x="0px" y="0px"
	 width="1199.5px" height="64px" viewBox="0 0 1199.5 64" enable-background="new 0 0 1199.5 64" xml:space="preserve">
<rect x="10" fill="none" width="175" height="140"/>
<g enable-background="new    ">
	<path fill="#325D87" d="M28.394,47.786l-2.14,13.425h-9.173L27.01,2.805h12.119l9.788,58.406h-9.263l-2.061-13.425H28.394z
		 M33.022,16.183L29.76,39.21h6.526L33.022,16.183z"/>
</g>
<rect x="133" y="1.401" fill="none" width="122.481" height="97.985"/>
<g enable-background="new    ">
	<path fill="#325D87" d="M140.079,61.654V1.295h13.622c3.593,0,6.835,0.947,9.723,2.84c2.471,1.605,4.236,4.092,5.294,7.46
		c0.578,1.798,0.866,3.932,0.866,6.402c0,4.043-1.075,7.285-3.225,9.723c-0.899,1.027-1.958,1.813-3.177,2.359
		c2.022,0.77,3.738,2.295,5.15,4.573c0.93,1.54,1.62,3.53,2.07,5.968c0.224,1.251,0.337,2.647,0.337,4.188
		c0,3.819-0.722,7.06-2.166,9.723c-1.124,2.086-2.712,3.755-4.765,5.006c-2.31,1.413-4.605,2.118-6.883,2.118L140.079,61.654
		L140.079,61.654z M149.898,25.94h3.803c2.823,0,4.717-1.379,5.68-4.14c0.353-1.027,0.53-2.294,0.53-3.803
		c0-2.503-0.61-4.396-1.829-5.68c-1.124-1.187-2.583-1.781-4.38-1.781h-3.803L149.898,25.94L149.898,25.94z M149.898,52.653h3.803
		c3.08,0,5.214-1.589,6.402-4.765c0.417-1.091,0.626-2.342,0.626-3.754c0-3.37-0.642-5.825-1.925-7.365
		c-1.155-1.412-2.856-2.117-5.102-2.117h-3.803V52.653z"/>
</g>
<rect x="373" y="1.434" fill="none" width="122.025" height="97.62"/>
<g enable-background="new    ">
	<path fill="#325D87" d="M411.381,48.023c0,4.078-1.431,7.564-4.292,10.457c-2.861,2.894-6.314,4.341-10.359,4.341H382.08V0.964
		h14.651c4.077,0,7.539,1.448,10.383,4.341c2.844,2.894,4.267,6.363,4.267,10.408L411.381,48.023L411.381,48.023z M391.403,53.598
		h5.623c1.48,0,2.73-0.535,3.749-1.604c1.019-1.068,1.529-2.326,1.529-3.774v-32.36c0-1.48-0.518-2.745-1.554-3.798
		c-1.036-1.052-2.277-1.578-3.724-1.578h-5.623V53.598z"/>
</g>
<rect x="493" y="1.864" fill="none" width="122.1" height="97.68"/>
<g enable-background="new    ">
	<path fill="#325D87" d="M498.08,62.452V1.453h26.17v9.243h-16.976v16.635h12.404v9.243h-12.404v16.635h16.976v9.243
		C524.25,62.452,498.08,62.452,498.08,62.452z"/>
</g>
<rect x="613" y="0.527" fill="none" width="123.953" height="99.163"/>
<g enable-background="new    ">
	<path fill="#325D87" d="M627.294,62.728h-9.214V1.598h26.227v9.263h-17.013v16.671h12.431v9.263h-12.431V62.728z"/>
</g>
<rect x="253" y="1.39" fill="none" width="123.017" height="98.414"/>
<g enable-background="new    ">
	<path fill="#325D87" d="M271.24,62.179c-3.934,0-7.277-1.376-10.03-4.13c-2.754-2.754-4.13-6.081-4.13-9.983V15.783
		c0-3.933,1.384-7.276,4.154-10.029c2.768-2.754,6.104-4.13,10.006-4.13c3.933,0,7.269,1.385,10.006,4.154
		c2.737,2.769,4.106,6.105,4.106,10.006v6.75h-9.251v-6.939c0-1.416-0.504-2.628-1.51-3.635c-1.007-1.007-2.218-1.51-3.634-1.51
		c-1.416,0-2.62,0.504-3.611,1.51c-0.991,1.007-1.487,2.219-1.487,3.635v32.378c0,1.416,0.496,2.62,1.487,3.611
		c0.992,0.992,2.195,1.487,3.611,1.487c1.416,0,2.627-0.495,3.634-1.487c1.007-0.992,1.51-2.195,1.51-3.611v-8.165h9.251v8.26
		c0,3.934-1.385,7.269-4.154,10.006C278.43,60.81,275.11,62.179,271.24,62.179z"/>
</g>
<rect x="727" y="1.288" fill="none" width="16.846" height="34.128"/>
<g enable-background="new    ">
	<path fill="#325D87" d="M737.775,33.339V8.685h-4.114V5.313c1.159-0.136,2.261-0.575,3.308-1.316s1.801-1.639,2.262-2.695h3.372
		v32.037H737.775z"/>
</g>
<line fill="#325D87" stroke="#325D87" stroke-width="7" stroke-miterlimit="10" x1="740.76" y1="50.508" x2="756.822" y2="12.865"/>
<rect x="746.253" y="30.673" fill="none" width="20.772" height="37.745"/>
<g enable-background="new    ">
	<path fill="#325D87" d="M768.599,55.417c0,2.129-0.75,3.935-2.248,5.416c-1.499,1.482-3.305,2.223-5.417,2.223h-0.383
		c-2.129,0-3.934-0.749-5.416-2.248c-1.482-1.499-2.223-3.296-2.223-5.39v-2.913c0-1.958,0.656-3.67,1.968-5.135
		c0.562-0.63,1.218-1.149,1.967-1.558c-1.294-0.664-2.299-1.771-3.014-3.321c-0.358-0.8-0.537-1.805-0.537-3.015v-1.738
		c0-2.078,0.613-3.798,1.839-5.161c1.362-1.533,3.168-2.299,5.416-2.299h0.383c2.266,0,4.079,0.766,5.442,2.299
		c1.226,1.38,1.84,3.1,1.84,5.161v1.738c0,1.993-0.596,3.645-1.789,4.956c-0.528,0.58-1.115,1.039-1.763,1.38
		c1.431,0.8,2.538,2.018,3.322,3.654c0.409,0.835,0.614,1.848,0.614,3.04L768.599,55.417L768.599,55.417z M763.923,39.053
		c-0.035-2.19-0.724-3.566-2.069-4.126c-0.306-0.136-0.673-0.204-1.098-0.204c-0.835,0-1.516,0.229-2.044,0.688
		c-0.426,0.373-0.728,0.853-0.907,1.439c-0.178,0.587-0.251,1.321-0.217,2.203c0.051,1.392,0.272,2.394,0.664,3.005
		c0.511,0.815,1.345,1.223,2.504,1.223c1.158,0,2.001-0.432,2.529-1.299C763.727,41.252,763.94,40.276,763.923,39.053z
		 M763.77,53.143c0-1.907-0.434-3.185-1.302-3.833c-0.409-0.306-0.98-0.46-1.712-0.46c-1.278,0-2.146,0.545-2.606,1.636
		c-0.273,0.664-0.409,1.55-0.409,2.657v1.533c0,1.056,0.324,1.907,0.971,2.554c0.545,0.546,1.226,0.835,2.044,0.869
		c1.311-0.067,2.222-0.715,2.733-1.941c0.188-0.409,0.281-0.903,0.281-1.482L763.77,53.143L763.77,53.143z"/>
</g>
<rect x="853.128" y="1.071" fill="none" width="16.712" height="33.857"/>
<g enable-background="new    ">
	<path fill="#325D87" d="M858.855,32.868V8.409h-4.081V5.064c1.149-0.136,2.244-0.57,3.283-1.305
		c1.039-0.735,1.787-1.626,2.243-2.673h3.346v31.783L858.855,32.868L858.855,32.868z"/>
</g>
<line fill="none" stroke="#325D87" stroke-width="7" stroke-miterlimit="10" x1="861.819" y1="49.901" x2="877.753" y2="12.556"/>
<rect x="872.228" y="30.224" fill="none" width="20.607" height="37.446"/>
<g enable-background="new    ">
	<path fill="#325D87" d="M873.876,50.336l8.465-20.124h4.79v20.124h3.067v4.815h-3.067v6.843h-4.79v-6.843h-8.465V50.336z
		 M882.341,50.336v-9.927l-3.956,9.927H882.341z"/>
</g>
<rect x="968.745" y="1.885" fill="none" width="16.461" height="33.348"/>
<g>
	<path fill="#325D87" d="M974.386,33.204V9.113h-4.02V5.818c1.132-0.133,2.209-0.562,3.233-1.286
		c1.024-0.724,1.76-1.601,2.209-2.634h3.295v31.306L974.386,33.204L974.386,33.204z"/>
</g>
<line fill="none" stroke="#325D87" stroke-width="7" stroke-miterlimit="10" x1="977.305" y1="49.982" x2="993" y2="13.198"/>
<rect x="987.558" y="30.6" fill="none" width="20.298" height="36.883"/>
<g>
	<path fill="#325D87" d="M989.256,39.45c0-2.963,0.799-5.226,2.396-6.791c1.381-1.381,3.195-2.072,5.442-2.072
		c2.064,0,3.824,0.773,5.281,2.322c1.456,1.548,2.184,3.354,2.184,5.417c0,2.131-0.474,4.185-1.423,6.166
		c-0.517,1.098-1.723,2.988-3.62,5.667c-0.517,0.733-1.282,1.873-2.297,3.42l-0.849,1.273c-0.549,0.833-0.966,1.49-1.248,1.972
		c-0.134,0.247-0.2,0.397-0.2,0.45h9.262v4.619h-15.004v-4.328c0-0.1,0.343-0.675,1.03-1.726c0.317-0.482,0.676-1.014,1.078-1.595
		l1.228-1.769c0.716-0.981,1.841-2.553,3.374-4.717c1.45-2.029,2.533-3.868,3.249-5.515c0.583-1.348,0.875-2.604,0.875-3.769
		c0-0.948-0.266-1.755-0.799-2.421c-0.583-0.698-1.332-1.047-2.247-1.047c-1.315,0-2.247,0.758-2.796,2.272
		c-0.183,0.499-0.274,1.098-0.274,1.798v1.198h-4.643L989.256,39.45L989.256,39.45z"/>
</g>
<path fill="#325D87" d="M1121.994,39.807c2.679-4.732,3.025-13.169,2.702-16.525c-0.243-2.522-1.72-3.832-1.72-3.832
	s1.741-6.562-0.848-9.151c-2.589-2.589-5.758-1.161-5.758-1.161s-0.067-0.58,0.357-0.982c0.234-0.221,2.091-0.327,3.475-0.639
	c1.384-0.313,1.749-4.718,1.481-5.03c-0.268-0.313-10.525-0.357-10.525-0.357s-9.207,0-9.81,0.468
	c-0.603,0.468,0.513,4.665,1.161,4.955c0.566,0.253,3.326,0.468,3.326,0.468s0,0,0.468,0.201c0.468,0.201,0.513,1.049,0.513,1.049
	c-0.982-0.714-3.839-0.982-5.982,1.161c-2.143,2.143-0.625,9.017-0.625,9.017s-0.714,0.714-1.429,2.857
	c-0.714,2.143,0,10.089,1.339,14.375c1.339,4.286,6.428,11.607,7.232,13.839c0.804,2.232-4.375,8.035-4.554,8.839
	c-0.179,0.804,1.964,2.946,8.928,2.946s8.928-2.232,9.018-3.125s-5.357-6.964-4.91-8.66
	C1116.281,48.825,1119.316,44.539,1121.994,39.807z M1116.087,11.593c0,0,1.964-1.786,3.75,0c1.786,1.786,0.893,6.071,0.893,6.071
	s-2.857-0.625-3.482-1.429C1116.622,15.432,1115.908,13.914,1116.087,11.593z M1105.834,16.236
	c-0.625,0.804-3.482,1.429-3.482,1.429s-0.893-4.286,0.893-6.071c1.786-1.786,3.75,0,3.75,0
	C1107.173,13.914,1106.459,15.432,1105.834,16.236z"/>
<rect x="-392.417" y="-54.167" display="none" fill="#0B1F49" width="137.333" height="136.667"/>
<text transform="matrix(1 0 0 1 -369.3328 70)" display="none" fill="#173259" enable-background="new    " font-family="'Bebas'" font-size="110.0471">A</text>
</svg>
