<?xml version="1.0" encoding="utf-8"?>
<!-- Generator: Adobe Illustrator 17.0.0, SVG Export Plug-In . SVG Version: 6.00 Build 0)  -->
<!DOCTYPE svg PUBLIC "-//W3C//DTD SVG 1.1//EN" "http://www.w3.org/Graphics/SVG/1.1/DTD/svg11.dtd">
<svg version="1.1" id="Capa_1" xmlns="http://www.w3.org/2000/svg" xmlns:xlink="http://www.w3.org/1999/xlink" x="0px" y="0px"
	 width="1199.5px" height="64.5px" viewBox="0 0 1199.5 64.5" enable-background="new 0 0 1199.5 64.5" xml:space="preserve">
<rect fill="none" width="175" height="140"/>
<g enable-background="new    ">
	<path fill="#1D3E66" d="M11.01,49.011L8.753,63.167h-9.672L9.551,1.582h12.778l10.321,61.585h-9.767l-2.173-14.155H11.01z
		 M15.89,15.688l-3.44,24.28h6.881L15.89,15.688z"/>
</g>
<rect x="113" y="1.401" fill="none" width="122.481" height="97.985"/>
<g enable-background="new    ">
	<path fill="#1D3E66" d="M118.079,63.89V1.295h14.126c3.727,0,7.088,0.982,10.083,2.945c2.562,1.664,4.393,4.243,5.49,7.737
		c0.599,1.864,0.899,4.077,0.899,6.639c0,4.193-1.115,7.555-3.344,10.083c-0.932,1.065-2.03,1.88-3.295,2.446
		c2.097,0.798,3.877,2.38,5.341,4.742c0.964,1.597,1.68,3.661,2.146,6.189c0.232,1.298,0.349,2.746,0.349,4.343
		c0,3.96-0.749,7.322-2.246,10.083c-1.166,2.164-2.813,3.894-4.942,5.191c-2.396,1.465-4.776,2.196-7.138,2.196L118.079,63.89
		L118.079,63.89z M128.262,26.853h3.944c2.928,0,4.892-1.431,5.89-4.293c0.366-1.065,0.549-2.379,0.549-3.944
		c0-2.595-0.633-4.559-1.897-5.89c-1.166-1.231-2.679-1.847-4.542-1.847h-3.944L128.262,26.853L128.262,26.853z M128.262,54.556
		h3.944c3.195,0,5.407-1.648,6.639-4.942c0.432-1.131,0.649-2.429,0.649-3.893c0-3.495-0.666-6.04-1.996-7.638
		c-1.198-1.464-2.962-2.196-5.291-2.196h-3.944V54.556z"/>
</g>
<rect x="353" y="1.434" fill="none" width="122.025" height="97.62"/>
<g enable-background="new    ">
	<path fill="#1D3E66" d="M387.958,48.95c0,4.158-1.459,7.712-4.376,10.663c-2.917,2.951-6.438,4.426-10.563,4.426H358.08V0.964
		h14.939c4.157,0,7.687,1.476,10.588,4.426c2.9,2.951,4.351,6.488,4.351,10.613L387.958,48.95L387.958,48.95z M367.587,54.634h5.734
		c1.509,0,2.783-0.545,3.823-1.635c1.039-1.089,1.559-2.372,1.559-3.848V16.154c0-1.509-0.528-2.799-1.584-3.873
		c-1.056-1.073-2.322-1.61-3.798-1.61h-5.734V54.634z"/>
</g>
<rect x="473" y="1.864" fill="none" width="122.1" height="97.68"/>
<g enable-background="new    ">
	<path fill="#1D3E66" d="M478.08,63.229V1.453h26.503v9.361h-17.193v16.847h12.562v9.361h-12.562v16.847h17.193v9.361
		C504.583,63.229,478.08,63.229,478.08,63.229z"/>
</g>
<rect x="593" y="0.527" fill="none" width="123.953" height="99.163"/>
<g enable-background="new    ">
	<path fill="#1D3E66" d="M607.466,63.869h-9.386V1.598h26.717v9.436h-17.331v16.982h12.663v9.436h-12.663V63.869z"/>
</g>
<rect x="233" y="1.39" fill="none" width="123.017" height="98.414"/>
<g enable-background="new    ">
	<path fill="#1D3E66" d="M253.088,63.629c-4.169,0-7.713-1.459-10.631-4.377c-2.919-2.919-4.377-6.445-4.377-10.581V14.453
		c0-4.169,1.467-7.712,4.402-10.63c2.934-2.919,6.47-4.377,10.606-4.377c4.169,0,7.705,1.468,10.606,4.402
		c2.901,2.935,4.352,6.47,4.352,10.605v7.154h-9.805v-7.354c0-1.501-0.534-2.785-1.601-3.853c-1.068-1.067-2.351-1.601-3.852-1.601
		c-1.501,0-2.777,0.534-3.827,1.601c-1.05,1.068-1.576,2.352-1.576,3.853V48.57c0,1.501,0.525,2.777,1.576,3.827
		c1.051,1.051,2.327,1.576,3.827,1.576s2.784-0.525,3.852-1.576c1.067-1.051,1.601-2.327,1.601-3.827v-8.654h9.805v8.755
		c0,4.17-1.468,7.705-4.402,10.606C260.709,62.178,257.191,63.629,253.088,63.629z"/>
</g>
<rect x="717" y="0.198" fill="none" width="17.313" height="35.075"/>
<g enable-background="new    ">
	<path fill="#1D3E66" d="M722.935,33.138V7.8h-4.228V4.334c1.191-0.14,2.324-0.591,3.4-1.353s1.851-1.684,2.325-2.77h3.466v32.926
		H722.935z"/>
</g>
<line fill="none" stroke="#1D3E66" stroke-width="7" stroke-miterlimit="10" x1="726.004" y1="50.784" x2="742.511" y2="12.096"/>
<rect x="736.787" y="30.398" fill="none" width="21.349" height="38.792"/>
<g enable-background="new    ">
	<path fill="#1D3E66" d="M754.615,55.829c0,2.188-0.771,4.044-2.31,5.566c-1.541,1.523-3.397,2.284-5.567,2.284h-0.393
		c-2.188,0-4.043-0.77-5.566-2.31s-2.284-3.387-2.284-5.54v-2.994c0-2.012,0.674-3.772,2.022-5.278
		c0.578-0.647,1.251-1.181,2.022-1.602c-1.33-0.683-2.363-1.82-3.098-3.413c-0.368-0.822-0.552-1.856-0.552-3.099v-1.786
		c0-2.136,0.63-3.904,1.89-5.304c1.4-1.575,3.255-2.363,5.566-2.363h0.393c2.328,0,4.192,0.788,5.593,2.363
		c1.26,1.418,1.891,3.186,1.891,5.304v1.786c0,2.048-0.613,3.746-1.839,5.094c-0.543,0.596-1.146,1.068-1.812,1.418
		c1.471,0.822,2.608,2.074,3.414,3.755c0.42,0.858,0.631,1.899,0.631,3.124L754.615,55.829L754.615,55.829z M749.809,39.01
		c-0.036-2.251-0.744-3.665-2.127-4.241c-0.315-0.14-0.692-0.209-1.129-0.209c-0.858,0-1.558,0.236-2.101,0.707
		c-0.438,0.384-0.748,0.877-0.932,1.479c-0.183,0.603-0.258,1.357-0.223,2.264c0.052,1.431,0.28,2.461,0.683,3.089
		c0.525,0.838,1.383,1.257,2.573,1.257c1.19,0,2.056-0.444,2.599-1.335C749.608,41.27,749.827,40.268,749.809,39.01z
		 M749.652,53.492c0-1.96-0.446-3.273-1.339-3.939c-0.42-0.315-1.007-0.472-1.759-0.472c-1.313,0-2.206,0.56-2.679,1.681
		c-0.28,0.683-0.42,1.593-0.42,2.731v1.575c0,1.085,0.333,1.96,0.998,2.625c0.56,0.561,1.26,0.858,2.101,0.893
		c1.348-0.069,2.284-0.735,2.809-1.995c0.193-0.42,0.289-0.928,0.289-1.523L749.652,53.492L749.652,53.492z"/>
</g>
<rect x="839.128" y="1.071" fill="none" width="17.166" height="34.776"/>
<g enable-background="new    ">
	<path fill="#1D3E66" d="M845.011,33.731V8.608h-4.192V5.172c1.18-0.139,2.305-0.586,3.372-1.341s1.835-1.67,2.304-2.746h3.437
		v32.646L845.011,33.731L845.011,33.731z"/>
</g>
<line fill="none" stroke="#1D3E66" stroke-width="7" stroke-miterlimit="10" x1="848.055" y1="51.228" x2="864.422" y2="12.868"/>
<rect x="858.747" y="31.015" fill="none" width="21.167" height="38.462"/>
<g enable-background="new    ">
	<path fill="#1D3E66" d="M860.439,51.673l8.695-20.671h4.92v20.671h3.15v4.946h-3.15v7.029h-4.92V56.62h-8.695V51.673z
		 M869.135,51.673V41.477l-4.064,10.196H869.135z"/>
</g>
<rect x="956.745" y="0.208" fill="none" width="17.469" height="35.39"/>
<g enable-background="new    ">
	<path fill="#1D3E66" d="M962.732,33.444V7.878h-4.266V4.381c1.201-0.141,2.344-0.597,3.431-1.365s1.867-1.699,2.344-2.795h3.497
		v33.222L962.732,33.444L962.732,33.444z"/>
</g>
<line fill="none" stroke="#1D3E66" stroke-width="7" stroke-miterlimit="10" x1="965.829" y1="51.249" x2="982.485" y2="12.213"/>
<rect x="976.71" y="30.681" fill="none" width="21.54" height="39.141"/>
<g enable-background="new    ">
	<path fill="#1D3E66" d="M978.511,40.072c0-3.144,0.848-5.546,2.543-7.207c1.466-1.465,3.391-2.199,5.775-2.199
		c2.19,0,4.058,0.821,5.604,2.464c1.545,1.643,2.318,3.559,2.318,5.749c0,2.261-0.503,4.442-1.51,6.543
		c-0.548,1.165-1.829,3.171-3.841,6.014c-0.548,0.778-1.361,1.987-2.438,3.629l-0.901,1.351c-0.582,0.884-1.025,1.581-1.325,2.093
		c-0.142,0.262-0.212,0.421-0.212,0.477h9.829v4.901h-15.922v-4.593c0-0.106,0.364-0.717,1.093-1.832
		c0.336-0.511,0.718-1.076,1.144-1.693l1.304-1.878c0.76-1.042,1.954-2.71,3.581-5.005c1.539-2.154,2.688-4.105,3.448-5.852
		c0.619-1.43,0.929-2.764,0.929-4c0-1.006-0.283-1.862-0.848-2.569c-0.619-0.741-1.413-1.112-2.385-1.112
		c-1.395,0-2.384,0.804-2.967,2.411c-0.195,0.53-0.291,1.165-0.291,1.908v1.271h-4.928L978.511,40.072L978.511,40.072z"/>
</g>
<path fill="#1D3E66" d="M1105.726,40.979c2.762-4.879,3.119-13.579,2.786-17.039c-0.25-2.6-1.774-3.952-1.774-3.952
	s1.795-6.767-0.875-9.436c-2.67-2.67-5.938-1.197-5.938-1.197s-0.069-0.598,0.368-1.013c0.241-0.228,2.156-0.337,3.583-0.659
	c1.427-0.323,1.803-4.864,1.527-5.187c-0.276-0.323-10.852-0.368-10.852-0.368s-9.494,0-10.115,0.483
	c-0.622,0.483,0.529,4.81,1.197,5.109c0.583,0.261,3.43,0.483,3.43,0.483s0,0,0.483,0.207c0.483,0.207,0.529,1.082,0.529,1.082
	c-1.013-0.736-3.959-1.013-6.168,1.197s-0.644,9.298-0.644,9.298s-0.736,0.736-1.473,2.946c-0.736,2.21,0,10.403,1.381,14.823
	c1.381,4.419,6.628,11.969,7.457,14.27c0.829,2.302-4.511,8.286-4.696,9.114c-0.184,0.829,2.025,3.038,9.206,3.038
	s9.206-2.302,9.298-3.222c0.092-0.921-5.524-7.181-5.063-8.93C1099.834,50.278,1102.964,45.859,1105.726,40.979z M1099.634,11.888
	c0,0,2.025-1.842,3.867,0c1.842,1.842,0.921,6.26,0.921,6.26s-2.946-0.644-3.59-1.473
	C1100.186,15.846,1099.45,14.281,1099.634,11.888z M1089.063,16.675c-0.644,0.829-3.59,1.473-3.59,1.473s-0.921-4.419,0.921-6.26
	c1.842-1.842,3.867,0,3.867,0C1090.443,14.281,1089.707,15.846,1089.063,16.675z"/>
<rect x="-392.417" y="-54.167" display="none" fill="#0B1F49" width="137.333" height="136.667"/>
<text transform="matrix(1 0 0 1 -369.3328 70)" display="none" fill="#173259" enable-background="new    " font-family="'Bebas'" font-size="110.0471">A</text>
</svg>
